<?xml version="1.0" encoding="utf-8" standalone="no"?>
<!DOCTYPE svg PUBLIC "-//W3C//DTD SVG 1.1//EN"
  "http://www.w3.org/Graphics/SVG/1.1/DTD/svg11.dtd">
<svg xmlns:xlink="http://www.w3.org/1999/xlink" width="576pt" height="432pt" viewBox="0 0 576 432" xmlns="http://www.w3.org/2000/svg" version="1.1">
 <metadata>
  <rdf:RDF xmlns:dc="http://purl.org/dc/elements/1.1/" xmlns:cc="http://creativecommons.org/ns#" xmlns:rdf="http://www.w3.org/1999/02/22-rdf-syntax-ns#">
   <cc:Work>
    <dc:type rdf:resource="http://purl.org/dc/dcmitype/StillImage"/>
    <dc:date>2025-11-06T21:09:25.763203</dc:date>
    <dc:format>image/svg+xml</dc:format>
    <dc:creator>
     <cc:Agent>
      <dc:title>Matplotlib v3.9.4, https://matplotlib.org/</dc:title>
     </cc:Agent>
    </dc:creator>
   </cc:Work>
  </rdf:RDF>
 </metadata>
 <defs>
  <style type="text/css">*{stroke-linejoin: round; stroke-linecap: butt}</style>
 </defs>
 <g id="figure_1">
  <g id="patch_1">
   <path d="M 0 432 
L 576 432 
L 576 0 
L 0 0 
z
" style="fill: #ffffff"/>
  </g>
  <g id="axes_1">
   <g id="patch_2">
    <path d="M 72 384.48 
L 518.4 384.48 
L 518.4 51.84 
L 72 51.84 
z
" style="fill: #ffffff"/>
   </g>
   <g id="matplotlib.axis_1">
    <g id="xtick_1">
     <g id="line2d_1">
      <path d="M 92.290909 384.48 
L 92.290909 51.84 
" clip-path="url(#pc0d565f0b0)" style="fill: none; stroke: #b0b0b0; stroke-width: 0.8; stroke-linecap: square"/>
     </g>
     <g id="line2d_2">
      <defs>
       <path id="m3cf6dacf7a" d="M 0 0 
L 0 3.5 
" style="stroke: #000000; stroke-width: 0.8"/>
      </defs>
      <g>
       <use xlink:href="#m3cf6dacf7a" x="92.290909" y="384.48" style="stroke: #000000; stroke-width: 0.8"/>
      </g>
     </g>
     <g id="text_1">
      <!-- 0.0 -->
      <g transform="translate(84.790909 398.355) scale(0.1 -0.1)">
       <defs>
        <path id="SimHei-30" d="M 225 2537 
Q 250 3200 412 3587 
Q 575 3975 875 4225 
Q 1175 4475 1612 4475 
Q 2050 4475 2375 4112 
Q 2700 3750 2800 3200 
Q 2900 2650 2862 1937 
Q 2825 1225 2612 775 
Q 2400 325 1975 150 
Q 1550 -25 1125 187 
Q 700 400 525 750 
Q 350 1100 275 1487 
Q 200 1875 225 2537 
z
M 750 2687 
Q 675 2000 800 1462 
Q 925 925 1212 700 
Q 1500 475 1800 612 
Q 2100 750 2237 1162 
Q 2375 1575 2375 2062 
Q 2375 2550 2337 2950 
Q 2300 3350 2112 3675 
Q 1925 4000 1612 4012 
Q 1300 4025 1062 3700 
Q 825 3375 750 2687 
z
" transform="scale(0.015625)"/>
        <path id="SimHei-2e" d="M 1075 125 
L 500 125 
L 500 675 
L 1075 675 
L 1075 125 
z
" transform="scale(0.015625)"/>
       </defs>
       <use xlink:href="#SimHei-30"/>
       <use xlink:href="#SimHei-2e" x="50"/>
       <use xlink:href="#SimHei-30" x="100"/>
      </g>
     </g>
    </g>
    <g id="xtick_2">
     <g id="line2d_3">
      <path d="M 173.454545 384.48 
L 173.454545 51.84 
" clip-path="url(#pc0d565f0b0)" style="fill: none; stroke: #b0b0b0; stroke-width: 0.8; stroke-linecap: square"/>
     </g>
     <g id="line2d_4">
      <g>
       <use xlink:href="#m3cf6dacf7a" x="173.454545" y="384.48" style="stroke: #000000; stroke-width: 0.8"/>
      </g>
     </g>
     <g id="text_2">
      <!-- 0.2 -->
      <g transform="translate(165.954545 398.355) scale(0.1 -0.1)">
       <defs>
        <path id="SimHei-32" d="M 300 250 
Q 325 625 650 925 
Q 975 1225 1475 1862 
Q 1975 2500 2125 2850 
Q 2275 3200 2237 3450 
Q 2200 3700 2000 3862 
Q 1800 4025 1537 4000 
Q 1275 3975 1037 3800 
Q 800 3625 675 3275 
L 200 3350 
Q 400 3925 712 4187 
Q 1025 4450 1450 4475 
Q 1700 4500 1900 4462 
Q 2100 4425 2312 4287 
Q 2525 4150 2662 3875 
Q 2800 3600 2762 3212 
Q 2725 2825 2375 2287 
Q 2025 1750 1025 600 
L 2825 600 
L 2825 150 
L 300 150 
L 300 250 
z
" transform="scale(0.015625)"/>
       </defs>
       <use xlink:href="#SimHei-30"/>
       <use xlink:href="#SimHei-2e" x="50"/>
       <use xlink:href="#SimHei-32" x="100"/>
      </g>
     </g>
    </g>
    <g id="xtick_3">
     <g id="line2d_5">
      <path d="M 254.618182 384.48 
L 254.618182 51.84 
" clip-path="url(#pc0d565f0b0)" style="fill: none; stroke: #b0b0b0; stroke-width: 0.8; stroke-linecap: square"/>
     </g>
     <g id="line2d_6">
      <g>
       <use xlink:href="#m3cf6dacf7a" x="254.618182" y="384.48" style="stroke: #000000; stroke-width: 0.8"/>
      </g>
     </g>
     <g id="text_3">
      <!-- 0.4 -->
      <g transform="translate(247.118182 398.355) scale(0.1 -0.1)">
       <defs>
        <path id="SimHei-34" d="M 2000 1100 
L 75 1100 
L 75 1525 
L 2100 4450 
L 2475 4450 
L 2475 1525 
L 3075 1525 
L 3075 1100 
L 2475 1100 
L 2475 150 
L 2000 150 
L 2000 1100 
z
M 2000 1525 
L 2000 3500 
L 600 1525 
L 2000 1525 
z
" transform="scale(0.015625)"/>
       </defs>
       <use xlink:href="#SimHei-30"/>
       <use xlink:href="#SimHei-2e" x="50"/>
       <use xlink:href="#SimHei-34" x="100"/>
      </g>
     </g>
    </g>
    <g id="xtick_4">
     <g id="line2d_7">
      <path d="M 335.781818 384.48 
L 335.781818 51.84 
" clip-path="url(#pc0d565f0b0)" style="fill: none; stroke: #b0b0b0; stroke-width: 0.8; stroke-linecap: square"/>
     </g>
     <g id="line2d_8">
      <g>
       <use xlink:href="#m3cf6dacf7a" x="335.781818" y="384.48" style="stroke: #000000; stroke-width: 0.8"/>
      </g>
     </g>
     <g id="text_4">
      <!-- 0.6 -->
      <g transform="translate(328.281818 398.355) scale(0.1 -0.1)">
       <defs>
        <path id="SimHei-36" d="M 250 1612 
Q 275 1975 387 2225 
Q 500 2475 725 2850 
L 1750 4450 
L 2325 4450 
L 1275 2800 
Q 1950 2975 2350 2750 
Q 2750 2525 2887 2237 
Q 3025 1950 3037 1612 
Q 3050 1275 2937 950 
Q 2825 625 2537 362 
Q 2250 100 1737 75 
Q 1225 50 862 262 
Q 500 475 362 862 
Q 225 1250 250 1612 
z
M 1025 787 
Q 1250 550 1625 525 
Q 2000 500 2250 775 
Q 2500 1050 2500 1575 
Q 2500 2100 2187 2300 
Q 1875 2500 1487 2450 
Q 1100 2400 925 2075 
Q 750 1750 775 1387 
Q 800 1025 1025 787 
z
" transform="scale(0.015625)"/>
       </defs>
       <use xlink:href="#SimHei-30"/>
       <use xlink:href="#SimHei-2e" x="50"/>
       <use xlink:href="#SimHei-36" x="100"/>
      </g>
     </g>
    </g>
    <g id="xtick_5">
     <g id="line2d_9">
      <path d="M 416.945455 384.48 
L 416.945455 51.84 
" clip-path="url(#pc0d565f0b0)" style="fill: none; stroke: #b0b0b0; stroke-width: 0.8; stroke-linecap: square"/>
     </g>
     <g id="line2d_10">
      <g>
       <use xlink:href="#m3cf6dacf7a" x="416.945455" y="384.48" style="stroke: #000000; stroke-width: 0.8"/>
      </g>
     </g>
     <g id="text_5">
      <!-- 0.8 -->
      <g transform="translate(409.445455 398.355) scale(0.1 -0.1)">
       <defs>
        <path id="SimHei-38" d="M 175 1375 
Q 175 1675 325 1962 
Q 475 2250 825 2425 
Q 525 2600 425 2812 
Q 325 3025 312 3300 
Q 300 3575 387 3775 
Q 475 3975 650 4150 
Q 825 4325 1037 4387 
Q 1250 4450 1500 4450 
Q 1750 4450 1950 4400 
Q 2150 4350 2375 4187 
Q 2600 4025 2700 3725 
Q 2800 3425 2687 3025 
Q 2575 2625 2100 2400 
Q 2525 2275 2700 2012 
Q 2875 1750 2875 1375 
Q 2875 1000 2762 775 
Q 2650 550 2512 400 
Q 2375 250 2137 162 
Q 1900 75 1537 75 
Q 1175 75 912 162 
Q 650 250 475 425 
Q 300 600 237 837 
Q 175 1075 175 1375 
z
M 687 1400 
Q 675 1100 787 875 
Q 900 650 1200 587 
Q 1500 525 1825 600 
Q 2150 675 2275 950 
Q 2400 1225 2362 1500 
Q 2325 1775 2050 1962 
Q 1775 2150 1450 2125 
Q 1125 2100 912 1900 
Q 700 1700 687 1400 
z
M 775 3350 
Q 775 3100 950 2875 
Q 1125 2650 1500 2650 
Q 1875 2650 2062 2875 
Q 2250 3100 2237 3412 
Q 2225 3725 2012 3875 
Q 1800 4025 1437 4000 
Q 1075 3975 925 3787 
Q 775 3600 775 3350 
z
" transform="scale(0.015625)"/>
       </defs>
       <use xlink:href="#SimHei-30"/>
       <use xlink:href="#SimHei-2e" x="50"/>
       <use xlink:href="#SimHei-38" x="100"/>
      </g>
     </g>
    </g>
    <g id="xtick_6">
     <g id="line2d_11">
      <path d="M 498.109091 384.48 
L 498.109091 51.84 
" clip-path="url(#pc0d565f0b0)" style="fill: none; stroke: #b0b0b0; stroke-width: 0.8; stroke-linecap: square"/>
     </g>
     <g id="line2d_12">
      <g>
       <use xlink:href="#m3cf6dacf7a" x="498.109091" y="384.48" style="stroke: #000000; stroke-width: 0.8"/>
      </g>
     </g>
     <g id="text_6">
      <!-- 1.0 -->
      <g transform="translate(490.609091 398.355) scale(0.1 -0.1)">
       <defs>
        <path id="SimHei-31" d="M 1400 3600 
Q 1075 3275 575 2975 
L 575 3450 
Q 1200 3875 1600 4450 
L 1900 4450 
L 1900 150 
L 1400 150 
L 1400 3600 
z
" transform="scale(0.015625)"/>
       </defs>
       <use xlink:href="#SimHei-31"/>
       <use xlink:href="#SimHei-2e" x="50"/>
       <use xlink:href="#SimHei-30" x="100"/>
      </g>
     </g>
    </g>
    <g id="text_7">
     <!-- 误判代价 -->
     <g transform="translate(275.2 411.534688) scale(0.1 -0.1)">
      <defs>
       <path id="SimHei-8bef" d="M 4625 2750 
Q 5325 2750 5800 2775 
L 5800 2350 
Q 5300 2375 4625 2375 
L 4150 2375 
Q 4150 2125 4100 1650 
L 5025 1650 
Q 5575 1650 6100 1675 
L 6100 1225 
Q 5575 1250 5025 1250 
L 4250 1250 
Q 4575 600 5050 287 
Q 5525 -25 6125 -125 
Q 5900 -350 5775 -625 
Q 4875 -275 4450 175 
Q 4025 625 3900 1000 
Q 3600 325 3125 -62 
Q 2650 -450 2025 -675 
Q 1975 -450 1725 -200 
Q 2475 -75 2937 437 
Q 3400 950 3475 1250 
L 2975 1250 
Q 2400 1250 2025 1225 
L 2025 1675 
Q 2475 1650 2900 1650 
L 3600 1650 
Q 3650 2025 3650 2375 
L 3325 2375 
Q 2675 2375 2225 2350 
L 2225 2775 
Q 2700 2750 3150 2750 
L 4625 2750 
z
M 5425 4875 
Q 5400 4550 5400 4075 
Q 5400 3600 5425 3325 
L 2450 3325 
Q 2475 3575 2475 4050 
Q 2475 4525 2450 4875 
L 5425 4875 
z
M 1550 3325 
Q 1525 3000 1525 2500 
L 1525 675 
L 1900 1100 
Q 2025 875 2225 700 
Q 1675 300 1250 -325 
Q 1100 -100 825 50 
Q 1025 250 1050 500 
L 1050 2900 
Q 700 2900 325 2875 
L 325 3350 
Q 550 3325 750 3325 
L 1550 3325 
z
M 4975 3700 
L 4975 4475 
L 2900 4475 
L 2900 3700 
L 4975 3700 
z
M 975 5125 
Q 1150 5000 1900 4275 
Q 1725 4125 1550 3925 
Q 1150 4400 675 4775 
Q 875 4975 975 5125 
z
" transform="scale(0.015625)"/>
       <path id="SimHei-5224" d="M 225 -225 
Q 900 50 1262 475 
Q 1625 900 1700 1575 
Q 700 1575 250 1550 
L 250 2000 
Q 700 1975 1750 1975 
L 1750 2850 
Q 975 2850 500 2825 
L 500 3275 
Q 975 3250 1750 3250 
Q 1750 4600 1700 5100 
L 2275 5100 
Q 2225 4825 2225 4325 
L 2225 3250 
Q 2925 3250 3325 3275 
L 3325 2825 
Q 2925 2850 2225 2850 
L 2225 1975 
Q 3125 1975 3550 2000 
L 3550 1550 
Q 3150 1575 2200 1575 
Q 2100 750 1662 225 
Q 1225 -300 700 -600 
Q 550 -375 225 -225 
z
M 4500 25 
Q 5050 -25 5175 0 
Q 5300 25 5300 200 
L 5300 4300 
Q 5300 4825 5275 5125 
L 5800 5125 
Q 5775 4800 5775 4300 
L 5775 50 
Q 5775 -325 5550 -425 
Q 5325 -525 4750 -575 
Q 4700 -200 4500 25 
z
M 4025 850 
Q 4050 1225 4050 1675 
L 4050 3575 
Q 4050 4050 4025 4350 
L 4550 4350 
Q 4525 3925 4525 3500 
L 4525 1675 
Q 4525 1225 4550 850 
L 4025 850 
z
M 825 3575 
Q 625 4175 400 4475 
Q 625 4525 850 4675 
Q 1075 4350 1325 3775 
Q 1100 3700 825 3575 
z
M 3575 4475 
Q 3375 4250 3262 4037 
Q 3150 3825 3050 3600 
Q 2800 3725 2600 3800 
Q 2750 4000 2887 4237 
Q 3025 4475 3100 4700 
Q 3275 4575 3575 4475 
z
" transform="scale(0.015625)"/>
       <path id="SimHei-4ee3" d="M 3300 2950 
Q 3175 4575 3150 5100 
Q 3300 5075 3725 5025 
Q 3675 4725 3800 3050 
Q 5000 3275 5650 3475 
L 5775 3000 
Q 5500 2975 3850 2625 
Q 4150 1050 4737 450 
Q 5325 -150 5412 125 
Q 5500 400 5525 725 
Q 5800 550 6075 500 
Q 5900 -200 5737 -425 
Q 5575 -650 5137 -500 
Q 4700 -350 4187 300 
Q 3675 950 3350 2525 
Q 2400 2325 2175 2250 
L 2025 2725 
Q 2425 2775 3300 2950 
z
M 2250 4975 
Q 2100 4725 1700 3650 
L 1700 475 
Q 1700 -50 1725 -600 
L 1200 -600 
Q 1225 -50 1225 475 
L 1225 2750 
Q 850 2150 600 1850 
Q 450 2050 225 2225 
Q 625 2600 1050 3425 
Q 1475 4250 1675 5200 
Q 2050 5025 2250 4975 
z
M 4700 4875 
Q 5150 4325 5325 4050 
Q 5100 3900 4875 3725 
Q 4650 4150 4300 4575 
Q 4500 4700 4700 4875 
z
" transform="scale(0.015625)"/>
       <path id="SimHei-4ef7" d="M 2200 4975 
Q 2050 4725 1650 3775 
L 1650 450 
Q 1650 -225 1675 -650 
L 1175 -650 
Q 1175 -225 1200 450 
L 1200 2975 
Q 900 2425 650 2100 
Q 525 2275 225 2450 
Q 750 3025 1125 3800 
Q 1500 4575 1625 5175 
Q 1950 5025 2200 4975 
z
M 4175 4700 
Q 4850 3525 6150 2950 
Q 5925 2750 5775 2500 
Q 4725 3100 3950 4300 
Q 3300 3125 2250 2350 
Q 2125 2525 1900 2725 
Q 2825 3325 3250 4050 
Q 3675 4775 3750 5150 
Q 4150 4950 4325 4900 
L 4175 4700 
z
M 3475 2650 
Q 3400 2075 3325 1087 
Q 3250 100 2325 -675 
Q 2175 -450 1925 -300 
Q 2850 350 2912 1262 
Q 2975 2175 2950 2700 
Q 3275 2650 3475 2650 
z
M 5075 2700 
Q 5050 2150 5050 1725 
L 5050 150 
Q 5050 -225 5075 -650 
L 4550 -650 
Q 4575 -225 4575 175 
L 4575 1875 
Q 4575 2150 4550 2700 
L 5075 2700 
z
" transform="scale(0.015625)"/>
      </defs>
      <use xlink:href="#SimHei-8bef"/>
      <use xlink:href="#SimHei-5224" x="100"/>
      <use xlink:href="#SimHei-4ee3" x="200"/>
      <use xlink:href="#SimHei-4ef7" x="300"/>
     </g>
    </g>
   </g>
   <g id="matplotlib.axis_2">
    <g id="ytick_1">
     <g id="line2d_13">
      <path d="M 72 369.36 
L 518.4 369.36 
" clip-path="url(#pc0d565f0b0)" style="fill: none; stroke: #b0b0b0; stroke-width: 0.8; stroke-linecap: square"/>
     </g>
     <g id="line2d_14">
      <defs>
       <path id="m0d09473e7e" d="M 0 0 
L -3.5 0 
" style="stroke: #000000; stroke-width: 0.8"/>
      </defs>
      <g>
       <use xlink:href="#m0d09473e7e" x="72" y="369.36" style="stroke: #000000; stroke-width: 0.8"/>
      </g>
     </g>
     <g id="text_8">
      <!-- 0.0 -->
      <g transform="translate(50 372.7975) scale(0.1 -0.1)">
       <use xlink:href="#SimHei-30"/>
       <use xlink:href="#SimHei-2e" x="50"/>
       <use xlink:href="#SimHei-30" x="100"/>
      </g>
     </g>
    </g>
    <g id="ytick_2">
     <g id="line2d_15">
      <path d="M 72 308.88 
L 518.4 308.88 
" clip-path="url(#pc0d565f0b0)" style="fill: none; stroke: #b0b0b0; stroke-width: 0.8; stroke-linecap: square"/>
     </g>
     <g id="line2d_16">
      <g>
       <use xlink:href="#m0d09473e7e" x="72" y="308.88" style="stroke: #000000; stroke-width: 0.8"/>
      </g>
     </g>
     <g id="text_9">
      <!-- 0.2 -->
      <g transform="translate(50 312.3175) scale(0.1 -0.1)">
       <use xlink:href="#SimHei-30"/>
       <use xlink:href="#SimHei-2e" x="50"/>
       <use xlink:href="#SimHei-32" x="100"/>
      </g>
     </g>
    </g>
    <g id="ytick_3">
     <g id="line2d_17">
      <path d="M 72 248.4 
L 518.4 248.4 
" clip-path="url(#pc0d565f0b0)" style="fill: none; stroke: #b0b0b0; stroke-width: 0.8; stroke-linecap: square"/>
     </g>
     <g id="line2d_18">
      <g>
       <use xlink:href="#m0d09473e7e" x="72" y="248.4" style="stroke: #000000; stroke-width: 0.8"/>
      </g>
     </g>
     <g id="text_10">
      <!-- 0.4 -->
      <g transform="translate(50 251.8375) scale(0.1 -0.1)">
       <use xlink:href="#SimHei-30"/>
       <use xlink:href="#SimHei-2e" x="50"/>
       <use xlink:href="#SimHei-34" x="100"/>
      </g>
     </g>
    </g>
    <g id="ytick_4">
     <g id="line2d_19">
      <path d="M 72 187.92 
L 518.4 187.92 
" clip-path="url(#pc0d565f0b0)" style="fill: none; stroke: #b0b0b0; stroke-width: 0.8; stroke-linecap: square"/>
     </g>
     <g id="line2d_20">
      <g>
       <use xlink:href="#m0d09473e7e" x="72" y="187.92" style="stroke: #000000; stroke-width: 0.8"/>
      </g>
     </g>
     <g id="text_11">
      <!-- 0.6 -->
      <g transform="translate(50 191.3575) scale(0.1 -0.1)">
       <use xlink:href="#SimHei-30"/>
       <use xlink:href="#SimHei-2e" x="50"/>
       <use xlink:href="#SimHei-36" x="100"/>
      </g>
     </g>
    </g>
    <g id="ytick_5">
     <g id="line2d_21">
      <path d="M 72 127.44 
L 518.4 127.44 
" clip-path="url(#pc0d565f0b0)" style="fill: none; stroke: #b0b0b0; stroke-width: 0.8; stroke-linecap: square"/>
     </g>
     <g id="line2d_22">
      <g>
       <use xlink:href="#m0d09473e7e" x="72" y="127.44" style="stroke: #000000; stroke-width: 0.8"/>
      </g>
     </g>
     <g id="text_12">
      <!-- 0.8 -->
      <g transform="translate(50 130.8775) scale(0.1 -0.1)">
       <use xlink:href="#SimHei-30"/>
       <use xlink:href="#SimHei-2e" x="50"/>
       <use xlink:href="#SimHei-38" x="100"/>
      </g>
     </g>
    </g>
    <g id="ytick_6">
     <g id="line2d_23">
      <path d="M 72 66.96 
L 518.4 66.96 
" clip-path="url(#pc0d565f0b0)" style="fill: none; stroke: #b0b0b0; stroke-width: 0.8; stroke-linecap: square"/>
     </g>
     <g id="line2d_24">
      <g>
       <use xlink:href="#m0d09473e7e" x="72" y="66.96" style="stroke: #000000; stroke-width: 0.8"/>
      </g>
     </g>
     <g id="text_13">
      <!-- 1.0 -->
      <g transform="translate(50 70.3975) scale(0.1 -0.1)">
       <use xlink:href="#SimHei-31"/>
       <use xlink:href="#SimHei-2e" x="50"/>
       <use xlink:href="#SimHei-30" x="100"/>
      </g>
     </g>
    </g>
    <g id="text_14">
     <!-- 识别能力 -->
     <g transform="translate(44.75 238.16) rotate(-90) scale(0.1 -0.1)">
      <defs>
       <path id="SimHei-8bc6" d="M 5575 4875 
Q 5550 4375 5550 3325 
Q 5550 2300 5575 1850 
L 2600 1850 
Q 2625 2275 2625 3325 
Q 2625 4375 2600 4875 
L 5575 4875 
z
M 5025 2275 
L 5025 4400 
L 3150 4400 
L 3150 2275 
L 5025 2275 
z
M 1650 3350 
Q 1625 2900 1625 2300 
L 1625 850 
Q 1875 1100 2175 1475 
Q 2275 1225 2450 950 
Q 2075 600 1812 300 
Q 1550 0 1275 -350 
Q 1100 -75 850 100 
Q 1125 325 1125 600 
L 1125 2925 
Q 575 2925 250 2900 
L 250 3375 
Q 550 3350 925 3350 
L 1650 3350 
z
M 4825 1425 
Q 5775 350 6125 -150 
Q 5850 -350 5650 -550 
Q 5150 200 4425 1050 
Q 4625 1175 4825 1425 
z
M 3750 1075 
Q 3500 775 3150 300 
Q 2800 -175 2375 -650 
Q 2250 -500 1975 -300 
Q 2950 725 3250 1400 
Q 3500 1225 3750 1075 
z
M 1275 5275 
Q 1850 4625 2050 4300 
Q 1825 4150 1625 3925 
Q 1150 4650 875 4950 
Q 1075 5075 1275 5275 
z
" transform="scale(0.015625)"/>
       <path id="SimHei-522b" d="M 3275 4950 
Q 3250 4600 3250 3925 
Q 3250 3250 3275 2975 
L 800 2975 
Q 825 3275 825 3975 
Q 825 4700 800 4950 
L 3275 4950 
z
M 1650 2125 
Q 1650 2400 1625 2925 
Q 1950 2875 2225 2850 
Q 2150 2625 2125 2125 
L 3600 2125 
Q 3575 1850 3575 1375 
L 3525 125 
Q 3500 -275 3200 -400 
Q 2900 -525 2475 -600 
Q 2375 -275 2250 -25 
Q 2725 -25 2900 25 
Q 3075 75 3075 325 
L 3125 1675 
L 2100 1675 
Q 2025 875 1737 400 
Q 1450 -75 650 -675 
Q 475 -400 250 -225 
Q 900 125 1237 575 
Q 1575 1025 1600 1675 
L 1125 1675 
Q 825 1675 450 1650 
L 450 2150 
Q 800 2125 1125 2125 
L 1650 2125 
z
M 5800 5125 
Q 5775 4875 5775 4375 
L 5775 175 
Q 5775 -350 5525 -450 
Q 5275 -550 4700 -650 
Q 4625 -350 4475 -75 
Q 5000 -75 5150 -12 
Q 5300 50 5300 325 
L 5300 4375 
Q 5300 4825 5275 5125 
L 5800 5125 
z
M 4600 4400 
Q 4575 4100 4575 3700 
L 4575 1600 
Q 4575 1125 4600 725 
L 4075 725 
Q 4100 1125 4100 1600 
L 4100 3700 
Q 4100 4100 4075 4400 
L 4600 4400 
z
M 2775 3425 
L 2775 4500 
L 1300 4500 
L 1300 3425 
L 2775 3425 
z
" transform="scale(0.015625)"/>
       <path id="SimHei-80fd" d="M 2025 -150 
Q 2475 -150 2525 -62 
Q 2575 25 2575 200 
L 2575 550 
L 1225 550 
L 1225 -625 
L 750 -625 
Q 775 -125 775 275 
L 775 1950 
Q 775 2400 750 2750 
L 3050 2750 
Q 3025 2375 3025 1925 
L 3025 -175 
Q 3000 -450 2800 -525 
Q 2600 -600 2225 -650 
Q 2175 -425 2025 -150 
z
M 5800 1625 
Q 5700 1600 5212 1375 
Q 4725 1150 4100 950 
L 4100 250 
Q 4100 -50 4375 -50 
L 5275 -50 
Q 5475 0 5550 575 
Q 5750 475 6050 375 
Q 5875 -425 5475 -425 
L 4125 -425 
Q 3650 -425 3650 50 
L 3650 1675 
Q 3650 2050 3625 2350 
L 4125 2350 
Q 4100 2050 4100 1700 
L 4100 1375 
Q 4350 1450 4762 1650 
Q 5175 1850 5425 2075 
Q 5650 1775 5800 1625 
z
M 4100 4100 
Q 4450 4250 4775 4412 
Q 5100 4575 5425 4825 
Q 5625 4575 5775 4400 
Q 5625 4350 5137 4112 
Q 4650 3875 4100 3700 
L 4100 3325 
Q 4100 3025 4450 3025 
L 5175 3025 
Q 5425 3025 5500 3675 
Q 5750 3550 6000 3450 
Q 5825 2650 5375 2650 
L 4250 2650 
Q 3650 2650 3650 3200 
L 3650 4475 
Q 3650 4775 3625 5125 
L 4125 5125 
Q 4100 4950 4100 4400 
L 4100 4100 
z
M 3025 3075 
Q 2950 3200 2825 3350 
Q 2000 3300 1450 3250 
Q 900 3200 625 3125 
Q 550 3425 450 3650 
Q 625 3725 987 4187 
Q 1350 4650 1575 5175 
Q 1700 5075 1850 5025 
Q 2000 4975 2175 4900 
Q 1975 4750 1762 4450 
Q 1550 4150 1075 3600 
Q 2125 3650 2625 3675 
Q 2325 4075 2200 4200 
Q 2375 4300 2600 4475 
Q 2800 4200 2987 3975 
Q 3175 3750 3475 3400 
Q 3200 3200 3025 3075 
z
M 2575 950 
L 2575 1475 
L 1225 1475 
L 1225 950 
L 2575 950 
z
M 2575 1875 
L 2575 2350 
L 1225 2350 
L 1225 1875 
L 2575 1875 
z
" transform="scale(0.015625)"/>
       <path id="SimHei-529b" d="M 3275 3275 
Q 3200 2400 3050 1875 
Q 2900 1350 2637 912 
Q 2375 475 1950 87 
Q 1525 -300 925 -675 
Q 800 -475 425 -250 
Q 1025 50 1425 375 
Q 1825 700 2112 1112 
Q 2400 1525 2537 2050 
Q 2675 2575 2725 3275 
L 2000 3275 
Q 1275 3275 675 3250 
L 675 3750 
Q 1275 3725 2000 3725 
L 2750 3725 
L 2750 4475 
Q 2750 4825 2725 5200 
Q 3000 5150 3350 5125 
Q 3300 4900 3287 4475 
Q 3275 4050 3275 3725 
L 5825 3725 
Q 5725 2375 5700 1862 
Q 5675 1350 5600 612 
Q 5525 -125 5187 -300 
Q 4850 -475 4025 -550 
Q 4000 -250 3775 100 
Q 4500 75 4750 175 
Q 5000 275 5037 550 
Q 5075 825 5112 1262 
Q 5150 1700 5225 3275 
L 3275 3275 
z
" transform="scale(0.015625)"/>
      </defs>
      <use xlink:href="#SimHei-8bc6"/>
      <use xlink:href="#SimHei-522b" x="100"/>
      <use xlink:href="#SimHei-80fd" x="200"/>
      <use xlink:href="#SimHei-529b" x="300"/>
     </g>
    </g>
   </g>
   <g id="line2d_25">
    <path d="M 92.290909 369.36 
L 92.290909 308.88 
L 92.290909 157.68 
L 92.290909 97.2 
L 92.290909 66.96 
L 102.436364 66.96 
L 132.872727 66.96 
L 153.163636 66.96 
L 498.109091 66.96 
" clip-path="url(#pc0d565f0b0)" style="fill: none; stroke: #1f77b4; stroke-width: 1.5; stroke-linecap: square"/>
   </g>
   <g id="line2d_26">
    <path d="M 92.290909 369.36 
L 102.436364 218.16 
L 102.436364 127.44 
L 102.436364 66.96 
L 122.727273 66.96 
L 173.454545 66.96 
L 244.472727 66.96 
L 498.109091 66.96 
" clip-path="url(#pc0d565f0b0)" style="fill: none; stroke: #ff7f0e; stroke-width: 1.5; stroke-linecap: square"/>
   </g>
   <g id="line2d_27">
    <path d="M 92.290909 369.36 
L 92.290909 308.88 
L 92.290909 278.64 
L 92.290909 187.92 
L 112.581818 157.68 
L 132.872727 97.2 
L 132.872727 66.96 
L 173.454545 66.96 
L 498.109091 66.96 
" clip-path="url(#pc0d565f0b0)" style="fill: none; stroke: #2ca02c; stroke-width: 1.5; stroke-linecap: square"/>
   </g>
   <g id="line2d_28">
    <path d="M 92.290909 369.36 
L 102.436364 248.4 
L 112.581818 248.4 
L 122.727273 187.92 
L 132.872727 187.92 
L 143.018182 127.44 
L 163.309091 127.44 
L 214.036364 97.2 
L 498.109091 66.96 
" clip-path="url(#pc0d565f0b0)" style="fill: none; stroke: #d62728; stroke-width: 1.5; stroke-linecap: square"/>
   </g>
   <g id="line2d_29">
    <path d="M 92.290909 369.36 
L 92.290909 339.12 
L 92.290909 278.64 
L 92.290909 248.4 
L 102.436364 248.4 
L 112.581818 157.68 
L 132.872727 97.2 
L 173.454545 66.96 
L 234.327273 66.96 
L 274.909091 66.96 
L 498.109091 66.96 
" clip-path="url(#pc0d565f0b0)" style="fill: none; stroke: #9467bd; stroke-width: 1.5; stroke-linecap: square"/>
   </g>
   <g id="line2d_30">
    <path d="M 92.290909 369.36 
L 498.109091 66.96 
" clip-path="url(#pc0d565f0b0)" style="fill: none; stroke-dasharray: 5.55,2.4; stroke-dashoffset: 0; stroke: #000000; stroke-width: 1.5"/>
   </g>
   <g id="patch_3">
    <path d="M 72 384.48 
L 72 51.84 
" style="fill: none; stroke: #000000; stroke-width: 0.8; stroke-linejoin: miter; stroke-linecap: square"/>
   </g>
   <g id="patch_4">
    <path d="M 518.4 384.48 
L 518.4 51.84 
" style="fill: none; stroke: #000000; stroke-width: 0.8; stroke-linejoin: miter; stroke-linecap: square"/>
   </g>
   <g id="patch_5">
    <path d="M 72 384.48 
L 518.4 384.48 
" style="fill: none; stroke: #000000; stroke-width: 0.8; stroke-linejoin: miter; stroke-linecap: square"/>
   </g>
   <g id="patch_6">
    <path d="M 72 51.84 
L 518.4 51.84 
" style="fill: none; stroke: #000000; stroke-width: 0.8; stroke-linejoin: miter; stroke-linecap: square"/>
   </g>
   <g id="text_15">
    <!-- KNN算法的ROC曲线 -->
    <g transform="translate(247.2 45.84) scale(0.12 -0.12)">
     <defs>
      <path id="SimHei-4b" d="M 3050 125 
L 2400 125 
L 1250 2250 
L 850 1725 
L 850 125 
L 275 125 
L 275 4400 
L 850 4400 
L 850 2550 
L 2275 4400 
L 2950 4400 
L 1625 2725 
L 3050 125 
z
" transform="scale(0.015625)"/>
      <path id="SimHei-4e" d="M 2850 125 
L 2225 125 
L 850 3225 
L 825 3225 
L 825 125 
L 250 125 
L 250 4400 
L 875 4400 
L 2250 1300 
L 2275 1300 
L 2275 4400 
L 2850 4400 
L 2850 125 
z
" transform="scale(0.015625)"/>
      <path id="SimHei-7b97" d="M 5175 3650 
Q 5150 3200 5150 2500 
Q 5150 1800 5175 1325 
L 4575 1325 
L 4575 875 
L 5250 875 
Q 5650 875 6150 900 
L 6150 475 
Q 5650 500 5250 500 
L 4575 500 
Q 4575 -75 4600 -625 
L 4050 -625 
Q 4075 -75 4075 500 
L 2650 500 
Q 2475 100 2125 -175 
Q 1775 -450 1075 -675 
Q 925 -425 700 -250 
Q 1250 -150 1600 37 
Q 1950 225 2125 500 
L 1225 500 
Q 800 500 300 475 
L 300 900 
Q 825 875 1225 875 
L 2200 875 
Q 2250 1075 2250 1325 
L 1250 1325 
Q 1275 1775 1275 2475 
Q 1275 3200 1250 3650 
L 5175 3650 
z
M 1825 5100 
Q 1625 4900 1475 4725 
L 2425 4725 
Q 2750 4725 3175 4750 
L 3175 4325 
Q 2750 4350 2200 4350 
Q 2250 4175 2350 3875 
Q 2075 3850 1825 3750 
Q 1750 4075 1675 4350 
L 1200 4350 
Q 1075 4125 775 3775 
Q 525 3925 250 4000 
Q 500 4225 762 4537 
Q 1025 4850 1275 5300 
Q 1500 5175 1825 5100 
z
M 4525 5100 
Q 4325 4950 4175 4725 
L 5225 4725 
Q 5500 4725 5950 4750 
L 5950 4325 
Q 5550 4350 4975 4350 
L 5175 3950 
Q 4925 3925 4650 3825 
Q 4575 4100 4500 4350 
L 3900 4350 
Q 3700 4025 3525 3775 
Q 3250 3950 3025 4000 
Q 3325 4300 3550 4612 
Q 3775 4925 3900 5275 
Q 4175 5175 4525 5100 
z
M 4650 1675 
L 4650 2000 
L 1775 2000 
L 1775 1675 
L 4650 1675 
z
M 4650 2350 
L 4650 2650 
L 1775 2650 
L 1775 2350 
L 4650 2350 
z
M 4650 3000 
L 4650 3300 
L 1775 3300 
L 1775 3000 
L 4650 3000 
z
M 4075 875 
L 4075 1325 
L 2725 1325 
Q 2725 1075 2700 875 
L 4075 875 
z
" transform="scale(0.015625)"/>
      <path id="SimHei-6cd5" d="M 6075 -300 
Q 5850 -425 5625 -625 
Q 5450 -300 5325 -125 
Q 4525 -175 3587 -262 
Q 2650 -350 2325 -450 
Q 2250 -150 2125 75 
Q 2450 175 2825 725 
Q 3200 1275 3500 2100 
L 2800 2100 
Q 2350 2100 1950 2075 
L 1950 2525 
Q 2350 2500 2825 2500 
L 3725 2500 
L 3725 3600 
L 3150 3600 
Q 2675 3600 2325 3575 
L 2325 4025 
Q 2725 4000 3125 4000 
L 3725 4000 
Q 3725 4700 3700 5150 
L 4250 5150 
Q 4225 4775 4225 4000 
L 4975 4000 
Q 5350 4000 5750 4025 
L 5750 3575 
Q 5350 3600 5025 3600 
L 4225 3600 
L 4225 2500 
L 5125 2500 
Q 5575 2500 6025 2525 
L 6025 2075 
Q 5575 2100 5125 2100 
L 3850 2100 
L 4100 1950 
Q 3950 1775 3625 1200 
Q 3300 625 2900 100 
Q 4000 150 5075 225 
Q 4775 675 4450 1025 
Q 4650 1175 4825 1350 
Q 5275 800 6075 -300 
z
M 300 -250 
Q 650 100 1012 625 
Q 1375 1150 1725 1725 
Q 1850 1500 2075 1375 
Q 1850 1075 1500 487 
Q 1150 -100 850 -625 
Q 650 -425 300 -250 
z
M 675 3425 
Q 1200 3100 1800 2650 
Q 1575 2500 1400 2250 
Q 925 2675 350 3050 
Q 525 3200 675 3425 
z
M 1050 4900 
Q 1550 4575 2100 4125 
Q 1900 3975 1725 3725 
Q 1250 4175 725 4525 
Q 900 4700 1050 4900 
z
" transform="scale(0.015625)"/>
      <path id="SimHei-7684" d="M 2100 4975 
Q 1975 4750 1750 3950 
L 2875 3950 
Q 2850 3525 2850 2875 
L 2850 675 
Q 2850 300 2875 -400 
L 2375 -400 
L 2375 100 
L 1100 100 
L 1100 -450 
L 600 -450 
Q 625 350 625 550 
L 625 2850 
Q 625 3525 600 3950 
L 1325 3950 
Q 1450 4525 1525 5150 
Q 1875 5025 2100 4975 
z
M 5825 3075 
Q 5800 1550 5700 175 
Q 5650 -275 5225 -425 
Q 4800 -575 4275 -625 
Q 4250 -350 4050 -50 
Q 4550 -75 4837 -25 
Q 5125 25 5200 200 
Q 5275 375 5312 1225 
Q 5350 2075 5375 3600 
L 3925 3600 
Q 3725 3125 3350 2475 
Q 3175 2650 2925 2750 
Q 3150 3050 3350 3475 
Q 3550 3900 3700 4400 
Q 3850 4900 3875 5175 
Q 4225 5025 4475 4950 
Q 4350 4750 4262 4512 
Q 4175 4275 4075 4050 
L 5850 4050 
Q 5825 3525 5825 3075 
z
M 2375 525 
L 2375 1850 
L 1100 1850 
L 1100 525 
L 2375 525 
z
M 2375 2275 
L 2375 3525 
L 1100 3525 
L 1100 2275 
L 2375 2275 
z
M 4350 2050 
Q 4500 1750 4700 1275 
Q 4525 1200 4225 1025 
Q 4050 1500 3900 1837 
Q 3750 2175 3600 2400 
Q 3775 2500 4050 2650 
L 4350 2050 
z
" transform="scale(0.015625)"/>
      <path id="SimHei-52" d="M 3000 125 
L 2400 125 
L 1500 1975 
L 850 1975 
L 850 125 
L 275 125 
L 275 4400 
L 1525 4400 
Q 2125 4400 2500 4112 
Q 2875 3825 2875 3175 
Q 2875 2675 2625 2400 
Q 2375 2125 2050 2050 
L 3000 125 
z
M 2300 3175 
Q 2300 3525 2087 3725 
Q 1875 3925 1400 3925 
L 850 3925 
L 850 2450 
L 1550 2450 
Q 1850 2450 2075 2612 
Q 2300 2775 2300 3175 
z
" transform="scale(0.015625)"/>
      <path id="SimHei-4f" d="M 2950 2275 
Q 2950 1100 2587 587 
Q 2225 75 1575 75 
Q 925 75 550 587 
Q 175 1100 175 2275 
Q 175 3450 550 3950 
Q 925 4450 1575 4450 
Q 2225 4450 2587 3950 
Q 2950 3450 2950 2275 
z
M 2350 2275 
Q 2350 3325 2125 3650 
Q 1900 3975 1575 3975 
Q 1250 3975 1012 3650 
Q 775 3325 775 2275 
Q 775 1225 1012 887 
Q 1250 550 1575 550 
Q 1900 550 2125 887 
Q 2350 1225 2350 2275 
z
" transform="scale(0.015625)"/>
      <path id="SimHei-43" d="M 2975 1825 
Q 2950 875 2575 475 
Q 2200 75 1675 75 
Q 1075 75 650 562 
Q 225 1050 225 2125 
Q 225 3300 637 3875 
Q 1050 4450 1700 4450 
Q 2250 4450 2612 4037 
Q 2975 3625 2950 2875 
L 2400 2875 
Q 2400 3425 2225 3700 
Q 2050 3975 1700 3975 
Q 1300 3975 1062 3562 
Q 825 3150 825 2175 
Q 825 1275 1062 912 
Q 1300 550 1675 550 
Q 1950 550 2175 812 
Q 2400 1075 2400 1825 
L 2975 1825 
z
" transform="scale(0.015625)"/>
      <path id="SimHei-66f2" d="M 5825 500 
Q 5825 -200 5850 -550 
L 5275 -550 
L 5275 -50 
L 1150 -50 
L 1150 -550 
L 575 -550 
Q 600 125 600 550 
L 600 2775 
Q 600 3425 575 3900 
L 2150 3900 
L 2150 4450 
Q 2125 4850 2125 5150 
L 2700 5150 
Q 2650 4825 2650 4475 
L 2650 3900 
L 3700 3900 
L 3700 4525 
Q 3700 4850 3675 5175 
L 4250 5175 
Q 4225 4875 4225 4550 
L 4225 3900 
L 5850 3900 
Q 5825 3525 5825 2750 
L 5825 500 
z
M 3700 325 
L 3700 1875 
L 2650 1875 
L 2650 325 
L 3700 325 
z
M 5275 325 
L 5275 1875 
L 4225 1875 
L 4225 325 
L 5275 325 
z
M 2150 325 
L 2150 1875 
L 1150 1875 
L 1150 325 
L 2150 325 
z
M 3700 2250 
L 3700 3525 
L 2650 3525 
L 2650 2250 
L 3700 2250 
z
M 5275 2250 
L 5275 3525 
L 4225 3525 
L 4225 2250 
L 5275 2250 
z
M 2150 2250 
L 2150 3525 
L 1150 3525 
L 1150 2250 
L 2150 2250 
z
" transform="scale(0.015625)"/>
      <path id="SimHei-7ebf" d="M 3450 4300 
Q 3450 4675 3375 5125 
Q 3700 5100 4050 5050 
Q 3975 4900 3950 4562 
Q 3925 4225 3950 3600 
L 4800 3750 
Q 5225 3850 5650 3975 
L 5750 3500 
Q 5325 3450 4875 3375 
L 3975 3200 
Q 3975 2800 4025 2500 
L 5000 2675 
Q 5500 2775 5950 2925 
L 6025 2450 
Q 5575 2375 5075 2275 
L 4100 2100 
Q 4150 1600 4350 1175 
Q 4575 1350 4787 1575 
Q 5000 1800 5175 2075 
Q 5550 1775 5750 1675 
Q 5425 1525 5237 1337 
Q 5050 1150 4625 750 
Q 4925 250 5162 112 
Q 5400 -25 5500 100 
Q 5600 225 5675 625 
Q 5900 450 6200 350 
Q 5775 -750 5275 -537 
Q 4775 -325 4225 450 
Q 3875 175 3537 -62 
Q 3200 -300 2700 -550 
Q 2575 -300 2325 -100 
Q 2825 75 3175 275 
Q 3525 475 3975 850 
Q 3750 1350 3650 2025 
Q 2900 1900 2600 1800 
L 2525 2275 
Q 2825 2275 3550 2425 
Q 3500 2825 3500 3100 
Q 2825 2950 2575 2875 
L 2475 3350 
Q 2725 3350 3450 3500 
L 3450 4300 
z
M 1950 4875 
Q 1700 4650 1462 4237 
Q 1225 3825 825 3225 
Q 1425 3250 1650 3250 
Q 1875 3625 2050 4075 
Q 2300 3900 2600 3800 
Q 2350 3550 2087 3125 
Q 1825 2700 1175 1675 
Q 1850 1725 2375 1775 
Q 2300 1525 2300 1350 
Q 2125 1350 1525 1287 
Q 925 1225 550 1125 
Q 525 1375 400 1650 
Q 700 1725 950 2050 
Q 1200 2375 1475 2875 
Q 650 2825 425 2675 
Q 350 2950 200 3225 
Q 525 3450 825 3962 
Q 1125 4475 1375 5150 
Q 1625 4975 1950 4875 
z
M 2575 875 
Q 2550 600 2575 450 
Q 1950 325 1450 200 
Q 950 75 525 -75 
Q 450 200 250 475 
Q 950 550 1325 612 
Q 1700 675 2575 875 
z
M 4850 4025 
Q 4675 4300 4375 4675 
L 4775 4875 
Q 4875 4750 5275 4275 
Q 5025 4175 4850 4025 
z
" transform="scale(0.015625)"/>
     </defs>
     <use xlink:href="#SimHei-4b"/>
     <use xlink:href="#SimHei-4e" x="50"/>
     <use xlink:href="#SimHei-4e" x="100"/>
     <use xlink:href="#SimHei-7b97" x="150"/>
     <use xlink:href="#SimHei-6cd5" x="250"/>
     <use xlink:href="#SimHei-7684" x="350"/>
     <use xlink:href="#SimHei-52" x="450"/>
     <use xlink:href="#SimHei-4f" x="500"/>
     <use xlink:href="#SimHei-43" x="550"/>
     <use xlink:href="#SimHei-66f2" x="600"/>
     <use xlink:href="#SimHei-7ebf" x="700"/>
    </g>
   </g>
   <g id="legend_1">
    <g id="patch_7">
     <path d="M 374.4 379.48 
L 511.4 379.48 
Q 513.4 379.48 513.4 377.48 
L 513.4 297.456563 
Q 513.4 295.456563 511.4 295.456563 
L 374.4 295.456563 
Q 372.4 295.456563 372.4 297.456563 
L 372.4 377.48 
Q 372.4 379.48 374.4 379.48 
z
" style="fill: #ffffff; opacity: 0.8; stroke: #cccccc; stroke-linejoin: miter"/>
    </g>
    <g id="line2d_31">
     <path d="M 376.4 303.26125 
L 386.4 303.26125 
L 396.4 303.26125 
" style="fill: none; stroke: #1f77b4; stroke-width: 1.5; stroke-linecap: square"/>
    </g>
    <g id="text_16">
     <!-- Class 1 (AUC = 1.000) -->
     <g transform="translate(404.4 306.76125) scale(0.1 -0.1)">
      <defs>
       <path id="SimHei-6c" d="M 1825 125 
L 1325 125 
L 1325 4400 
L 1825 4400 
L 1825 125 
z
" transform="scale(0.015625)"/>
       <path id="SimHei-61" d="M 2875 125 
L 2275 125 
Q 2225 175 2200 262 
Q 2175 350 2175 475 
Q 2000 275 1750 175 
Q 1500 75 1225 75 
Q 825 75 550 275 
Q 275 475 275 850 
Q 275 1225 525 1450 
Q 775 1675 1300 1750 
Q 1650 1800 1912 1875 
Q 2175 1950 2175 2075 
Q 2175 2225 2062 2375 
Q 1950 2525 1575 2525 
Q 1275 2525 1137 2412 
Q 1000 2300 950 2100 
L 400 2100 
Q 450 2500 762 2737 
Q 1075 2975 1575 2975 
Q 2125 2975 2400 2725 
Q 2675 2475 2675 2025 
L 2675 650 
Q 2675 500 2725 375 
Q 2775 250 2875 125 
z
M 2175 1050 
L 2175 1550 
Q 2025 1500 1887 1462 
Q 1750 1425 1425 1375 
Q 1050 1325 937 1200 
Q 825 1075 825 900 
Q 825 750 937 637 
Q 1050 525 1275 525 
Q 1500 525 1762 650 
Q 2025 775 2175 1050 
z
" transform="scale(0.015625)"/>
       <path id="SimHei-73" d="M 2750 900 
Q 2750 500 2437 287 
Q 2125 75 1650 75 
Q 1050 75 725 312 
Q 400 550 400 1000 
L 900 1000 
Q 900 700 1112 600 
Q 1325 500 1625 500 
Q 1925 500 2075 612 
Q 2225 725 2225 900 
Q 2225 1025 2100 1150 
Q 1975 1275 1475 1350 
Q 900 1425 687 1637 
Q 475 1850 475 2200 
Q 475 2500 762 2737 
Q 1050 2975 1600 2975 
Q 2100 2975 2387 2750 
Q 2675 2525 2675 2150 
L 2175 2150 
Q 2175 2375 2012 2462 
Q 1850 2550 1600 2550 
Q 1275 2550 1137 2437 
Q 1000 2325 1000 2175 
Q 1000 2000 1125 1900 
Q 1250 1800 1650 1750 
Q 2300 1650 2525 1437 
Q 2750 1225 2750 900 
z
" transform="scale(0.015625)"/>
       <path id="SimHei-20" transform="scale(0.015625)"/>
       <path id="SimHei-28" d="M 2975 -200 
L 2700 -475 
Q 2075 125 1762 775 
Q 1450 1425 1450 2250 
Q 1450 3075 1762 3725 
Q 2075 4375 2700 5000 
L 2975 4725 
Q 2400 4175 2112 3587 
Q 1825 3000 1825 2250 
Q 1825 1500 2112 912 
Q 2400 325 2975 -200 
z
" transform="scale(0.015625)"/>
       <path id="SimHei-41" d="M 3075 125 
L 2475 125 
L 2125 1450 
L 1025 1450 
L 675 125 
L 75 125 
L 1325 4450 
L 1825 4450 
L 3075 125 
z
M 2000 1925 
L 1600 3450 
L 1550 3450 
L 1150 1925 
L 2000 1925 
z
" transform="scale(0.015625)"/>
       <path id="SimHei-55" d="M 2875 1375 
Q 2875 775 2562 425 
Q 2250 75 1575 75 
Q 900 75 587 425 
Q 275 775 275 1375 
L 275 4400 
L 850 4400 
L 850 1375 
Q 850 950 1050 750 
Q 1250 550 1575 550 
Q 1900 550 2100 750 
Q 2300 950 2300 1375 
L 2300 4400 
L 2875 4400 
L 2875 1375 
z
" transform="scale(0.015625)"/>
       <path id="SimHei-3d" d="M 2975 2900 
L 125 2900 
L 125 3300 
L 2975 3300 
L 2975 2900 
z
M 2975 1375 
L 125 1375 
L 125 1775 
L 2975 1775 
L 2975 1375 
z
" transform="scale(0.015625)"/>
       <path id="SimHei-29" d="M 1675 2250 
Q 1675 1425 1362 775 
Q 1050 125 425 -475 
L 150 -200 
Q 725 325 1012 912 
Q 1300 1500 1300 2250 
Q 1300 3000 1012 3587 
Q 725 4175 150 4725 
L 425 5000 
Q 1050 4375 1362 3725 
Q 1675 3075 1675 2250 
z
" transform="scale(0.015625)"/>
      </defs>
      <use xlink:href="#SimHei-43"/>
      <use xlink:href="#SimHei-6c" x="50"/>
      <use xlink:href="#SimHei-61" x="100"/>
      <use xlink:href="#SimHei-73" x="150"/>
      <use xlink:href="#SimHei-73" x="200"/>
      <use xlink:href="#SimHei-20" x="250"/>
      <use xlink:href="#SimHei-31" x="300"/>
      <use xlink:href="#SimHei-20" x="350"/>
      <use xlink:href="#SimHei-28" x="400"/>
      <use xlink:href="#SimHei-41" x="450"/>
      <use xlink:href="#SimHei-55" x="500"/>
      <use xlink:href="#SimHei-43" x="550"/>
      <use xlink:href="#SimHei-20" x="600"/>
      <use xlink:href="#SimHei-3d" x="650"/>
      <use xlink:href="#SimHei-20" x="700"/>
      <use xlink:href="#SimHei-31" x="750"/>
      <use xlink:href="#SimHei-2e" x="800"/>
      <use xlink:href="#SimHei-30" x="850"/>
      <use xlink:href="#SimHei-30" x="900"/>
      <use xlink:href="#SimHei-30" x="950"/>
      <use xlink:href="#SimHei-29" x="1000"/>
     </g>
    </g>
    <g id="line2d_32">
     <path d="M 376.4 316.815938 
L 386.4 316.815938 
L 396.4 316.815938 
" style="fill: none; stroke: #ff7f0e; stroke-width: 1.5; stroke-linecap: square"/>
    </g>
    <g id="text_17">
     <!-- Class 2 (AUC = 0.981) -->
     <g transform="translate(404.4 320.315938) scale(0.1 -0.1)">
      <defs>
       <path id="SimHei-39" d="M 800 75 
Q 1350 1000 1700 1750 
Q 1075 1650 662 1912 
Q 250 2175 162 2625 
Q 75 3075 175 3437 
Q 275 3800 487 4037 
Q 700 4275 1000 4375 
Q 1300 4475 1537 4475 
Q 1775 4475 2025 4375 
Q 2275 4275 2475 4075 
Q 2675 3875 2750 3662 
Q 2825 3450 2825 3112 
Q 2825 2775 2575 2250 
Q 2325 1725 1350 75 
L 800 75 
z
M 662 2875 
Q 700 2550 937 2337 
Q 1175 2125 1450 2150 
Q 1725 2175 1887 2300 
Q 2050 2425 2200 2725 
Q 2300 3100 2250 3362 
Q 2200 3625 1987 3800 
Q 1775 3975 1525 3975 
Q 1375 4000 1137 3900 
Q 900 3800 762 3500 
Q 625 3200 662 2875 
z
" transform="scale(0.015625)"/>
      </defs>
      <use xlink:href="#SimHei-43"/>
      <use xlink:href="#SimHei-6c" x="50"/>
      <use xlink:href="#SimHei-61" x="100"/>
      <use xlink:href="#SimHei-73" x="150"/>
      <use xlink:href="#SimHei-73" x="200"/>
      <use xlink:href="#SimHei-20" x="250"/>
      <use xlink:href="#SimHei-32" x="300"/>
      <use xlink:href="#SimHei-20" x="350"/>
      <use xlink:href="#SimHei-28" x="400"/>
      <use xlink:href="#SimHei-41" x="450"/>
      <use xlink:href="#SimHei-55" x="500"/>
      <use xlink:href="#SimHei-43" x="550"/>
      <use xlink:href="#SimHei-20" x="600"/>
      <use xlink:href="#SimHei-3d" x="650"/>
      <use xlink:href="#SimHei-20" x="700"/>
      <use xlink:href="#SimHei-30" x="750"/>
      <use xlink:href="#SimHei-2e" x="800"/>
      <use xlink:href="#SimHei-39" x="850"/>
      <use xlink:href="#SimHei-38" x="900"/>
      <use xlink:href="#SimHei-31" x="950"/>
      <use xlink:href="#SimHei-29" x="1000"/>
     </g>
    </g>
    <g id="line2d_33">
     <path d="M 376.4 330.370625 
L 386.4 330.370625 
L 396.4 330.370625 
" style="fill: none; stroke: #2ca02c; stroke-width: 1.5; stroke-linecap: square"/>
    </g>
    <g id="text_18">
     <!-- Class 3 (AUC = 0.973) -->
     <g transform="translate(404.4 333.870625) scale(0.1 -0.1)">
      <defs>
       <path id="SimHei-33" d="M 250 1225 
L 700 1300 
Q 800 975 1025 762 
Q 1250 550 1587 562 
Q 1925 575 2125 837 
Q 2325 1100 2300 1437 
Q 2275 1775 2037 1962 
Q 1800 2150 1275 2225 
L 1275 2550 
Q 1800 2600 2037 2825 
Q 2275 3050 2250 3412 
Q 2225 3775 1925 3937 
Q 1625 4100 1287 3975 
Q 950 3850 750 3275 
L 300 3350 
Q 450 3800 712 4100 
Q 975 4400 1425 4450 
Q 1875 4500 2212 4337 
Q 2550 4175 2687 3837 
Q 2825 3500 2725 3100 
Q 2625 2700 2150 2400 
Q 2500 2250 2687 1950 
Q 2875 1650 2812 1162 
Q 2750 675 2375 375 
Q 2000 75 1525 87 
Q 1050 100 700 387 
Q 350 675 250 1225 
z
" transform="scale(0.015625)"/>
       <path id="SimHei-37" d="M 850 150 
Q 1300 2050 2425 3925 
L 275 3925 
L 275 4375 
L 2950 4375 
L 2950 3950 
Q 1775 2050 1400 150 
L 850 150 
z
" transform="scale(0.015625)"/>
      </defs>
      <use xlink:href="#SimHei-43"/>
      <use xlink:href="#SimHei-6c" x="50"/>
      <use xlink:href="#SimHei-61" x="100"/>
      <use xlink:href="#SimHei-73" x="150"/>
      <use xlink:href="#SimHei-73" x="200"/>
      <use xlink:href="#SimHei-20" x="250"/>
      <use xlink:href="#SimHei-33" x="300"/>
      <use xlink:href="#SimHei-20" x="350"/>
      <use xlink:href="#SimHei-28" x="400"/>
      <use xlink:href="#SimHei-41" x="450"/>
      <use xlink:href="#SimHei-55" x="500"/>
      <use xlink:href="#SimHei-43" x="550"/>
      <use xlink:href="#SimHei-20" x="600"/>
      <use xlink:href="#SimHei-3d" x="650"/>
      <use xlink:href="#SimHei-20" x="700"/>
      <use xlink:href="#SimHei-30" x="750"/>
      <use xlink:href="#SimHei-2e" x="800"/>
      <use xlink:href="#SimHei-39" x="850"/>
      <use xlink:href="#SimHei-37" x="900"/>
      <use xlink:href="#SimHei-33" x="950"/>
      <use xlink:href="#SimHei-29" x="1000"/>
     </g>
    </g>
    <g id="line2d_34">
     <path d="M 376.4 343.925313 
L 386.4 343.925313 
L 396.4 343.925313 
" style="fill: none; stroke: #d62728; stroke-width: 1.5; stroke-linecap: square"/>
    </g>
    <g id="text_19">
     <!-- Class 4 (AUC = 0.871) -->
     <g transform="translate(404.4 347.425313) scale(0.1 -0.1)">
      <use xlink:href="#SimHei-43"/>
      <use xlink:href="#SimHei-6c" x="50"/>
      <use xlink:href="#SimHei-61" x="100"/>
      <use xlink:href="#SimHei-73" x="150"/>
      <use xlink:href="#SimHei-73" x="200"/>
      <use xlink:href="#SimHei-20" x="250"/>
      <use xlink:href="#SimHei-34" x="300"/>
      <use xlink:href="#SimHei-20" x="350"/>
      <use xlink:href="#SimHei-28" x="400"/>
      <use xlink:href="#SimHei-41" x="450"/>
      <use xlink:href="#SimHei-55" x="500"/>
      <use xlink:href="#SimHei-43" x="550"/>
      <use xlink:href="#SimHei-20" x="600"/>
      <use xlink:href="#SimHei-3d" x="650"/>
      <use xlink:href="#SimHei-20" x="700"/>
      <use xlink:href="#SimHei-30" x="750"/>
      <use xlink:href="#SimHei-2e" x="800"/>
      <use xlink:href="#SimHei-38" x="850"/>
      <use xlink:href="#SimHei-37" x="900"/>
      <use xlink:href="#SimHei-31" x="950"/>
      <use xlink:href="#SimHei-29" x="1000"/>
     </g>
    </g>
    <g id="line2d_35">
     <path d="M 376.4 357.48 
L 386.4 357.48 
L 396.4 357.48 
" style="fill: none; stroke: #9467bd; stroke-width: 1.5; stroke-linecap: square"/>
    </g>
    <g id="text_20">
     <!-- Class 5 (AUC = 0.959) -->
     <g transform="translate(404.4 360.98) scale(0.1 -0.1)">
      <defs>
       <path id="SimHei-35" d="M 550 1325 
Q 725 650 1150 575 
Q 1575 500 1837 662 
Q 2100 825 2212 1087 
Q 2325 1350 2312 1675 
Q 2300 2000 2137 2225 
Q 1975 2450 1725 2525 
Q 1475 2600 1162 2525 
Q 850 2450 650 2175 
L 225 2225 
Q 275 2375 700 4375 
L 2675 4375 
L 2675 3925 
L 1075 3925 
Q 950 3250 825 2850 
Q 1200 3025 1525 3012 
Q 1850 3000 2150 2862 
Q 2450 2725 2587 2487 
Q 2725 2250 2787 2012 
Q 2850 1775 2837 1500 
Q 2825 1225 2725 937 
Q 2625 650 2425 462 
Q 2225 275 1937 162 
Q 1650 50 1275 75 
Q 900 100 562 350 
Q 225 600 100 1200 
L 550 1325 
z
" transform="scale(0.015625)"/>
      </defs>
      <use xlink:href="#SimHei-43"/>
      <use xlink:href="#SimHei-6c" x="50"/>
      <use xlink:href="#SimHei-61" x="100"/>
      <use xlink:href="#SimHei-73" x="150"/>
      <use xlink:href="#SimHei-73" x="200"/>
      <use xlink:href="#SimHei-20" x="250"/>
      <use xlink:href="#SimHei-35" x="300"/>
      <use xlink:href="#SimHei-20" x="350"/>
      <use xlink:href="#SimHei-28" x="400"/>
      <use xlink:href="#SimHei-41" x="450"/>
      <use xlink:href="#SimHei-55" x="500"/>
      <use xlink:href="#SimHei-43" x="550"/>
      <use xlink:href="#SimHei-20" x="600"/>
      <use xlink:href="#SimHei-3d" x="650"/>
      <use xlink:href="#SimHei-20" x="700"/>
      <use xlink:href="#SimHei-30" x="750"/>
      <use xlink:href="#SimHei-2e" x="800"/>
      <use xlink:href="#SimHei-39" x="850"/>
      <use xlink:href="#SimHei-35" x="900"/>
      <use xlink:href="#SimHei-39" x="950"/>
      <use xlink:href="#SimHei-29" x="1000"/>
     </g>
    </g>
    <g id="line2d_36">
     <path d="M 376.4 370.73 
L 386.4 370.73 
L 396.4 370.73 
" style="fill: none; stroke-dasharray: 5.55,2.4; stroke-dashoffset: 0; stroke: #000000; stroke-width: 1.5"/>
    </g>
    <g id="text_21">
     <!-- Random Classifier -->
     <g transform="translate(404.4 374.23) scale(0.1 -0.1)">
      <defs>
       <path id="SimHei-6e" d="M 2800 125 
L 2300 125 
L 2300 1925 
Q 2300 2225 2150 2400 
Q 2000 2575 1750 2575 
Q 1425 2575 1137 2237 
Q 850 1900 850 1400 
L 850 125 
L 350 125 
L 350 2925 
L 850 2925 
L 850 2400 
Q 1050 2675 1287 2825 
Q 1525 2975 1900 2975 
Q 2350 2975 2575 2725 
Q 2800 2475 2800 2100 
L 2800 125 
z
" transform="scale(0.015625)"/>
       <path id="SimHei-64" d="M 2750 125 
L 2250 125 
L 2250 500 
Q 2100 275 1900 175 
Q 1700 75 1425 75 
Q 925 75 575 437 
Q 225 800 225 1525 
Q 225 2250 575 2625 
Q 925 3000 1425 3000 
Q 1700 3000 1900 2887 
Q 2100 2775 2250 2550 
L 2250 4400 
L 2750 4400 
L 2750 125 
z
M 2250 1525 
Q 2250 2000 2037 2275 
Q 1825 2550 1525 2550 
Q 1150 2550 962 2275 
Q 775 2000 775 1525 
Q 775 1050 962 787 
Q 1150 525 1525 525 
Q 1825 525 2037 787 
Q 2250 1050 2250 1525 
z
" transform="scale(0.015625)"/>
       <path id="SimHei-6f" d="M 2925 1525 
Q 2925 875 2525 475 
Q 2125 75 1575 75 
Q 1025 75 625 475 
Q 225 875 225 1525 
Q 225 2175 625 2575 
Q 1025 2975 1575 2975 
Q 2125 2975 2525 2575 
Q 2925 2175 2925 1525 
z
M 2375 1525 
Q 2375 2025 2125 2275 
Q 1875 2525 1575 2525 
Q 1275 2525 1025 2275 
Q 775 2025 775 1525 
Q 775 1025 1025 775 
Q 1275 525 1575 525 
Q 1875 525 2125 775 
Q 2375 1025 2375 1525 
z
" transform="scale(0.015625)"/>
       <path id="SimHei-6d" d="M 3050 125 
L 2550 125 
L 2550 2150 
Q 2550 2300 2500 2400 
Q 2450 2500 2300 2500 
Q 2125 2500 1975 2312 
Q 1825 2125 1825 1825 
L 1825 125 
L 1325 125 
L 1325 2150 
Q 1325 2300 1275 2400 
Q 1225 2500 1075 2500 
Q 900 2500 750 2312 
Q 600 2125 600 1825 
L 600 125 
L 100 125 
L 100 2925 
L 600 2925 
L 600 2550 
Q 725 2750 900 2862 
Q 1075 2975 1275 2975 
Q 1475 2975 1612 2862 
Q 1750 2750 1800 2550 
Q 1925 2750 2087 2862 
Q 2250 2975 2450 2975 
Q 2750 2975 2900 2812 
Q 3050 2650 3050 2350 
L 3050 125 
z
" transform="scale(0.015625)"/>
       <path id="SimHei-69" d="M 1800 3725 
L 1300 3725 
L 1300 4375 
L 1800 4375 
L 1800 3725 
z
M 1800 125 
L 1300 125 
L 1300 2925 
L 1800 2925 
L 1800 125 
z
" transform="scale(0.015625)"/>
       <path id="SimHei-66" d="M 2850 3825 
Q 2725 3900 2550 3950 
Q 2375 4000 2100 4000 
Q 1825 4000 1725 3862 
Q 1625 3725 1625 3525 
L 1625 2925 
L 2650 2925 
L 2650 2525 
L 1625 2525 
L 1625 125 
L 1125 125 
L 1125 2525 
L 275 2525 
L 275 2925 
L 1125 2925 
L 1125 3500 
Q 1125 3950 1400 4200 
Q 1675 4450 2125 4450 
Q 2400 4450 2562 4412 
Q 2725 4375 2850 4325 
L 2850 3825 
z
" transform="scale(0.015625)"/>
       <path id="SimHei-65" d="M 2850 1075 
Q 2800 625 2450 350 
Q 2100 75 1625 75 
Q 1025 75 637 462 
Q 250 850 250 1525 
Q 250 2200 637 2587 
Q 1025 2975 1625 2975 
Q 2150 2975 2487 2637 
Q 2825 2300 2825 1525 
L 800 1525 
Q 800 975 1037 750 
Q 1275 525 1625 525 
Q 1900 525 2075 662 
Q 2250 800 2300 1075 
L 2850 1075 
z
M 2250 1925 
Q 2200 2275 2025 2412 
Q 1850 2550 1575 2550 
Q 1325 2550 1125 2412 
Q 925 2275 825 1925 
L 2250 1925 
z
" transform="scale(0.015625)"/>
       <path id="SimHei-72" d="M 2500 2425 
Q 2025 2500 1700 2287 
Q 1375 2075 1150 1550 
L 1150 125 
L 650 125 
L 650 2925 
L 1150 2925 
L 1150 2200 
Q 1375 2600 1712 2787 
Q 2050 2975 2500 2975 
L 2500 2425 
z
" transform="scale(0.015625)"/>
      </defs>
      <use xlink:href="#SimHei-52"/>
      <use xlink:href="#SimHei-61" x="50"/>
      <use xlink:href="#SimHei-6e" x="100"/>
      <use xlink:href="#SimHei-64" x="150"/>
      <use xlink:href="#SimHei-6f" x="200"/>
      <use xlink:href="#SimHei-6d" x="250"/>
      <use xlink:href="#SimHei-20" x="300"/>
      <use xlink:href="#SimHei-43" x="350"/>
      <use xlink:href="#SimHei-6c" x="400"/>
      <use xlink:href="#SimHei-61" x="450"/>
      <use xlink:href="#SimHei-73" x="500"/>
      <use xlink:href="#SimHei-73" x="550"/>
      <use xlink:href="#SimHei-69" x="600"/>
      <use xlink:href="#SimHei-66" x="650"/>
      <use xlink:href="#SimHei-69" x="700"/>
      <use xlink:href="#SimHei-65" x="750"/>
      <use xlink:href="#SimHei-72" x="800"/>
     </g>
    </g>
   </g>
  </g>
 </g>
 <defs>
  <clipPath id="pc0d565f0b0">
   <rect x="72" y="51.84" width="446.4" height="332.64"/>
  </clipPath>
 </defs>
</svg>
