<?xml version="1.0" encoding="utf-8" standalone="no"?>
<!DOCTYPE svg PUBLIC "-//W3C//DTD SVG 1.1//EN"
  "http://www.w3.org/Graphics/SVG/1.1/DTD/svg11.dtd">
<svg xmlns:xlink="http://www.w3.org/1999/xlink" width="432pt" height="288pt" viewBox="0 0 432 288" xmlns="http://www.w3.org/2000/svg" version="1.1">
 <metadata>
  <rdf:RDF xmlns:dc="http://purl.org/dc/elements/1.1/" xmlns:cc="http://creativecommons.org/ns#" xmlns:rdf="http://www.w3.org/1999/02/22-rdf-syntax-ns#">
   <cc:Work>
    <dc:type rdf:resource="http://purl.org/dc/dcmitype/StillImage"/>
    <dc:date>2025-11-06T15:02:49.977624</dc:date>
    <dc:format>image/svg+xml</dc:format>
    <dc:creator>
     <cc:Agent>
      <dc:title>Matplotlib v3.9.4, https://matplotlib.org/</dc:title>
     </cc:Agent>
    </dc:creator>
   </cc:Work>
  </rdf:RDF>
 </metadata>
 <defs>
  <style type="text/css">*{stroke-linejoin: round; stroke-linecap: butt}</style>
 </defs>
 <g id="figure_1">
  <g id="patch_1">
   <path d="M 0 288 
L 432 288 
L 432 0 
L 0 0 
z
" style="fill: #ffffff"/>
  </g>
  <g id="axes_1">
   <g id="patch_2">
    <path d="M 54 256.32 
L 388.8 256.32 
L 388.8 34.56 
L 54 34.56 
z
" style="fill: #ffffff"/>
   </g>
   <g id="patch_3">
    <path d="M 69.218182 256.32 
L 84.436364 256.32 
L 84.436364 194.72 
L 69.218182 194.72 
z
" clip-path="url(#pf3f4a90ef1)" style="fill: #1f77b4; fill-opacity: 0.75; stroke: #000000; stroke-linejoin: miter"/>
   </g>
   <g id="patch_4">
    <path d="M 84.436364 256.32 
L 99.654545 256.32 
L 99.654545 159.52 
L 84.436364 159.52 
z
" clip-path="url(#pf3f4a90ef1)" style="fill: #1f77b4; fill-opacity: 0.75; stroke: #000000; stroke-linejoin: miter"/>
   </g>
   <g id="patch_5">
    <path d="M 99.654545 256.32 
L 114.872727 256.32 
L 114.872727 168.32 
L 99.654545 168.32 
z
" clip-path="url(#pf3f4a90ef1)" style="fill: #1f77b4; fill-opacity: 0.75; stroke: #000000; stroke-linejoin: miter"/>
   </g>
   <g id="patch_6">
    <path d="M 114.872727 256.32 
L 130.090909 256.32 
L 130.090909 45.12 
L 114.872727 45.12 
z
" clip-path="url(#pf3f4a90ef1)" style="fill: #1f77b4; fill-opacity: 0.75; stroke: #000000; stroke-linejoin: miter"/>
   </g>
   <g id="patch_7">
    <path d="M 130.090909 256.32 
L 145.309091 256.32 
L 145.309091 159.52 
L 130.090909 159.52 
z
" clip-path="url(#pf3f4a90ef1)" style="fill: #1f77b4; fill-opacity: 0.75; stroke: #000000; stroke-linejoin: miter"/>
   </g>
   <g id="patch_8">
    <path d="M 145.309091 256.32 
L 160.527273 256.32 
L 160.527273 185.92 
L 145.309091 185.92 
z
" clip-path="url(#pf3f4a90ef1)" style="fill: #1f77b4; fill-opacity: 0.75; stroke: #000000; stroke-linejoin: miter"/>
   </g>
   <g id="patch_9">
    <path d="M 160.527273 256.32 
L 175.745455 256.32 
L 175.745455 159.52 
L 160.527273 159.52 
z
" clip-path="url(#pf3f4a90ef1)" style="fill: #1f77b4; fill-opacity: 0.75; stroke: #000000; stroke-linejoin: miter"/>
   </g>
   <g id="patch_10">
    <path d="M 175.745455 256.32 
L 190.963636 256.32 
L 190.963636 124.32 
L 175.745455 124.32 
z
" clip-path="url(#pf3f4a90ef1)" style="fill: #1f77b4; fill-opacity: 0.75; stroke: #000000; stroke-linejoin: miter"/>
   </g>
   <g id="patch_11">
    <path d="M 190.963636 256.32 
L 206.181818 256.32 
L 206.181818 185.92 
L 190.963636 185.92 
z
" clip-path="url(#pf3f4a90ef1)" style="fill: #1f77b4; fill-opacity: 0.75; stroke: #000000; stroke-linejoin: miter"/>
   </g>
   <g id="patch_12">
    <path d="M 206.181818 256.32 
L 221.4 256.32 
L 221.4 177.12 
L 206.181818 177.12 
z
" clip-path="url(#pf3f4a90ef1)" style="fill: #1f77b4; fill-opacity: 0.75; stroke: #000000; stroke-linejoin: miter"/>
   </g>
   <g id="patch_13">
    <path d="M 221.4 256.32 
L 236.618182 256.32 
L 236.618182 177.12 
L 221.4 177.12 
z
" clip-path="url(#pf3f4a90ef1)" style="fill: #1f77b4; fill-opacity: 0.75; stroke: #000000; stroke-linejoin: miter"/>
   </g>
   <g id="patch_14">
    <path d="M 236.618182 256.32 
L 251.836364 256.32 
L 251.836364 71.52 
L 236.618182 71.52 
z
" clip-path="url(#pf3f4a90ef1)" style="fill: #1f77b4; fill-opacity: 0.75; stroke: #000000; stroke-linejoin: miter"/>
   </g>
   <g id="patch_15">
    <path d="M 251.836364 256.32 
L 267.054545 256.32 
L 267.054545 177.12 
L 251.836364 177.12 
z
" clip-path="url(#pf3f4a90ef1)" style="fill: #1f77b4; fill-opacity: 0.75; stroke: #000000; stroke-linejoin: miter"/>
   </g>
   <g id="patch_16">
    <path d="M 267.054545 256.32 
L 282.272727 256.32 
L 282.272727 203.52 
L 267.054545 203.52 
z
" clip-path="url(#pf3f4a90ef1)" style="fill: #1f77b4; fill-opacity: 0.75; stroke: #000000; stroke-linejoin: miter"/>
   </g>
   <g id="patch_17">
    <path d="M 282.272727 256.32 
L 297.490909 256.32 
L 297.490909 221.12 
L 282.272727 221.12 
z
" clip-path="url(#pf3f4a90ef1)" style="fill: #1f77b4; fill-opacity: 0.75; stroke: #000000; stroke-linejoin: miter"/>
   </g>
   <g id="patch_18">
    <path d="M 297.490909 256.32 
L 312.709091 256.32 
L 312.709091 203.52 
L 297.490909 203.52 
z
" clip-path="url(#pf3f4a90ef1)" style="fill: #1f77b4; fill-opacity: 0.75; stroke: #000000; stroke-linejoin: miter"/>
   </g>
   <g id="patch_19">
    <path d="M 312.709091 256.32 
L 327.927273 256.32 
L 327.927273 133.12 
L 312.709091 133.12 
z
" clip-path="url(#pf3f4a90ef1)" style="fill: #1f77b4; fill-opacity: 0.75; stroke: #000000; stroke-linejoin: miter"/>
   </g>
   <g id="patch_20">
    <path d="M 327.927273 256.32 
L 343.145455 256.32 
L 343.145455 159.52 
L 327.927273 159.52 
z
" clip-path="url(#pf3f4a90ef1)" style="fill: #1f77b4; fill-opacity: 0.75; stroke: #000000; stroke-linejoin: miter"/>
   </g>
   <g id="patch_21">
    <path d="M 343.145455 256.32 
L 358.363636 256.32 
L 358.363636 229.92 
L 343.145455 229.92 
z
" clip-path="url(#pf3f4a90ef1)" style="fill: #1f77b4; fill-opacity: 0.75; stroke: #000000; stroke-linejoin: miter"/>
   </g>
   <g id="patch_22">
    <path d="M 358.363636 256.32 
L 373.581818 256.32 
L 373.581818 229.92 
L 358.363636 229.92 
z
" clip-path="url(#pf3f4a90ef1)" style="fill: #1f77b4; fill-opacity: 0.75; stroke: #000000; stroke-linejoin: miter"/>
   </g>
   <g id="matplotlib.axis_1">
    <g id="xtick_1">
     <g id="line2d_1">
      <defs>
       <path id="m158a444769" d="M 0 0 
L 0 3.5 
" style="stroke: #000000; stroke-width: 0.8"/>
      </defs>
      <g>
       <use xlink:href="#m158a444769" x="91.733715" y="256.32" style="stroke: #000000; stroke-width: 0.8"/>
      </g>
     </g>
     <g id="text_1">
      <!-- 0.00 -->
      <g transform="translate(81.733715 270.195) scale(0.1 -0.1)">
       <defs>
        <path id="SimHei-30" d="M 225 2537 
Q 250 3200 412 3587 
Q 575 3975 875 4225 
Q 1175 4475 1612 4475 
Q 2050 4475 2375 4112 
Q 2700 3750 2800 3200 
Q 2900 2650 2862 1937 
Q 2825 1225 2612 775 
Q 2400 325 1975 150 
Q 1550 -25 1125 187 
Q 700 400 525 750 
Q 350 1100 275 1487 
Q 200 1875 225 2537 
z
M 750 2687 
Q 675 2000 800 1462 
Q 925 925 1212 700 
Q 1500 475 1800 612 
Q 2100 750 2237 1162 
Q 2375 1575 2375 2062 
Q 2375 2550 2337 2950 
Q 2300 3350 2112 3675 
Q 1925 4000 1612 4012 
Q 1300 4025 1062 3700 
Q 825 3375 750 2687 
z
" transform="scale(0.015625)"/>
        <path id="SimHei-2e" d="M 1075 125 
L 500 125 
L 500 675 
L 1075 675 
L 1075 125 
z
" transform="scale(0.015625)"/>
       </defs>
       <use xlink:href="#SimHei-30"/>
       <use xlink:href="#SimHei-2e" x="50"/>
       <use xlink:href="#SimHei-30" x="100"/>
       <use xlink:href="#SimHei-30" x="150"/>
      </g>
     </g>
    </g>
    <g id="xtick_2">
     <g id="line2d_2">
      <g>
       <use xlink:href="#m158a444769" x="129.640486" y="256.32" style="stroke: #000000; stroke-width: 0.8"/>
      </g>
     </g>
     <g id="text_2">
      <!-- 0.05 -->
      <g transform="translate(119.640486 270.195) scale(0.1 -0.1)">
       <defs>
        <path id="SimHei-35" d="M 550 1325 
Q 725 650 1150 575 
Q 1575 500 1837 662 
Q 2100 825 2212 1087 
Q 2325 1350 2312 1675 
Q 2300 2000 2137 2225 
Q 1975 2450 1725 2525 
Q 1475 2600 1162 2525 
Q 850 2450 650 2175 
L 225 2225 
Q 275 2375 700 4375 
L 2675 4375 
L 2675 3925 
L 1075 3925 
Q 950 3250 825 2850 
Q 1200 3025 1525 3012 
Q 1850 3000 2150 2862 
Q 2450 2725 2587 2487 
Q 2725 2250 2787 2012 
Q 2850 1775 2837 1500 
Q 2825 1225 2725 937 
Q 2625 650 2425 462 
Q 2225 275 1937 162 
Q 1650 50 1275 75 
Q 900 100 562 350 
Q 225 600 100 1200 
L 550 1325 
z
" transform="scale(0.015625)"/>
       </defs>
       <use xlink:href="#SimHei-30"/>
       <use xlink:href="#SimHei-2e" x="50"/>
       <use xlink:href="#SimHei-30" x="100"/>
       <use xlink:href="#SimHei-35" x="150"/>
      </g>
     </g>
    </g>
    <g id="xtick_3">
     <g id="line2d_3">
      <g>
       <use xlink:href="#m158a444769" x="167.547257" y="256.32" style="stroke: #000000; stroke-width: 0.8"/>
      </g>
     </g>
     <g id="text_3">
      <!-- 0.10 -->
      <g transform="translate(157.547257 270.195) scale(0.1 -0.1)">
       <defs>
        <path id="SimHei-31" d="M 1400 3600 
Q 1075 3275 575 2975 
L 575 3450 
Q 1200 3875 1600 4450 
L 1900 4450 
L 1900 150 
L 1400 150 
L 1400 3600 
z
" transform="scale(0.015625)"/>
       </defs>
       <use xlink:href="#SimHei-30"/>
       <use xlink:href="#SimHei-2e" x="50"/>
       <use xlink:href="#SimHei-31" x="100"/>
       <use xlink:href="#SimHei-30" x="150"/>
      </g>
     </g>
    </g>
    <g id="xtick_4">
     <g id="line2d_4">
      <g>
       <use xlink:href="#m158a444769" x="205.454028" y="256.32" style="stroke: #000000; stroke-width: 0.8"/>
      </g>
     </g>
     <g id="text_4">
      <!-- 0.15 -->
      <g transform="translate(195.454028 270.195) scale(0.1 -0.1)">
       <use xlink:href="#SimHei-30"/>
       <use xlink:href="#SimHei-2e" x="50"/>
       <use xlink:href="#SimHei-31" x="100"/>
       <use xlink:href="#SimHei-35" x="150"/>
      </g>
     </g>
    </g>
    <g id="xtick_5">
     <g id="line2d_5">
      <g>
       <use xlink:href="#m158a444769" x="243.360799" y="256.32" style="stroke: #000000; stroke-width: 0.8"/>
      </g>
     </g>
     <g id="text_5">
      <!-- 0.20 -->
      <g transform="translate(233.360799 270.195) scale(0.1 -0.1)">
       <defs>
        <path id="SimHei-32" d="M 300 250 
Q 325 625 650 925 
Q 975 1225 1475 1862 
Q 1975 2500 2125 2850 
Q 2275 3200 2237 3450 
Q 2200 3700 2000 3862 
Q 1800 4025 1537 4000 
Q 1275 3975 1037 3800 
Q 800 3625 675 3275 
L 200 3350 
Q 400 3925 712 4187 
Q 1025 4450 1450 4475 
Q 1700 4500 1900 4462 
Q 2100 4425 2312 4287 
Q 2525 4150 2662 3875 
Q 2800 3600 2762 3212 
Q 2725 2825 2375 2287 
Q 2025 1750 1025 600 
L 2825 600 
L 2825 150 
L 300 150 
L 300 250 
z
" transform="scale(0.015625)"/>
       </defs>
       <use xlink:href="#SimHei-30"/>
       <use xlink:href="#SimHei-2e" x="50"/>
       <use xlink:href="#SimHei-32" x="100"/>
       <use xlink:href="#SimHei-30" x="150"/>
      </g>
     </g>
    </g>
    <g id="xtick_6">
     <g id="line2d_6">
      <g>
       <use xlink:href="#m158a444769" x="281.267571" y="256.32" style="stroke: #000000; stroke-width: 0.8"/>
      </g>
     </g>
     <g id="text_6">
      <!-- 0.25 -->
      <g transform="translate(271.267571 270.195) scale(0.1 -0.1)">
       <use xlink:href="#SimHei-30"/>
       <use xlink:href="#SimHei-2e" x="50"/>
       <use xlink:href="#SimHei-32" x="100"/>
       <use xlink:href="#SimHei-35" x="150"/>
      </g>
     </g>
    </g>
    <g id="xtick_7">
     <g id="line2d_7">
      <g>
       <use xlink:href="#m158a444769" x="319.174342" y="256.32" style="stroke: #000000; stroke-width: 0.8"/>
      </g>
     </g>
     <g id="text_7">
      <!-- 0.30 -->
      <g transform="translate(309.174342 270.195) scale(0.1 -0.1)">
       <defs>
        <path id="SimHei-33" d="M 250 1225 
L 700 1300 
Q 800 975 1025 762 
Q 1250 550 1587 562 
Q 1925 575 2125 837 
Q 2325 1100 2300 1437 
Q 2275 1775 2037 1962 
Q 1800 2150 1275 2225 
L 1275 2550 
Q 1800 2600 2037 2825 
Q 2275 3050 2250 3412 
Q 2225 3775 1925 3937 
Q 1625 4100 1287 3975 
Q 950 3850 750 3275 
L 300 3350 
Q 450 3800 712 4100 
Q 975 4400 1425 4450 
Q 1875 4500 2212 4337 
Q 2550 4175 2687 3837 
Q 2825 3500 2725 3100 
Q 2625 2700 2150 2400 
Q 2500 2250 2687 1950 
Q 2875 1650 2812 1162 
Q 2750 675 2375 375 
Q 2000 75 1525 87 
Q 1050 100 700 387 
Q 350 675 250 1225 
z
" transform="scale(0.015625)"/>
       </defs>
       <use xlink:href="#SimHei-30"/>
       <use xlink:href="#SimHei-2e" x="50"/>
       <use xlink:href="#SimHei-33" x="100"/>
       <use xlink:href="#SimHei-30" x="150"/>
      </g>
     </g>
    </g>
    <g id="xtick_8">
     <g id="line2d_8">
      <g>
       <use xlink:href="#m158a444769" x="357.081113" y="256.32" style="stroke: #000000; stroke-width: 0.8"/>
      </g>
     </g>
     <g id="text_8">
      <!-- 0.35 -->
      <g transform="translate(347.081113 270.195) scale(0.1 -0.1)">
       <use xlink:href="#SimHei-30"/>
       <use xlink:href="#SimHei-2e" x="50"/>
       <use xlink:href="#SimHei-33" x="100"/>
       <use xlink:href="#SimHei-35" x="150"/>
      </g>
     </g>
    </g>
    <g id="text_9">
     <!-- 轮廓系数 -->
     <g transform="translate(201.4 283.452812) scale(0.1 -0.1)">
      <defs>
       <path id="SimHei-8f6e" d="M 2200 3350 
Q 2175 3050 2175 2750 
L 2175 2425 
Q 2575 2425 2850 2450 
L 2850 2025 
Q 2550 2050 2175 2050 
L 2175 1150 
L 2975 1250 
Q 2925 1075 2925 850 
Q 2625 825 2175 750 
Q 2175 150 2200 -650 
L 1700 -650 
Q 1725 125 1725 700 
Q 700 550 400 475 
Q 300 775 250 975 
Q 600 1000 1725 1100 
L 1725 2050 
Q 1425 2050 1100 2025 
Q 775 2000 475 1925 
L 300 2425 
Q 450 2550 650 2900 
Q 850 3250 1075 3850 
Q 750 3850 275 3825 
L 275 4275 
Q 750 4250 1200 4250 
Q 1375 4875 1425 5200 
Q 1675 5075 1950 5025 
Q 1825 4750 1650 4250 
L 2075 4250 
Q 2600 4250 2975 4275 
L 2975 3825 
Q 2550 3850 2100 3850 
L 1550 3850 
Q 1175 2900 900 2425 
L 1725 2425 
Q 1700 3050 1700 3350 
L 2200 3350 
z
M 3750 1625 
Q 4750 2075 5200 2550 
Q 5475 2225 5625 2125 
Q 5175 1875 4750 1650 
Q 4325 1425 3750 1175 
L 3750 225 
Q 3750 -75 4050 -100 
L 4925 -100 
Q 5250 -125 5325 137 
Q 5400 400 5400 600 
Q 5800 350 5975 300 
Q 5750 -225 5612 -362 
Q 5475 -500 5175 -500 
L 3850 -500 
Q 3300 -500 3300 0 
L 3300 1900 
Q 3300 2475 3275 2900 
L 3775 2900 
Q 3750 2450 3750 2100 
L 3750 1625 
z
M 4375 4800 
Q 4875 3975 5337 3650 
Q 5800 3325 6200 3125 
Q 5975 2875 5825 2650 
Q 5200 3075 4825 3487 
Q 4450 3900 4200 4350 
Q 3875 3825 3587 3412 
Q 3300 3000 2925 2625 
Q 2725 2800 2450 3000 
Q 2775 3200 3037 3487 
Q 3300 3775 3512 4150 
Q 3725 4525 3950 5275 
Q 4300 5100 4550 5000 
L 4375 4800 
z
" transform="scale(0.015625)"/>
       <path id="SimHei-5ed3" d="M 3475 5275 
Q 3525 5100 3700 4650 
L 4900 4650 
Q 5275 4650 5850 4675 
L 5850 4250 
Q 5300 4275 4900 4275 
L 1275 4275 
Q 1275 2150 1237 1537 
Q 1200 925 1087 400 
Q 975 -125 775 -500 
Q 600 -300 250 -150 
Q 500 150 600 525 
Q 700 900 737 1337 
Q 775 1775 787 2287 
Q 800 2800 750 4650 
L 3175 4650 
Q 3125 4800 3000 5150 
Q 3200 5200 3475 5275 
z
M 4700 3400 
L 4700 375 
Q 4700 75 4725 -525 
L 4250 -525 
Q 4275 50 4275 375 
L 4275 2950 
Q 4275 3400 4250 3750 
L 6075 3750 
Q 5925 3525 5375 2125 
Q 6150 1275 6075 837 
Q 6000 400 5075 200 
Q 5100 375 4875 800 
Q 5800 725 5550 1187 
Q 5300 1650 4925 2075 
Q 5075 2425 5450 3400 
L 4700 3400 
z
M 1350 725 
Q 1875 750 2575 875 
Q 2575 1000 2500 1150 
Q 2900 1325 3125 1475 
L 2375 1475 
Q 1950 1475 1600 1450 
L 1600 1850 
Q 1975 1800 2400 1800 
L 3775 1800 
L 3775 1400 
Q 3525 1325 3025 1025 
L 3025 900 
Q 3225 900 3850 1025 
L 3825 625 
Q 3400 575 3025 525 
L 3025 25 
Q 3050 -300 2837 -412 
Q 2625 -525 2200 -600 
Q 2150 -350 2025 -100 
Q 2475 -100 2525 -37 
Q 2575 25 2575 475 
Q 1925 375 1500 250 
L 1350 725 
z
M 3800 3050 
Q 3775 2800 3775 2550 
Q 3775 2300 3800 2100 
L 1700 2100 
Q 1725 2350 1725 2525 
Q 1725 2725 1700 3050 
L 3800 3050 
z
M 2950 4200 
Q 3025 4000 3075 3725 
Q 3525 3725 3900 3750 
L 3900 3350 
Q 3525 3375 3225 3375 
L 2250 3375 
Q 1825 3375 1475 3350 
L 1475 3750 
Q 1825 3725 2550 3725 
Q 2525 3825 2425 4075 
Q 2675 4125 2950 4200 
z
M 3350 2425 
L 3350 2700 
L 2150 2700 
L 2150 2425 
L 3350 2425 
z
" transform="scale(0.015625)"/>
       <path id="SimHei-7cfb" d="M 5300 5200 
Q 5450 4950 5725 4675 
Q 4975 4650 4437 4587 
Q 3900 4525 3125 4450 
Q 3250 4325 3475 4225 
Q 3150 4025 2837 3762 
Q 2525 3500 2225 3275 
L 3475 3275 
Q 4100 3700 4525 4050 
Q 4775 3850 5125 3700 
Q 4775 3550 4450 3375 
Q 4125 3200 3387 2737 
Q 2650 2275 2125 1975 
Q 3600 2050 4875 2100 
Q 4750 2225 4225 2625 
Q 4475 2725 4650 2875 
Q 4950 2650 5337 2312 
Q 5725 1975 6075 1650 
Q 5775 1475 5600 1325 
Q 5400 1575 5225 1725 
Q 4550 1700 3625 1650 
L 3625 150 
Q 3625 -325 3387 -412 
Q 3150 -500 2525 -600 
Q 2475 -300 2300 -25 
Q 2875 -25 3012 12 
Q 3150 50 3150 300 
L 3150 1650 
Q 1625 1625 1075 1525 
Q 1000 1775 900 2050 
Q 1450 2100 1875 2300 
Q 2300 2500 2900 2900 
Q 2325 2900 2037 2875 
Q 1750 2850 1400 2800 
Q 1325 3075 1250 3325 
Q 1675 3325 2100 3662 
Q 2525 4000 2750 4400 
Q 1350 4350 925 4300 
Q 850 4550 750 4750 
Q 2150 4750 3250 4850 
Q 4350 4950 5300 5200 
z
M 4625 1250 
Q 4925 1025 5325 737 
Q 5725 450 6000 175 
Q 5800 0 5600 -225 
Q 5275 125 4925 400 
Q 4575 675 4275 875 
Q 4500 1050 4625 1250 
z
M 2200 875 
Q 1900 725 1537 375 
Q 1175 25 800 -300 
Q 575 -75 375 25 
Q 1075 450 1675 1225 
Q 1900 1050 2200 875 
z
" transform="scale(0.015625)"/>
       <path id="SimHei-6570" d="M 4525 4925 
Q 4475 4800 4400 4587 
Q 4325 4375 4175 3825 
L 5325 3825 
Q 5575 3825 5925 3850 
L 5925 3400 
Q 5650 3425 5500 3425 
Q 5500 3025 5362 2162 
Q 5225 1300 4875 675 
Q 5125 375 5437 137 
Q 5750 -100 6025 -200 
Q 5725 -425 5625 -625 
Q 5325 -450 5075 -225 
Q 4825 0 4575 325 
Q 4300 25 3987 -187 
Q 3675 -400 3200 -650 
Q 3075 -425 2850 -300 
Q 3225 -150 3650 125 
Q 4075 400 4300 675 
Q 4125 1025 3962 1425 
Q 3800 1825 3675 2475 
Q 3600 2275 3425 1950 
Q 3250 2050 3000 2150 
Q 3400 2850 3650 3675 
Q 3900 4500 3975 5100 
Q 4275 4975 4525 4925 
z
M 2100 2250 
Q 2000 2150 1875 1925 
L 3250 1925 
Q 3100 1300 2725 675 
Q 3125 525 3350 400 
Q 3225 225 3125 25 
Q 2900 175 2450 325 
Q 1950 -225 725 -650 
Q 600 -375 400 -275 
Q 1575 0 2000 475 
Q 1300 650 850 775 
Q 1000 1000 1250 1525 
Q 1000 1525 425 1500 
L 425 1950 
Q 900 1925 1400 1925 
Q 1500 2150 1550 2425 
Q 1825 2325 2100 2250 
z
M 1775 3950 
Q 1775 4550 1750 5100 
L 2250 5100 
Q 2225 4575 2225 3950 
Q 3075 3950 3425 3975 
L 3425 3525 
Q 3075 3550 2225 3550 
Q 2225 2825 2250 2425 
L 1750 2425 
Q 1775 2775 1775 3300 
Q 1650 3100 1300 2787 
Q 950 2475 650 2300 
Q 525 2525 275 2625 
Q 500 2700 875 2975 
Q 1250 3250 1450 3550 
Q 950 3550 500 3525 
L 500 3975 
Q 925 3950 1775 3950 
z
M 3975 3175 
Q 4200 1700 4600 1125 
Q 4850 1700 4937 2287 
Q 5025 2875 5050 3425 
L 4075 3425 
L 3975 3175 
z
M 1450 1000 
Q 1750 925 2275 800 
Q 2475 1050 2650 1525 
L 1725 1525 
Q 1600 1275 1450 1000 
z
M 3325 4825 
Q 3200 4625 3125 4450 
Q 3050 4275 2925 4025 
Q 2725 4125 2525 4175 
Q 2725 4500 2900 5000 
Q 3150 4875 3325 4825 
z
M 2575 3375 
Q 2900 3050 3200 2725 
Q 3050 2600 2875 2425 
Q 2525 2850 2300 3100 
Q 2450 3225 2575 3375 
z
M 925 5000 
Q 1275 4650 1500 4300 
L 1125 4075 
Q 950 4425 600 4725 
Q 825 4875 925 5000 
z
" transform="scale(0.015625)"/>
      </defs>
      <use xlink:href="#SimHei-8f6e"/>
      <use xlink:href="#SimHei-5ed3" x="100"/>
      <use xlink:href="#SimHei-7cfb" x="200"/>
      <use xlink:href="#SimHei-6570" x="300"/>
     </g>
    </g>
   </g>
   <g id="matplotlib.axis_2">
    <g id="ytick_1">
     <g id="line2d_9">
      <defs>
       <path id="m64f7aa814c" d="M 0 0 
L -3.5 0 
" style="stroke: #000000; stroke-width: 0.8"/>
      </defs>
      <g>
       <use xlink:href="#m64f7aa814c" x="54" y="256.32" style="stroke: #000000; stroke-width: 0.8"/>
      </g>
     </g>
     <g id="text_10">
      <!-- 0 -->
      <g transform="translate(42 259.7575) scale(0.1 -0.1)">
       <use xlink:href="#SimHei-30"/>
      </g>
     </g>
    </g>
    <g id="ytick_2">
     <g id="line2d_10">
      <g>
       <use xlink:href="#m64f7aa814c" x="54" y="212.32" style="stroke: #000000; stroke-width: 0.8"/>
      </g>
     </g>
     <g id="text_11">
      <!-- 5 -->
      <g transform="translate(42 215.7575) scale(0.1 -0.1)">
       <use xlink:href="#SimHei-35"/>
      </g>
     </g>
    </g>
    <g id="ytick_3">
     <g id="line2d_11">
      <g>
       <use xlink:href="#m64f7aa814c" x="54" y="168.32" style="stroke: #000000; stroke-width: 0.8"/>
      </g>
     </g>
     <g id="text_12">
      <!-- 10 -->
      <g transform="translate(37 171.7575) scale(0.1 -0.1)">
       <use xlink:href="#SimHei-31"/>
       <use xlink:href="#SimHei-30" x="50"/>
      </g>
     </g>
    </g>
    <g id="ytick_4">
     <g id="line2d_12">
      <g>
       <use xlink:href="#m64f7aa814c" x="54" y="124.32" style="stroke: #000000; stroke-width: 0.8"/>
      </g>
     </g>
     <g id="text_13">
      <!-- 15 -->
      <g transform="translate(37 127.7575) scale(0.1 -0.1)">
       <use xlink:href="#SimHei-31"/>
       <use xlink:href="#SimHei-35" x="50"/>
      </g>
     </g>
    </g>
    <g id="ytick_5">
     <g id="line2d_13">
      <g>
       <use xlink:href="#m64f7aa814c" x="54" y="80.32" style="stroke: #000000; stroke-width: 0.8"/>
      </g>
     </g>
     <g id="text_14">
      <!-- 20 -->
      <g transform="translate(37 83.7575) scale(0.1 -0.1)">
       <use xlink:href="#SimHei-32"/>
       <use xlink:href="#SimHei-30" x="50"/>
      </g>
     </g>
    </g>
    <g id="ytick_6">
     <g id="line2d_14">
      <g>
       <use xlink:href="#m64f7aa814c" x="54" y="36.32" style="stroke: #000000; stroke-width: 0.8"/>
      </g>
     </g>
     <g id="text_15">
      <!-- 25 -->
      <g transform="translate(37 39.7575) scale(0.1 -0.1)">
       <use xlink:href="#SimHei-32"/>
       <use xlink:href="#SimHei-35" x="50"/>
      </g>
     </g>
    </g>
    <g id="text_16">
     <!-- 样本数量 -->
     <g transform="translate(31.75 165.44) rotate(-90) scale(0.1 -0.1)">
      <defs>
       <path id="SimHei-6837" d="M 4350 4025 
Q 4600 4575 4850 5225 
Q 5250 5075 5375 5000 
Q 5150 4725 4850 4025 
L 4950 4025 
Q 5650 4050 5950 4050 
L 5950 3600 
Q 5675 3625 5175 3625 
L 4550 3625 
L 4550 2650 
L 4950 2650 
Q 5525 2675 5800 2675 
L 5800 2225 
Q 5475 2250 5025 2250 
L 4550 2250 
L 4550 1225 
L 5325 1225 
Q 5800 1250 6100 1250 
L 6100 800 
Q 5825 825 5325 825 
L 4550 825 
L 4550 275 
Q 4550 -250 4575 -600 
L 4075 -600 
L 4075 825 
L 3475 825 
Q 3000 825 2550 800 
L 2550 1275 
Q 3000 1250 3500 1225 
L 4075 1225 
L 4075 2250 
L 3650 2250 
Q 3225 2250 2900 2225 
L 2900 2700 
Q 3200 2675 3675 2650 
L 4075 2650 
L 4075 3625 
L 3475 3625 
Q 3050 3625 2750 3600 
L 2750 4075 
Q 3050 4050 3475 4025 
L 4350 4025 
z
M 1325 4350 
Q 1325 4775 1300 5125 
L 1825 5125 
Q 1800 4725 1800 4350 
L 1800 3750 
Q 2125 3750 2475 3775 
L 2475 3325 
Q 2125 3350 1800 3350 
L 1800 2425 
Q 2000 2600 2100 2675 
Q 2375 2325 2725 1775 
Q 2575 1700 2300 1475 
Q 2025 1975 1800 2350 
L 1800 475 
Q 1800 -50 1825 -575 
L 1300 -575 
Q 1325 -25 1325 475 
L 1325 2250 
Q 925 1300 525 725 
Q 425 950 225 1175 
Q 950 2150 1225 3350 
Q 825 3350 350 3325 
L 350 3775 
Q 825 3750 1325 3750 
L 1325 4350 
z
M 3575 5200 
Q 3800 4775 3950 4350 
Q 3650 4250 3525 4175 
Q 3350 4600 3150 5000 
Q 3425 5125 3575 5200 
z
" transform="scale(0.015625)"/>
       <path id="SimHei-672c" d="M 2950 3925 
L 2950 4425 
Q 2950 4825 2925 5175 
L 3475 5175 
Q 3450 4900 3450 4450 
L 3450 3925 
L 4850 3925 
Q 5275 3925 5850 3950 
L 5850 3475 
Q 5300 3500 4875 3500 
L 3850 3500 
Q 4200 2350 4862 1687 
Q 5525 1025 6075 800 
Q 5850 625 5650 325 
Q 4800 900 4262 1637 
Q 3725 2375 3450 3350 
L 3450 1000 
L 3775 1000 
Q 4175 1000 4600 1025 
L 4600 550 
Q 4175 575 3750 575 
L 3450 575 
Q 3450 0 3475 -600 
L 2925 -600 
Q 2950 0 2950 575 
L 2625 575 
Q 2225 575 1825 550 
L 1825 1025 
Q 2225 1000 2625 1000 
L 2950 1000 
L 2950 3300 
Q 2550 2275 2062 1575 
Q 1575 875 750 175 
Q 550 450 275 575 
Q 1100 1075 1650 1825 
Q 2200 2575 2525 3500 
L 1425 3500 
Q 1025 3500 575 3475 
L 575 3950 
Q 1025 3925 1400 3925 
L 2950 3925 
z
" transform="scale(0.015625)"/>
       <path id="SimHei-91cf" d="M 5250 2500 
Q 5225 2200 5225 1700 
Q 5225 1225 5250 950 
L 3425 950 
L 3425 625 
L 4575 625 
Q 5000 625 5375 650 
L 5375 275 
Q 5025 300 4575 300 
L 3425 300 
L 3425 -75 
L 5125 -75 
Q 5525 -75 5925 -50 
L 5925 -425 
Q 5525 -400 5125 -400 
L 1275 -400 
Q 900 -400 475 -425 
L 475 -50 
Q 925 -50 1275 -75 
L 2975 -75 
L 2975 300 
L 1725 300 
Q 1350 300 975 250 
L 975 650 
Q 1375 625 1725 625 
L 2975 625 
L 2975 950 
L 1150 950 
Q 1175 1375 1175 1775 
Q 1175 2175 1150 2500 
L 5250 2500 
z
M 5200 4950 
Q 5175 4575 5175 4250 
Q 5175 3925 5200 3400 
L 1200 3400 
Q 1225 3925 1225 4250 
Q 1225 4575 1200 4950 
L 5200 4950 
z
M 4900 3100 
Q 5500 3125 6000 3150 
L 6000 2750 
Q 5500 2775 4925 2775 
L 1650 2775 
Q 975 2775 325 2750 
L 325 3150 
Q 975 3125 1650 3100 
L 4900 3100 
z
M 4725 3700 
L 4725 4025 
L 1675 4025 
L 1675 3700 
L 4725 3700 
z
M 4725 4350 
L 4725 4650 
L 1675 4650 
L 1675 4350 
L 4725 4350 
z
M 4750 1875 
L 4750 2175 
L 3425 2175 
L 3425 1875 
L 4750 1875 
z
M 2975 1875 
L 2975 2175 
L 1650 2175 
L 1650 1875 
L 2975 1875 
z
M 2975 1275 
L 2975 1550 
L 1650 1550 
L 1650 1275 
L 2975 1275 
z
M 4750 1275 
L 4750 1550 
L 3425 1550 
L 3425 1275 
L 4750 1275 
z
" transform="scale(0.015625)"/>
      </defs>
      <use xlink:href="#SimHei-6837"/>
      <use xlink:href="#SimHei-672c" x="100"/>
      <use xlink:href="#SimHei-6570" x="200"/>
      <use xlink:href="#SimHei-91cf" x="300"/>
     </g>
    </g>
   </g>
   <g id="patch_23">
    <path d="M 54 256.32 
L 54 34.56 
" style="fill: none; stroke: #000000; stroke-width: 0.8; stroke-linejoin: miter; stroke-linecap: square"/>
   </g>
   <g id="patch_24">
    <path d="M 388.8 256.32 
L 388.8 34.56 
" style="fill: none; stroke: #000000; stroke-width: 0.8; stroke-linejoin: miter; stroke-linecap: square"/>
   </g>
   <g id="patch_25">
    <path d="M 54 256.32 
L 388.8 256.32 
" style="fill: none; stroke: #000000; stroke-width: 0.8; stroke-linejoin: miter; stroke-linecap: square"/>
   </g>
   <g id="patch_26">
    <path d="M 54 34.56 
L 388.8 34.56 
" style="fill: none; stroke: #000000; stroke-width: 0.8; stroke-linejoin: miter; stroke-linecap: square"/>
   </g>
   <g id="text_17">
    <!-- 轮廓系数分布直方图 -->
    <g transform="translate(167.4 28.56) scale(0.12 -0.12)">
     <defs>
      <path id="SimHei-5206" d="M 1000 -650 
Q 825 -375 575 -225 
Q 975 -75 1300 137 
Q 1625 350 1875 662 
Q 2125 975 2250 1350 
Q 2375 1725 2425 2275 
Q 1850 2275 1500 2250 
L 1500 2775 
Q 1900 2750 2525 2750 
L 5025 2750 
Q 4975 2375 4950 2100 
L 4750 250 
Q 4700 -200 4350 -350 
Q 4000 -500 3575 -525 
Q 3550 -275 3325 50 
Q 3850 25 4037 87 
Q 4225 150 4275 525 
L 4450 2275 
L 2950 2275 
Q 2875 1625 2737 1187 
Q 2600 750 2350 425 
Q 2100 100 1750 -175 
Q 1400 -450 1000 -650 
z
M 3950 5175 
Q 4125 4650 4662 3975 
Q 5200 3300 6175 2800 
Q 5975 2625 5775 2275 
Q 5325 2600 4987 2887 
Q 4650 3175 4425 3425 
Q 4200 3675 3925 4137 
Q 3650 4600 3475 5000 
Q 3750 5075 3950 5175 
z
M 2700 4825 
Q 2475 4425 2325 4125 
Q 2175 3825 2025 3587 
Q 1875 3350 1575 2950 
Q 1275 2550 850 2125 
Q 625 2350 400 2475 
Q 900 2925 1187 3300 
Q 1475 3675 1737 4112 
Q 2000 4550 2200 5075 
Q 2400 4925 2700 4825 
z
" transform="scale(0.015625)"/>
      <path id="SimHei-5e03" d="M 2375 4225 
Q 2650 4775 2775 5300 
Q 3125 5175 3400 5075 
Q 3275 4975 2950 4225 
L 4800 4225 
Q 5550 4225 6025 4250 
L 6025 3800 
L 2725 3800 
Q 2325 3100 1975 2675 
L 3275 2675 
Q 3275 3225 3250 3575 
L 3775 3575 
Q 3750 3225 3750 2675 
L 5500 2675 
Q 5475 2225 5475 1775 
L 5475 750 
Q 5475 275 5212 150 
Q 4950 25 4450 -25 
Q 4400 325 4225 550 
Q 4800 550 4912 625 
Q 5025 700 5000 1025 
L 5000 2250 
L 3750 2250 
L 3750 550 
Q 3750 25 3775 -600 
L 3250 -600 
Q 3275 25 3275 550 
L 3275 2250 
L 2100 2250 
L 2100 0 
L 1600 0 
Q 1625 525 1625 1025 
L 1625 2225 
Q 1300 1850 650 1275 
Q 475 1475 200 1650 
Q 750 2025 1262 2562 
Q 1775 3100 2150 3800 
L 1550 3800 
Q 925 3800 400 3775 
L 400 4250 
Q 925 4225 1550 4225 
L 2375 4225 
z
" transform="scale(0.015625)"/>
      <path id="SimHei-76f4" d="M 3550 5025 
Q 3475 4875 3400 4525 
L 4825 4525 
Q 5225 4525 5775 4550 
L 5775 4100 
Q 5250 4125 4825 4125 
L 3350 4125 
Q 3300 3775 3275 3525 
L 5100 3525 
Q 5075 3075 5075 2525 
L 5075 100 
L 5300 100 
Q 5650 100 6100 125 
L 6100 -350 
Q 5675 -325 5300 -325 
L 1225 -325 
Q 800 -325 325 -350 
L 325 125 
Q 825 100 1225 100 
L 1375 100 
L 1375 2525 
Q 1375 3175 1350 3525 
L 2775 3525 
Q 2825 3825 2850 4125 
L 1550 4125 
Q 1075 4125 600 4100 
L 600 4550 
Q 1075 4525 1525 4525 
L 2875 4525 
Q 2900 4800 2875 5075 
Q 3275 5025 3550 5025 
z
M 4600 975 
L 4600 1450 
L 1850 1450 
L 1850 975 
L 4600 975 
z
M 4600 100 
L 4600 575 
L 1850 575 
L 1850 100 
L 4600 100 
z
M 4600 2650 
L 4600 3125 
L 1850 3125 
L 1850 2650 
L 4600 2650 
z
M 4600 1825 
L 4600 2275 
L 1850 2275 
L 1850 1825 
L 4600 1825 
z
" transform="scale(0.015625)"/>
      <path id="SimHei-65b9" d="M 425 3975 
Q 825 3950 1300 3950 
L 5025 3950 
Q 5625 3950 6000 3975 
L 6000 3475 
Q 5675 3500 5100 3500 
L 2525 3500 
Q 2525 3225 2500 2500 
L 5300 2500 
Q 5250 2175 5200 1550 
L 5050 175 
Q 5000 -275 4625 -412 
Q 4250 -550 3525 -625 
Q 3500 -300 3325 -50 
Q 3900 -75 4200 0 
Q 4500 75 4575 425 
L 4725 2050 
L 2475 2050 
Q 2375 1350 2162 875 
Q 1950 400 1575 0 
Q 1200 -400 825 -700 
Q 725 -550 375 -350 
Q 700 -175 1062 200 
Q 1425 575 1662 1050 
Q 1900 1525 1962 2100 
Q 2025 2675 2025 3500 
L 1325 3500 
Q 775 3500 425 3475 
L 425 3975 
z
M 3075 4075 
Q 2850 4575 2575 5000 
Q 2800 5125 3025 5275 
Q 3300 4850 3575 4350 
Q 3325 4250 3075 4075 
z
" transform="scale(0.015625)"/>
      <path id="SimHei-56fe" d="M 5800 4975 
Q 5775 4350 5775 3600 
L 5775 925 
Q 5775 150 5800 -600 
L 5300 -600 
L 5300 -275 
L 1125 -275 
L 1125 -650 
L 625 -650 
Q 650 125 650 950 
L 650 3600 
Q 650 4325 625 4975 
L 5800 4975 
z
M 5300 150 
L 5300 4575 
L 1125 4575 
L 1125 150 
L 5300 150 
z
M 3225 4250 
Q 3075 4100 2950 3925 
L 4625 3925 
Q 4525 3700 4300 3375 
Q 4075 3050 3600 2600 
Q 4350 2225 5075 2150 
Q 4900 1925 4775 1675 
Q 3850 1950 3225 2350 
Q 2500 1875 1675 1650 
Q 1600 1875 1400 2075 
Q 2200 2200 2875 2600 
Q 2525 2925 2375 3150 
Q 2150 2900 1900 2650 
Q 1725 2850 1525 2950 
Q 1950 3300 2250 3737 
Q 2550 4175 2675 4475 
Q 2925 4350 3225 4250 
z
M 2450 1275 
Q 3550 950 4100 725 
Q 3975 525 3850 300 
Q 2825 725 2275 850 
Q 2375 1050 2450 1275 
z
M 2925 2050 
Q 3775 1700 4075 1600 
Q 3950 1400 3850 1150 
Q 3000 1550 2700 1650 
Q 2825 1825 2925 2050 
z
M 2625 3450 
Q 3000 3025 3275 2850 
Q 3600 3100 3875 3525 
L 2675 3525 
L 2625 3450 
z
" transform="scale(0.015625)"/>
     </defs>
     <use xlink:href="#SimHei-8f6e"/>
     <use xlink:href="#SimHei-5ed3" x="100"/>
     <use xlink:href="#SimHei-7cfb" x="200"/>
     <use xlink:href="#SimHei-6570" x="300"/>
     <use xlink:href="#SimHei-5206" x="400"/>
     <use xlink:href="#SimHei-5e03" x="500"/>
     <use xlink:href="#SimHei-76f4" x="600"/>
     <use xlink:href="#SimHei-65b9" x="700"/>
     <use xlink:href="#SimHei-56fe" x="800"/>
    </g>
   </g>
  </g>
 </g>
 <defs>
  <clipPath id="pf3f4a90ef1">
   <rect x="54" y="34.56" width="334.8" height="221.76"/>
  </clipPath>
 </defs>
</svg>
