<?xml version="1.0" encoding="utf-8" standalone="no"?>
<!DOCTYPE svg PUBLIC "-//W3C//DTD SVG 1.1//EN"
  "http://www.w3.org/Graphics/SVG/1.1/DTD/svg11.dtd">
<svg xmlns:xlink="http://www.w3.org/1999/xlink" width="1072.283437pt" height="426.209062pt" viewBox="0 0 1072.283437 426.209062" xmlns="http://www.w3.org/2000/svg" version="1.1">
 <metadata>
  <rdf:RDF xmlns:dc="http://purl.org/dc/elements/1.1/" xmlns:cc="http://creativecommons.org/ns#" xmlns:rdf="http://www.w3.org/1999/02/22-rdf-syntax-ns#">
   <cc:Work>
    <dc:type rdf:resource="http://purl.org/dc/dcmitype/StillImage"/>
    <dc:date>2025-11-04T19:14:20.168359</dc:date>
    <dc:format>image/svg+xml</dc:format>
    <dc:creator>
     <cc:Agent>
      <dc:title>Matplotlib v3.9.4, https://matplotlib.org/</dc:title>
     </cc:Agent>
    </dc:creator>
   </cc:Work>
  </rdf:RDF>
 </metadata>
 <defs>
  <style type="text/css">*{stroke-linejoin: round; stroke-linecap: butt}</style>
 </defs>
 <g id="figure_1">
  <g id="patch_1">
   <path d="M 0 426.209062 
L 1072.283437 426.209062 
L 1072.283437 0 
L 0 0 
z
" style="fill: #ffffff"/>
  </g>
  <g id="axes_1">
   <g id="patch_2">
    <path d="M 42.223438 390.7825 
L 522.983438 390.7825 
L 522.983438 51.39375 
L 42.223438 51.39375 
z
" style="fill: #ffffff"/>
   </g>
   <g id="matplotlib.axis_1">
    <g id="xtick_1">
     <g id="line2d_1">
      <path d="M 42.223438 390.7825 
L 42.223438 51.39375 
" clip-path="url(#p261d2792ee)" style="fill: none; stroke: #b0b0b0; stroke-opacity: 0.3; stroke-width: 0.8; stroke-linecap: square"/>
     </g>
     <g id="line2d_2">
      <defs>
       <path id="mb145c05874" d="M 0 0 
L 0 3.5 
" style="stroke: #000000; stroke-width: 0.8"/>
      </defs>
      <g>
       <use xlink:href="#mb145c05874" x="42.223438" y="390.7825" style="stroke: #000000; stroke-width: 0.8"/>
      </g>
     </g>
     <g id="text_1">
      <!-- 0.0 -->
      <g transform="translate(34.723438 404.6575) scale(0.1 -0.1)">
       <defs>
        <path id="SimHei-30" d="M 225 2537 
Q 250 3200 412 3587 
Q 575 3975 875 4225 
Q 1175 4475 1612 4475 
Q 2050 4475 2375 4112 
Q 2700 3750 2800 3200 
Q 2900 2650 2862 1937 
Q 2825 1225 2612 775 
Q 2400 325 1975 150 
Q 1550 -25 1125 187 
Q 700 400 525 750 
Q 350 1100 275 1487 
Q 200 1875 225 2537 
z
M 750 2687 
Q 675 2000 800 1462 
Q 925 925 1212 700 
Q 1500 475 1800 612 
Q 2100 750 2237 1162 
Q 2375 1575 2375 2062 
Q 2375 2550 2337 2950 
Q 2300 3350 2112 3675 
Q 1925 4000 1612 4012 
Q 1300 4025 1062 3700 
Q 825 3375 750 2687 
z
" transform="scale(0.015625)"/>
        <path id="SimHei-2e" d="M 1075 125 
L 500 125 
L 500 675 
L 1075 675 
L 1075 125 
z
" transform="scale(0.015625)"/>
       </defs>
       <use xlink:href="#SimHei-30"/>
       <use xlink:href="#SimHei-2e" x="50"/>
       <use xlink:href="#SimHei-30" x="100"/>
      </g>
     </g>
    </g>
    <g id="xtick_2">
     <g id="line2d_3">
      <path d="M 138.375438 390.7825 
L 138.375438 51.39375 
" clip-path="url(#p261d2792ee)" style="fill: none; stroke: #b0b0b0; stroke-opacity: 0.3; stroke-width: 0.8; stroke-linecap: square"/>
     </g>
     <g id="line2d_4">
      <g>
       <use xlink:href="#mb145c05874" x="138.375438" y="390.7825" style="stroke: #000000; stroke-width: 0.8"/>
      </g>
     </g>
     <g id="text_2">
      <!-- 0.2 -->
      <g transform="translate(130.875438 404.6575) scale(0.1 -0.1)">
       <defs>
        <path id="SimHei-32" d="M 300 250 
Q 325 625 650 925 
Q 975 1225 1475 1862 
Q 1975 2500 2125 2850 
Q 2275 3200 2237 3450 
Q 2200 3700 2000 3862 
Q 1800 4025 1537 4000 
Q 1275 3975 1037 3800 
Q 800 3625 675 3275 
L 200 3350 
Q 400 3925 712 4187 
Q 1025 4450 1450 4475 
Q 1700 4500 1900 4462 
Q 2100 4425 2312 4287 
Q 2525 4150 2662 3875 
Q 2800 3600 2762 3212 
Q 2725 2825 2375 2287 
Q 2025 1750 1025 600 
L 2825 600 
L 2825 150 
L 300 150 
L 300 250 
z
" transform="scale(0.015625)"/>
       </defs>
       <use xlink:href="#SimHei-30"/>
       <use xlink:href="#SimHei-2e" x="50"/>
       <use xlink:href="#SimHei-32" x="100"/>
      </g>
     </g>
    </g>
    <g id="xtick_3">
     <g id="line2d_5">
      <path d="M 234.527438 390.7825 
L 234.527438 51.39375 
" clip-path="url(#p261d2792ee)" style="fill: none; stroke: #b0b0b0; stroke-opacity: 0.3; stroke-width: 0.8; stroke-linecap: square"/>
     </g>
     <g id="line2d_6">
      <g>
       <use xlink:href="#mb145c05874" x="234.527438" y="390.7825" style="stroke: #000000; stroke-width: 0.8"/>
      </g>
     </g>
     <g id="text_3">
      <!-- 0.4 -->
      <g transform="translate(227.027438 404.6575) scale(0.1 -0.1)">
       <defs>
        <path id="SimHei-34" d="M 2000 1100 
L 75 1100 
L 75 1525 
L 2100 4450 
L 2475 4450 
L 2475 1525 
L 3075 1525 
L 3075 1100 
L 2475 1100 
L 2475 150 
L 2000 150 
L 2000 1100 
z
M 2000 1525 
L 2000 3500 
L 600 1525 
L 2000 1525 
z
" transform="scale(0.015625)"/>
       </defs>
       <use xlink:href="#SimHei-30"/>
       <use xlink:href="#SimHei-2e" x="50"/>
       <use xlink:href="#SimHei-34" x="100"/>
      </g>
     </g>
    </g>
    <g id="xtick_4">
     <g id="line2d_7">
      <path d="M 330.679438 390.7825 
L 330.679438 51.39375 
" clip-path="url(#p261d2792ee)" style="fill: none; stroke: #b0b0b0; stroke-opacity: 0.3; stroke-width: 0.8; stroke-linecap: square"/>
     </g>
     <g id="line2d_8">
      <g>
       <use xlink:href="#mb145c05874" x="330.679438" y="390.7825" style="stroke: #000000; stroke-width: 0.8"/>
      </g>
     </g>
     <g id="text_4">
      <!-- 0.6 -->
      <g transform="translate(323.179438 404.6575) scale(0.1 -0.1)">
       <defs>
        <path id="SimHei-36" d="M 250 1612 
Q 275 1975 387 2225 
Q 500 2475 725 2850 
L 1750 4450 
L 2325 4450 
L 1275 2800 
Q 1950 2975 2350 2750 
Q 2750 2525 2887 2237 
Q 3025 1950 3037 1612 
Q 3050 1275 2937 950 
Q 2825 625 2537 362 
Q 2250 100 1737 75 
Q 1225 50 862 262 
Q 500 475 362 862 
Q 225 1250 250 1612 
z
M 1025 787 
Q 1250 550 1625 525 
Q 2000 500 2250 775 
Q 2500 1050 2500 1575 
Q 2500 2100 2187 2300 
Q 1875 2500 1487 2450 
Q 1100 2400 925 2075 
Q 750 1750 775 1387 
Q 800 1025 1025 787 
z
" transform="scale(0.015625)"/>
       </defs>
       <use xlink:href="#SimHei-30"/>
       <use xlink:href="#SimHei-2e" x="50"/>
       <use xlink:href="#SimHei-36" x="100"/>
      </g>
     </g>
    </g>
    <g id="xtick_5">
     <g id="line2d_9">
      <path d="M 426.831438 390.7825 
L 426.831438 51.39375 
" clip-path="url(#p261d2792ee)" style="fill: none; stroke: #b0b0b0; stroke-opacity: 0.3; stroke-width: 0.8; stroke-linecap: square"/>
     </g>
     <g id="line2d_10">
      <g>
       <use xlink:href="#mb145c05874" x="426.831438" y="390.7825" style="stroke: #000000; stroke-width: 0.8"/>
      </g>
     </g>
     <g id="text_5">
      <!-- 0.8 -->
      <g transform="translate(419.331438 404.6575) scale(0.1 -0.1)">
       <defs>
        <path id="SimHei-38" d="M 175 1375 
Q 175 1675 325 1962 
Q 475 2250 825 2425 
Q 525 2600 425 2812 
Q 325 3025 312 3300 
Q 300 3575 387 3775 
Q 475 3975 650 4150 
Q 825 4325 1037 4387 
Q 1250 4450 1500 4450 
Q 1750 4450 1950 4400 
Q 2150 4350 2375 4187 
Q 2600 4025 2700 3725 
Q 2800 3425 2687 3025 
Q 2575 2625 2100 2400 
Q 2525 2275 2700 2012 
Q 2875 1750 2875 1375 
Q 2875 1000 2762 775 
Q 2650 550 2512 400 
Q 2375 250 2137 162 
Q 1900 75 1537 75 
Q 1175 75 912 162 
Q 650 250 475 425 
Q 300 600 237 837 
Q 175 1075 175 1375 
z
M 687 1400 
Q 675 1100 787 875 
Q 900 650 1200 587 
Q 1500 525 1825 600 
Q 2150 675 2275 950 
Q 2400 1225 2362 1500 
Q 2325 1775 2050 1962 
Q 1775 2150 1450 2125 
Q 1125 2100 912 1900 
Q 700 1700 687 1400 
z
M 775 3350 
Q 775 3100 950 2875 
Q 1125 2650 1500 2650 
Q 1875 2650 2062 2875 
Q 2250 3100 2237 3412 
Q 2225 3725 2012 3875 
Q 1800 4025 1437 4000 
Q 1075 3975 925 3787 
Q 775 3600 775 3350 
z
" transform="scale(0.015625)"/>
       </defs>
       <use xlink:href="#SimHei-30"/>
       <use xlink:href="#SimHei-2e" x="50"/>
       <use xlink:href="#SimHei-38" x="100"/>
      </g>
     </g>
    </g>
    <g id="xtick_6">
     <g id="line2d_11">
      <path d="M 522.983438 390.7825 
L 522.983438 51.39375 
" clip-path="url(#p261d2792ee)" style="fill: none; stroke: #b0b0b0; stroke-opacity: 0.3; stroke-width: 0.8; stroke-linecap: square"/>
     </g>
     <g id="line2d_12">
      <g>
       <use xlink:href="#mb145c05874" x="522.983438" y="390.7825" style="stroke: #000000; stroke-width: 0.8"/>
      </g>
     </g>
     <g id="text_6">
      <!-- 1.0 -->
      <g transform="translate(515.483438 404.6575) scale(0.1 -0.1)">
       <defs>
        <path id="SimHei-31" d="M 1400 3600 
Q 1075 3275 575 2975 
L 575 3450 
Q 1200 3875 1600 4450 
L 1900 4450 
L 1900 150 
L 1400 150 
L 1400 3600 
z
" transform="scale(0.015625)"/>
       </defs>
       <use xlink:href="#SimHei-31"/>
       <use xlink:href="#SimHei-2e" x="50"/>
       <use xlink:href="#SimHei-30" x="100"/>
      </g>
     </g>
    </g>
    <g id="text_7">
     <!-- 假正率 (False Positive Rate) -->
     <g transform="translate(212.603438 417.759062) scale(0.1 -0.1)">
      <defs>
       <path id="SimHei-5047" d="M 3800 4800 
Q 3775 4525 3775 3975 
Q 3775 3425 3800 3075 
L 2500 3075 
L 2500 2400 
L 3025 2400 
Q 3250 2400 3625 2425 
L 3625 1975 
Q 3250 2000 3025 2000 
L 2500 2000 
L 2500 1250 
L 2975 1250 
Q 3350 1250 3650 1275 
L 3650 825 
Q 3375 850 2975 850 
L 2500 850 
L 2500 -575 
L 2075 -575 
Q 2100 -175 2100 250 
L 2100 4050 
Q 2100 4575 2075 4800 
L 3800 4800 
z
M 5800 2525 
Q 5675 1375 5150 450 
Q 5600 -25 6150 -275 
Q 5950 -450 5800 -675 
Q 5400 -425 4875 125 
Q 4350 -375 3700 -675 
Q 3575 -450 3375 -275 
Q 4125 -50 4625 475 
Q 4250 1100 4050 2125 
L 3925 2100 
L 3925 2550 
Q 4225 2525 4800 2525 
L 5800 2525 
z
M 1075 2925 
Q 900 2550 650 2100 
Q 500 2250 250 2450 
Q 550 2700 912 3575 
Q 1275 4450 1400 5100 
Q 1650 4950 1975 4875 
Q 1875 4800 1762 4512 
Q 1650 4225 1500 3750 
L 1500 475 
Q 1500 -175 1525 -575 
L 1050 -575 
Q 1075 -125 1075 500 
L 1075 2925 
z
M 5775 4850 
Q 5750 4575 5737 3975 
Q 5725 3375 5775 3075 
L 5050 3075 
Q 4525 3075 4100 3050 
L 4100 3475 
Q 4500 3450 5025 3450 
L 5300 3450 
L 5300 4475 
L 5050 4475 
Q 4475 4475 4150 4450 
L 4150 4875 
Q 4500 4850 4950 4850 
L 5775 4850 
z
M 3350 3475 
L 3350 4400 
L 2500 4400 
L 2500 3475 
L 3350 3475 
z
M 4450 2125 
Q 4650 1200 4900 850 
Q 5225 1400 5300 2125 
L 4450 2125 
z
" transform="scale(0.015625)"/>
       <path id="SimHei-6b63" d="M 4825 4625 
Q 5300 4625 5675 4650 
L 5675 4150 
Q 5300 4175 4775 4175 
L 3575 4175 
L 3575 2600 
L 4850 2600 
Q 5250 2600 5550 2625 
L 5550 2150 
Q 5250 2175 4850 2175 
L 3575 2175 
L 3575 150 
L 4850 150 
Q 5375 150 5900 175 
L 5900 -325 
Q 5375 -300 4975 -300 
L 1175 -300 
Q 700 -300 375 -325 
L 375 175 
Q 700 150 1175 150 
L 1325 150 
L 1325 2350 
Q 1325 2800 1300 3125 
L 1875 3125 
Q 1850 2825 1850 2350 
L 1850 150 
L 3075 150 
L 3075 4175 
L 1625 4175 
Q 1150 4175 800 4150 
L 800 4650 
Q 1150 4625 1625 4625 
L 4825 4625 
z
" transform="scale(0.015625)"/>
       <path id="SimHei-7387" d="M 3325 5150 
Q 3425 4900 3550 4525 
L 4800 4525 
Q 5250 4525 5800 4550 
L 5800 4125 
Q 5250 4175 4775 4175 
L 2800 4175 
Q 2975 4050 3300 3900 
Q 3075 3750 2875 3537 
Q 2675 3325 2475 3125 
L 3275 3125 
Q 3575 3425 3775 3775 
Q 4000 3600 4275 3425 
Q 3950 3250 3600 2875 
Q 3250 2500 2625 2000 
L 3850 2100 
Q 3725 2250 3600 2425 
Q 3750 2475 4000 2650 
Q 4250 2350 4700 1700 
Q 4475 1625 4225 1450 
Q 4175 1600 4025 1775 
Q 3700 1750 3425 1750 
L 3425 1050 
L 5150 1050 
Q 5675 1050 6100 1075 
L 6100 650 
Q 5700 675 5125 675 
L 3425 675 
L 3425 175 
Q 3425 -300 3450 -625 
L 2900 -625 
Q 2925 -300 2925 175 
L 2925 675 
L 1325 675 
Q 825 675 325 650 
L 325 1075 
Q 825 1050 1350 1050 
L 2925 1050 
L 2925 1700 
Q 2700 1675 2475 1637 
Q 2250 1600 2025 1525 
Q 1950 1775 1850 2000 
Q 2075 2025 2325 2200 
Q 2575 2375 2975 2800 
Q 2300 2725 2025 2625 
Q 1975 2875 1850 3175 
Q 2075 3175 2325 3487 
Q 2575 3800 2750 4175 
L 1700 4175 
Q 1150 4175 650 4125 
L 650 4550 
Q 1150 4525 1550 4525 
L 2975 4525 
Q 2900 4825 2800 5025 
Q 3025 5075 3325 5150 
z
M 1625 2575 
Q 1725 2400 1825 2200 
Q 1575 2050 1325 1862 
Q 1075 1675 800 1425 
Q 625 1675 475 1875 
Q 800 2025 1100 2212 
Q 1400 2400 1625 2575 
z
M 4850 2650 
Q 5125 2475 5337 2337 
Q 5550 2200 5875 1950 
Q 5675 1800 5500 1600 
Q 5300 1775 5062 1975 
Q 4825 2175 4575 2325 
Q 4725 2475 4850 2650 
z
M 5725 3525 
Q 5550 3450 5300 3262 
Q 5050 3075 4800 2825 
Q 4625 3050 4475 3175 
Q 4700 3325 4875 3487 
Q 5050 3650 5300 3925 
Q 5525 3700 5725 3525 
z
M 1050 3850 
Q 1425 3600 1775 3275 
Q 1575 3100 1425 2925 
Q 1075 3300 675 3525 
Q 875 3700 1050 3850 
z
" transform="scale(0.015625)"/>
       <path id="SimHei-20" transform="scale(0.015625)"/>
       <path id="SimHei-28" d="M 2975 -200 
L 2700 -475 
Q 2075 125 1762 775 
Q 1450 1425 1450 2250 
Q 1450 3075 1762 3725 
Q 2075 4375 2700 5000 
L 2975 4725 
Q 2400 4175 2112 3587 
Q 1825 3000 1825 2250 
Q 1825 1500 2112 912 
Q 2400 325 2975 -200 
z
" transform="scale(0.015625)"/>
       <path id="SimHei-46" d="M 2925 3925 
L 875 3925 
L 875 2525 
L 2425 2525 
L 2425 2050 
L 875 2050 
L 875 125 
L 300 125 
L 300 4400 
L 2925 4400 
L 2925 3925 
z
" transform="scale(0.015625)"/>
       <path id="SimHei-61" d="M 2875 125 
L 2275 125 
Q 2225 175 2200 262 
Q 2175 350 2175 475 
Q 2000 275 1750 175 
Q 1500 75 1225 75 
Q 825 75 550 275 
Q 275 475 275 850 
Q 275 1225 525 1450 
Q 775 1675 1300 1750 
Q 1650 1800 1912 1875 
Q 2175 1950 2175 2075 
Q 2175 2225 2062 2375 
Q 1950 2525 1575 2525 
Q 1275 2525 1137 2412 
Q 1000 2300 950 2100 
L 400 2100 
Q 450 2500 762 2737 
Q 1075 2975 1575 2975 
Q 2125 2975 2400 2725 
Q 2675 2475 2675 2025 
L 2675 650 
Q 2675 500 2725 375 
Q 2775 250 2875 125 
z
M 2175 1050 
L 2175 1550 
Q 2025 1500 1887 1462 
Q 1750 1425 1425 1375 
Q 1050 1325 937 1200 
Q 825 1075 825 900 
Q 825 750 937 637 
Q 1050 525 1275 525 
Q 1500 525 1762 650 
Q 2025 775 2175 1050 
z
" transform="scale(0.015625)"/>
       <path id="SimHei-6c" d="M 1825 125 
L 1325 125 
L 1325 4400 
L 1825 4400 
L 1825 125 
z
" transform="scale(0.015625)"/>
       <path id="SimHei-73" d="M 2750 900 
Q 2750 500 2437 287 
Q 2125 75 1650 75 
Q 1050 75 725 312 
Q 400 550 400 1000 
L 900 1000 
Q 900 700 1112 600 
Q 1325 500 1625 500 
Q 1925 500 2075 612 
Q 2225 725 2225 900 
Q 2225 1025 2100 1150 
Q 1975 1275 1475 1350 
Q 900 1425 687 1637 
Q 475 1850 475 2200 
Q 475 2500 762 2737 
Q 1050 2975 1600 2975 
Q 2100 2975 2387 2750 
Q 2675 2525 2675 2150 
L 2175 2150 
Q 2175 2375 2012 2462 
Q 1850 2550 1600 2550 
Q 1275 2550 1137 2437 
Q 1000 2325 1000 2175 
Q 1000 2000 1125 1900 
Q 1250 1800 1650 1750 
Q 2300 1650 2525 1437 
Q 2750 1225 2750 900 
z
" transform="scale(0.015625)"/>
       <path id="SimHei-65" d="M 2850 1075 
Q 2800 625 2450 350 
Q 2100 75 1625 75 
Q 1025 75 637 462 
Q 250 850 250 1525 
Q 250 2200 637 2587 
Q 1025 2975 1625 2975 
Q 2150 2975 2487 2637 
Q 2825 2300 2825 1525 
L 800 1525 
Q 800 975 1037 750 
Q 1275 525 1625 525 
Q 1900 525 2075 662 
Q 2250 800 2300 1075 
L 2850 1075 
z
M 2250 1925 
Q 2200 2275 2025 2412 
Q 1850 2550 1575 2550 
Q 1325 2550 1125 2412 
Q 925 2275 825 1925 
L 2250 1925 
z
" transform="scale(0.015625)"/>
       <path id="SimHei-50" d="M 2950 3100 
Q 2950 2500 2600 2150 
Q 2250 1800 1625 1800 
L 900 1800 
L 900 125 
L 325 125 
L 325 4400 
L 1625 4400 
Q 2250 4400 2600 4050 
Q 2950 3700 2950 3100 
z
M 2375 3100 
Q 2375 3575 2150 3750 
Q 1925 3925 1475 3925 
L 900 3925 
L 900 2275 
L 1475 2275 
Q 1925 2275 2150 2450 
Q 2375 2625 2375 3100 
z
" transform="scale(0.015625)"/>
       <path id="SimHei-6f" d="M 2925 1525 
Q 2925 875 2525 475 
Q 2125 75 1575 75 
Q 1025 75 625 475 
Q 225 875 225 1525 
Q 225 2175 625 2575 
Q 1025 2975 1575 2975 
Q 2125 2975 2525 2575 
Q 2925 2175 2925 1525 
z
M 2375 1525 
Q 2375 2025 2125 2275 
Q 1875 2525 1575 2525 
Q 1275 2525 1025 2275 
Q 775 2025 775 1525 
Q 775 1025 1025 775 
Q 1275 525 1575 525 
Q 1875 525 2125 775 
Q 2375 1025 2375 1525 
z
" transform="scale(0.015625)"/>
       <path id="SimHei-69" d="M 1800 3725 
L 1300 3725 
L 1300 4375 
L 1800 4375 
L 1800 3725 
z
M 1800 125 
L 1300 125 
L 1300 2925 
L 1800 2925 
L 1800 125 
z
" transform="scale(0.015625)"/>
       <path id="SimHei-74" d="M 2750 200 
Q 2625 150 2462 112 
Q 2300 75 2025 75 
Q 1575 75 1300 325 
Q 1025 575 1025 1025 
L 1025 2525 
L 175 2525 
L 175 2925 
L 1025 2925 
L 1025 3900 
L 1525 3900 
L 1525 2925 
L 2550 2925 
L 2550 2525 
L 1525 2525 
L 1525 1000 
Q 1525 800 1625 662 
Q 1725 525 2000 525 
Q 2275 525 2450 575 
Q 2625 625 2750 700 
L 2750 200 
z
" transform="scale(0.015625)"/>
       <path id="SimHei-76" d="M 2875 2925 
L 1825 75 
L 1275 75 
L 225 2925 
L 750 2925 
L 1525 750 
L 1575 750 
L 2350 2925 
L 2875 2925 
z
" transform="scale(0.015625)"/>
       <path id="SimHei-52" d="M 3000 125 
L 2400 125 
L 1500 1975 
L 850 1975 
L 850 125 
L 275 125 
L 275 4400 
L 1525 4400 
Q 2125 4400 2500 4112 
Q 2875 3825 2875 3175 
Q 2875 2675 2625 2400 
Q 2375 2125 2050 2050 
L 3000 125 
z
M 2300 3175 
Q 2300 3525 2087 3725 
Q 1875 3925 1400 3925 
L 850 3925 
L 850 2450 
L 1550 2450 
Q 1850 2450 2075 2612 
Q 2300 2775 2300 3175 
z
" transform="scale(0.015625)"/>
       <path id="SimHei-29" d="M 1675 2250 
Q 1675 1425 1362 775 
Q 1050 125 425 -475 
L 150 -200 
Q 725 325 1012 912 
Q 1300 1500 1300 2250 
Q 1300 3000 1012 3587 
Q 725 4175 150 4725 
L 425 5000 
Q 1050 4375 1362 3725 
Q 1675 3075 1675 2250 
z
" transform="scale(0.015625)"/>
      </defs>
      <use xlink:href="#SimHei-5047"/>
      <use xlink:href="#SimHei-6b63" x="100"/>
      <use xlink:href="#SimHei-7387" x="200"/>
      <use xlink:href="#SimHei-20" x="300"/>
      <use xlink:href="#SimHei-28" x="350"/>
      <use xlink:href="#SimHei-46" x="400"/>
      <use xlink:href="#SimHei-61" x="450"/>
      <use xlink:href="#SimHei-6c" x="500"/>
      <use xlink:href="#SimHei-73" x="550"/>
      <use xlink:href="#SimHei-65" x="600"/>
      <use xlink:href="#SimHei-20" x="650"/>
      <use xlink:href="#SimHei-50" x="700"/>
      <use xlink:href="#SimHei-6f" x="750"/>
      <use xlink:href="#SimHei-73" x="800"/>
      <use xlink:href="#SimHei-69" x="850"/>
      <use xlink:href="#SimHei-74" x="900"/>
      <use xlink:href="#SimHei-69" x="950"/>
      <use xlink:href="#SimHei-76" x="1000"/>
      <use xlink:href="#SimHei-65" x="1050"/>
      <use xlink:href="#SimHei-20" x="1100"/>
      <use xlink:href="#SimHei-52" x="1150"/>
      <use xlink:href="#SimHei-61" x="1200"/>
      <use xlink:href="#SimHei-74" x="1250"/>
      <use xlink:href="#SimHei-65" x="1300"/>
      <use xlink:href="#SimHei-29" x="1350"/>
     </g>
    </g>
   </g>
   <g id="matplotlib.axis_2">
    <g id="ytick_1">
     <g id="line2d_13">
      <path d="M 42.223438 390.7825 
L 522.983438 390.7825 
" clip-path="url(#p261d2792ee)" style="fill: none; stroke: #b0b0b0; stroke-opacity: 0.3; stroke-width: 0.8; stroke-linecap: square"/>
     </g>
     <g id="line2d_14">
      <defs>
       <path id="mca71788daa" d="M 0 0 
L -3.5 0 
" style="stroke: #000000; stroke-width: 0.8"/>
      </defs>
      <g>
       <use xlink:href="#mca71788daa" x="42.223438" y="390.7825" style="stroke: #000000; stroke-width: 0.8"/>
      </g>
     </g>
     <g id="text_8">
      <!-- 0.0 -->
      <g transform="translate(20.223438 394.22) scale(0.1 -0.1)">
       <use xlink:href="#SimHei-30"/>
       <use xlink:href="#SimHei-2e" x="50"/>
       <use xlink:href="#SimHei-30" x="100"/>
      </g>
     </g>
    </g>
    <g id="ytick_2">
     <g id="line2d_15">
      <path d="M 42.223438 326.137024 
L 522.983438 326.137024 
" clip-path="url(#p261d2792ee)" style="fill: none; stroke: #b0b0b0; stroke-opacity: 0.3; stroke-width: 0.8; stroke-linecap: square"/>
     </g>
     <g id="line2d_16">
      <g>
       <use xlink:href="#mca71788daa" x="42.223438" y="326.137024" style="stroke: #000000; stroke-width: 0.8"/>
      </g>
     </g>
     <g id="text_9">
      <!-- 0.2 -->
      <g transform="translate(20.223438 329.574524) scale(0.1 -0.1)">
       <use xlink:href="#SimHei-30"/>
       <use xlink:href="#SimHei-2e" x="50"/>
       <use xlink:href="#SimHei-32" x="100"/>
      </g>
     </g>
    </g>
    <g id="ytick_3">
     <g id="line2d_17">
      <path d="M 42.223438 261.491548 
L 522.983438 261.491548 
" clip-path="url(#p261d2792ee)" style="fill: none; stroke: #b0b0b0; stroke-opacity: 0.3; stroke-width: 0.8; stroke-linecap: square"/>
     </g>
     <g id="line2d_18">
      <g>
       <use xlink:href="#mca71788daa" x="42.223438" y="261.491548" style="stroke: #000000; stroke-width: 0.8"/>
      </g>
     </g>
     <g id="text_10">
      <!-- 0.4 -->
      <g transform="translate(20.223438 264.929048) scale(0.1 -0.1)">
       <use xlink:href="#SimHei-30"/>
       <use xlink:href="#SimHei-2e" x="50"/>
       <use xlink:href="#SimHei-34" x="100"/>
      </g>
     </g>
    </g>
    <g id="ytick_4">
     <g id="line2d_19">
      <path d="M 42.223438 196.846071 
L 522.983438 196.846071 
" clip-path="url(#p261d2792ee)" style="fill: none; stroke: #b0b0b0; stroke-opacity: 0.3; stroke-width: 0.8; stroke-linecap: square"/>
     </g>
     <g id="line2d_20">
      <g>
       <use xlink:href="#mca71788daa" x="42.223438" y="196.846071" style="stroke: #000000; stroke-width: 0.8"/>
      </g>
     </g>
     <g id="text_11">
      <!-- 0.6 -->
      <g transform="translate(20.223438 200.283571) scale(0.1 -0.1)">
       <use xlink:href="#SimHei-30"/>
       <use xlink:href="#SimHei-2e" x="50"/>
       <use xlink:href="#SimHei-36" x="100"/>
      </g>
     </g>
    </g>
    <g id="ytick_5">
     <g id="line2d_21">
      <path d="M 42.223438 132.200595 
L 522.983438 132.200595 
" clip-path="url(#p261d2792ee)" style="fill: none; stroke: #b0b0b0; stroke-opacity: 0.3; stroke-width: 0.8; stroke-linecap: square"/>
     </g>
     <g id="line2d_22">
      <g>
       <use xlink:href="#mca71788daa" x="42.223438" y="132.200595" style="stroke: #000000; stroke-width: 0.8"/>
      </g>
     </g>
     <g id="text_12">
      <!-- 0.8 -->
      <g transform="translate(20.223438 135.638095) scale(0.1 -0.1)">
       <use xlink:href="#SimHei-30"/>
       <use xlink:href="#SimHei-2e" x="50"/>
       <use xlink:href="#SimHei-38" x="100"/>
      </g>
     </g>
    </g>
    <g id="ytick_6">
     <g id="line2d_23">
      <path d="M 42.223438 67.555119 
L 522.983438 67.555119 
" clip-path="url(#p261d2792ee)" style="fill: none; stroke: #b0b0b0; stroke-opacity: 0.3; stroke-width: 0.8; stroke-linecap: square"/>
     </g>
     <g id="line2d_24">
      <g>
       <use xlink:href="#mca71788daa" x="42.223438" y="67.555119" style="stroke: #000000; stroke-width: 0.8"/>
      </g>
     </g>
     <g id="text_13">
      <!-- 1.0 -->
      <g transform="translate(20.223438 70.992619) scale(0.1 -0.1)">
       <use xlink:href="#SimHei-31"/>
       <use xlink:href="#SimHei-2e" x="50"/>
       <use xlink:href="#SimHei-30" x="100"/>
      </g>
     </g>
    </g>
    <g id="text_14">
     <!-- 真正率 (True Positive Rate) -->
     <g transform="translate(14.973437 288.588125) rotate(-90) scale(0.1 -0.1)">
      <defs>
       <path id="SimHei-771f" d="M 3550 5100 
Q 3450 4925 3400 4625 
L 4850 4625 
Q 5175 4625 5725 4650 
L 5725 4250 
Q 5200 4275 4850 4275 
L 3350 4275 
L 3300 3850 
L 5050 3850 
Q 5025 3550 5025 3150 
L 5025 1075 
L 5400 1075 
Q 5800 1075 6075 1100 
L 6075 625 
Q 5575 650 4900 650 
L 1450 650 
Q 775 650 350 625 
L 350 1100 
Q 725 1075 1100 1075 
L 1425 1075 
L 1425 3075 
Q 1425 3450 1400 3850 
L 2825 3850 
L 2850 4275 
L 1400 4275 
Q 1050 4275 625 4250 
L 625 4650 
Q 1175 4625 1375 4625 
L 2925 4625 
Q 2950 4875 2950 5125 
Q 3300 5100 3550 5100 
z
M 4075 525 
Q 4500 425 4925 250 
Q 5350 75 5825 -150 
Q 5550 -425 5450 -575 
Q 5025 -300 4550 -100 
Q 4075 100 3800 175 
Q 3925 350 4075 525 
z
M 4525 3150 
L 4525 3475 
L 1925 3475 
L 1925 3150 
L 4525 3150 
z
M 4525 1075 
L 4525 1400 
L 1925 1400 
L 1925 1075 
L 4525 1075 
z
M 2775 200 
Q 2375 -25 1875 -225 
Q 1375 -425 950 -575 
Q 775 -400 600 -250 
Q 1225 -50 1625 137 
Q 2025 325 2350 525 
Q 2550 350 2775 200 
z
M 4525 1775 
L 4525 2075 
L 1925 2075 
L 1925 1775 
L 4525 1775 
z
M 4525 2475 
L 4525 2775 
L 1925 2775 
L 1925 2475 
L 4525 2475 
z
" transform="scale(0.015625)"/>
       <path id="SimHei-54" d="M 2850 3925 
L 1850 3925 
L 1850 125 
L 1275 125 
L 1275 3925 
L 275 3925 
L 275 4400 
L 2850 4400 
L 2850 3925 
z
" transform="scale(0.015625)"/>
       <path id="SimHei-72" d="M 2500 2425 
Q 2025 2500 1700 2287 
Q 1375 2075 1150 1550 
L 1150 125 
L 650 125 
L 650 2925 
L 1150 2925 
L 1150 2200 
Q 1375 2600 1712 2787 
Q 2050 2975 2500 2975 
L 2500 2425 
z
" transform="scale(0.015625)"/>
       <path id="SimHei-75" d="M 2800 125 
L 2300 125 
L 2300 650 
Q 2100 375 1862 225 
Q 1625 75 1250 75 
Q 800 75 575 325 
Q 350 575 350 950 
L 350 2925 
L 850 2925 
L 850 1125 
Q 850 825 1000 650 
Q 1150 475 1400 475 
Q 1725 475 2012 812 
Q 2300 1150 2300 1650 
L 2300 2925 
L 2800 2925 
L 2800 125 
z
" transform="scale(0.015625)"/>
      </defs>
      <use xlink:href="#SimHei-771f"/>
      <use xlink:href="#SimHei-6b63" x="100"/>
      <use xlink:href="#SimHei-7387" x="200"/>
      <use xlink:href="#SimHei-20" x="300"/>
      <use xlink:href="#SimHei-28" x="350"/>
      <use xlink:href="#SimHei-54" x="400"/>
      <use xlink:href="#SimHei-72" x="450"/>
      <use xlink:href="#SimHei-75" x="500"/>
      <use xlink:href="#SimHei-65" x="550"/>
      <use xlink:href="#SimHei-20" x="600"/>
      <use xlink:href="#SimHei-50" x="650"/>
      <use xlink:href="#SimHei-6f" x="700"/>
      <use xlink:href="#SimHei-73" x="750"/>
      <use xlink:href="#SimHei-69" x="800"/>
      <use xlink:href="#SimHei-74" x="850"/>
      <use xlink:href="#SimHei-69" x="900"/>
      <use xlink:href="#SimHei-76" x="950"/>
      <use xlink:href="#SimHei-65" x="1000"/>
      <use xlink:href="#SimHei-20" x="1050"/>
      <use xlink:href="#SimHei-52" x="1100"/>
      <use xlink:href="#SimHei-61" x="1150"/>
      <use xlink:href="#SimHei-74" x="1200"/>
      <use xlink:href="#SimHei-65" x="1250"/>
      <use xlink:href="#SimHei-29" x="1300"/>
     </g>
    </g>
   </g>
   <g id="line2d_25">
    <path d="M 42.223438 390.7825 
L 53.403903 390.7825 
L 98.125763 390.7825 
L 98.125763 344.60716 
L 154.028089 344.60716 
L 154.028089 298.43182 
L 187.569484 298.43182 
L 187.569484 252.25648 
L 254.652275 252.25648 
L 254.652275 206.081139 
L 344.095996 206.081139 
L 344.095996 159.905799 
L 388.817856 159.905799 
L 388.817856 113.730459 
L 444.720182 113.730459 
L 444.720182 67.555119 
L 522.983438 67.555119 
" clip-path="url(#p261d2792ee)" style="fill: none; stroke: #0000ff; stroke-width: 2; stroke-linecap: square"/>
   </g>
   <g id="line2d_26">
    <path d="M 42.223438 390.7825 
L 54.242438 390.7825 
L 246.546438 390.7825 
L 246.546438 358.459762 
L 330.679438 358.459762 
L 330.679438 326.137024 
L 390.774438 326.137024 
L 390.774438 293.814286 
L 414.812438 293.814286 
L 414.812438 261.491548 
L 426.831438 261.491548 
L 426.831438 229.16881 
L 438.850437 229.16881 
L 438.850437 196.846071 
L 474.907438 196.846071 
L 474.907438 99.877857 
L 486.926438 99.877857 
L 486.926438 67.555119 
L 522.983438 67.555119 
" clip-path="url(#p261d2792ee)" style="fill: none; stroke: #ff0000; stroke-width: 2; stroke-linecap: square"/>
   </g>
   <g id="line2d_27">
    <path d="M 42.223438 390.7825 
L 54.242438 390.7825 
L 54.242438 358.459762 
L 102.318438 358.459762 
L 102.318438 326.137024 
L 114.337438 326.137024 
L 114.337438 261.491548 
L 294.622438 261.491548 
L 294.622438 229.16881 
L 354.717438 229.16881 
L 354.717438 196.846071 
L 426.831438 196.846071 
L 426.831438 164.523333 
L 474.907438 164.523333 
L 474.907438 132.200595 
L 498.945438 132.200595 
L 498.945438 99.877857 
L 510.964438 99.877857 
L 510.964438 67.555119 
L 522.983438 67.555119 
" clip-path="url(#p261d2792ee)" style="fill: none; stroke: #008000; stroke-width: 2; stroke-linecap: square"/>
   </g>
   <g id="line2d_28">
    <path d="M 42.223438 390.7825 
L 55.216951 390.7825 
L 55.216951 365.918855 
L 94.197492 365.918855 
L 94.197492 266.464277 
L 107.191005 266.464277 
L 107.191005 241.600632 
L 159.165059 241.600632 
L 159.165059 216.736987 
L 237.12614 216.736987 
L 237.12614 191.873342 
L 393.048302 191.873342 
L 393.048302 167.009698 
L 432.028843 167.009698 
L 432.028843 142.146053 
L 458.01587 142.146053 
L 458.01587 117.282408 
L 471.009383 117.282408 
L 471.009383 92.418764 
L 484.002897 92.418764 
L 484.002897 67.555119 
L 522.983438 67.555119 
" clip-path="url(#p261d2792ee)" style="fill: none; stroke: #ffa500; stroke-width: 2; stroke-linecap: square"/>
   </g>
   <g id="line2d_29">
    <path d="M 42.223438 390.7825 
L 54.242438 390.7825 
L 270.584438 390.7825 
L 270.584438 358.459762 
L 294.622438 358.459762 
L 294.622438 326.137024 
L 318.660438 326.137024 
L 318.660438 293.814286 
L 354.717438 293.814286 
L 354.717438 261.491548 
L 366.736438 261.491548 
L 366.736438 229.16881 
L 414.812438 229.16881 
L 414.812438 132.200595 
L 450.869438 132.200595 
L 450.869438 99.877857 
L 510.964438 99.877857 
L 510.964438 67.555119 
L 522.983438 67.555119 
" clip-path="url(#p261d2792ee)" style="fill: none; stroke: #800080; stroke-width: 2; stroke-linecap: square"/>
   </g>
   <g id="line2d_30">
    <path d="M 42.223438 390.7825 
L 522.983438 67.555119 
" clip-path="url(#p261d2792ee)" style="fill: none; stroke-dasharray: 7.4,3.2; stroke-dashoffset: 0; stroke: #000000; stroke-width: 2"/>
   </g>
   <g id="patch_3">
    <path d="M 42.223438 390.7825 
L 42.223438 51.39375 
" style="fill: none; stroke: #000000; stroke-width: 0.8; stroke-linejoin: miter; stroke-linecap: square"/>
   </g>
   <g id="patch_4">
    <path d="M 522.983438 390.7825 
L 522.983438 51.39375 
" style="fill: none; stroke: #000000; stroke-width: 0.8; stroke-linejoin: miter; stroke-linecap: square"/>
   </g>
   <g id="patch_5">
    <path d="M 42.223438 390.7825 
L 522.983438 390.7825 
" style="fill: none; stroke: #000000; stroke-width: 0.8; stroke-linejoin: miter; stroke-linecap: square"/>
   </g>
   <g id="patch_6">
    <path d="M 42.223438 51.39375 
L 522.983438 51.39375 
" style="fill: none; stroke: #000000; stroke-width: 0.8; stroke-linejoin: miter; stroke-linecap: square"/>
   </g>
   <g id="text_15">
    <!-- 各类别ROC曲线 -->
    <g transform="translate(243.603438 45.39375) scale(0.12 -0.12)">
     <defs>
      <path id="SimHei-5404" d="M 5100 4425 
Q 4850 4000 4525 3600 
Q 4200 3200 3675 2750 
Q 4050 2500 4750 2325 
Q 5450 2150 6050 2125 
Q 5825 1825 5775 1600 
Q 5050 1750 4412 1962 
Q 3775 2175 3300 2475 
Q 2750 2150 2000 1875 
Q 1250 1600 550 1425 
Q 475 1625 275 1850 
Q 900 1950 1662 2200 
Q 2425 2450 2950 2750 
Q 2525 3150 2100 3900 
Q 1900 3575 1675 3300 
Q 1450 3025 1250 2800 
Q 1050 3000 850 3100 
Q 1200 3400 1587 3950 
Q 1975 4500 2175 5225 
Q 2450 5075 2725 5000 
Q 2600 4850 2375 4425 
L 5100 4425 
z
M 4975 1675 
Q 4950 1125 4950 400 
Q 4950 -325 4975 -575 
L 4475 -575 
L 4475 -225 
L 2050 -225 
L 2050 -625 
L 1550 -625 
Q 1575 -275 1575 400 
Q 1575 1075 1550 1675 
L 4975 1675 
z
M 4475 200 
L 4475 1250 
L 2050 1250 
L 2050 200 
L 4475 200 
z
M 3325 3000 
Q 3875 3450 4300 4025 
L 2500 4025 
Q 2975 3275 3325 3000 
z
" transform="scale(0.015625)"/>
      <path id="SimHei-7c7b" d="M 2125 3875 
Q 1750 4375 1325 4725 
Q 1525 4875 1675 5050 
L 2525 4225 
Q 2400 4125 2200 3875 
L 3025 3875 
L 3025 4550 
Q 3025 4900 3000 5125 
L 3525 5125 
Q 3500 4850 3500 4550 
L 3500 3875 
L 4325 3875 
Q 4125 4050 4000 4150 
Q 4450 4575 4800 5175 
Q 5000 5000 5275 4825 
Q 5100 4675 4912 4475 
Q 4725 4275 4400 3875 
L 5025 3875 
Q 5425 3875 5900 3900 
L 5900 3450 
Q 5425 3475 5025 3475 
L 3500 3475 
L 3500 3050 
Q 3500 2650 3525 2175 
L 3175 2175 
Q 3475 2075 3675 2000 
Q 3575 1875 3525 1575 
L 5025 1575 
Q 5525 1575 6025 1600 
L 6025 1150 
Q 5550 1175 5050 1175 
L 3675 1175 
Q 4050 600 4712 275 
Q 5375 -50 6050 -175 
Q 5850 -350 5725 -675 
Q 4975 -450 4350 -37 
Q 3725 375 3300 950 
Q 3050 350 2425 -50 
Q 1800 -450 775 -700 
Q 650 -425 475 -225 
Q 1375 -100 2012 225 
Q 2650 550 2900 1175 
L 1625 1175 
Q 1025 1175 525 1150 
L 525 1600 
Q 950 1575 1600 1575 
L 3025 1575 
Q 3075 1825 3100 2175 
L 3000 2175 
Q 3025 2675 3025 3050 
L 3025 3325 
Q 2725 2900 2237 2550 
Q 1750 2200 925 1825 
Q 850 2025 625 2275 
Q 1175 2400 1725 2737 
Q 2275 3075 2600 3475 
L 1550 3475 
Q 1050 3475 600 3425 
L 600 3900 
Q 1075 3875 1550 3875 
L 2125 3875 
z
M 4100 3450 
Q 4850 3000 5800 2350 
Q 5575 2125 5425 1925 
Q 4700 2550 3825 3075 
Q 3975 3250 4100 3450 
z
" transform="scale(0.015625)"/>
      <path id="SimHei-522b" d="M 3275 4950 
Q 3250 4600 3250 3925 
Q 3250 3250 3275 2975 
L 800 2975 
Q 825 3275 825 3975 
Q 825 4700 800 4950 
L 3275 4950 
z
M 1650 2125 
Q 1650 2400 1625 2925 
Q 1950 2875 2225 2850 
Q 2150 2625 2125 2125 
L 3600 2125 
Q 3575 1850 3575 1375 
L 3525 125 
Q 3500 -275 3200 -400 
Q 2900 -525 2475 -600 
Q 2375 -275 2250 -25 
Q 2725 -25 2900 25 
Q 3075 75 3075 325 
L 3125 1675 
L 2100 1675 
Q 2025 875 1737 400 
Q 1450 -75 650 -675 
Q 475 -400 250 -225 
Q 900 125 1237 575 
Q 1575 1025 1600 1675 
L 1125 1675 
Q 825 1675 450 1650 
L 450 2150 
Q 800 2125 1125 2125 
L 1650 2125 
z
M 5800 5125 
Q 5775 4875 5775 4375 
L 5775 175 
Q 5775 -350 5525 -450 
Q 5275 -550 4700 -650 
Q 4625 -350 4475 -75 
Q 5000 -75 5150 -12 
Q 5300 50 5300 325 
L 5300 4375 
Q 5300 4825 5275 5125 
L 5800 5125 
z
M 4600 4400 
Q 4575 4100 4575 3700 
L 4575 1600 
Q 4575 1125 4600 725 
L 4075 725 
Q 4100 1125 4100 1600 
L 4100 3700 
Q 4100 4100 4075 4400 
L 4600 4400 
z
M 2775 3425 
L 2775 4500 
L 1300 4500 
L 1300 3425 
L 2775 3425 
z
" transform="scale(0.015625)"/>
      <path id="SimHei-4f" d="M 2950 2275 
Q 2950 1100 2587 587 
Q 2225 75 1575 75 
Q 925 75 550 587 
Q 175 1100 175 2275 
Q 175 3450 550 3950 
Q 925 4450 1575 4450 
Q 2225 4450 2587 3950 
Q 2950 3450 2950 2275 
z
M 2350 2275 
Q 2350 3325 2125 3650 
Q 1900 3975 1575 3975 
Q 1250 3975 1012 3650 
Q 775 3325 775 2275 
Q 775 1225 1012 887 
Q 1250 550 1575 550 
Q 1900 550 2125 887 
Q 2350 1225 2350 2275 
z
" transform="scale(0.015625)"/>
      <path id="SimHei-43" d="M 2975 1825 
Q 2950 875 2575 475 
Q 2200 75 1675 75 
Q 1075 75 650 562 
Q 225 1050 225 2125 
Q 225 3300 637 3875 
Q 1050 4450 1700 4450 
Q 2250 4450 2612 4037 
Q 2975 3625 2950 2875 
L 2400 2875 
Q 2400 3425 2225 3700 
Q 2050 3975 1700 3975 
Q 1300 3975 1062 3562 
Q 825 3150 825 2175 
Q 825 1275 1062 912 
Q 1300 550 1675 550 
Q 1950 550 2175 812 
Q 2400 1075 2400 1825 
L 2975 1825 
z
" transform="scale(0.015625)"/>
      <path id="SimHei-66f2" d="M 5825 500 
Q 5825 -200 5850 -550 
L 5275 -550 
L 5275 -50 
L 1150 -50 
L 1150 -550 
L 575 -550 
Q 600 125 600 550 
L 600 2775 
Q 600 3425 575 3900 
L 2150 3900 
L 2150 4450 
Q 2125 4850 2125 5150 
L 2700 5150 
Q 2650 4825 2650 4475 
L 2650 3900 
L 3700 3900 
L 3700 4525 
Q 3700 4850 3675 5175 
L 4250 5175 
Q 4225 4875 4225 4550 
L 4225 3900 
L 5850 3900 
Q 5825 3525 5825 2750 
L 5825 500 
z
M 3700 325 
L 3700 1875 
L 2650 1875 
L 2650 325 
L 3700 325 
z
M 5275 325 
L 5275 1875 
L 4225 1875 
L 4225 325 
L 5275 325 
z
M 2150 325 
L 2150 1875 
L 1150 1875 
L 1150 325 
L 2150 325 
z
M 3700 2250 
L 3700 3525 
L 2650 3525 
L 2650 2250 
L 3700 2250 
z
M 5275 2250 
L 5275 3525 
L 4225 3525 
L 4225 2250 
L 5275 2250 
z
M 2150 2250 
L 2150 3525 
L 1150 3525 
L 1150 2250 
L 2150 2250 
z
" transform="scale(0.015625)"/>
      <path id="SimHei-7ebf" d="M 3450 4300 
Q 3450 4675 3375 5125 
Q 3700 5100 4050 5050 
Q 3975 4900 3950 4562 
Q 3925 4225 3950 3600 
L 4800 3750 
Q 5225 3850 5650 3975 
L 5750 3500 
Q 5325 3450 4875 3375 
L 3975 3200 
Q 3975 2800 4025 2500 
L 5000 2675 
Q 5500 2775 5950 2925 
L 6025 2450 
Q 5575 2375 5075 2275 
L 4100 2100 
Q 4150 1600 4350 1175 
Q 4575 1350 4787 1575 
Q 5000 1800 5175 2075 
Q 5550 1775 5750 1675 
Q 5425 1525 5237 1337 
Q 5050 1150 4625 750 
Q 4925 250 5162 112 
Q 5400 -25 5500 100 
Q 5600 225 5675 625 
Q 5900 450 6200 350 
Q 5775 -750 5275 -537 
Q 4775 -325 4225 450 
Q 3875 175 3537 -62 
Q 3200 -300 2700 -550 
Q 2575 -300 2325 -100 
Q 2825 75 3175 275 
Q 3525 475 3975 850 
Q 3750 1350 3650 2025 
Q 2900 1900 2600 1800 
L 2525 2275 
Q 2825 2275 3550 2425 
Q 3500 2825 3500 3100 
Q 2825 2950 2575 2875 
L 2475 3350 
Q 2725 3350 3450 3500 
L 3450 4300 
z
M 1950 4875 
Q 1700 4650 1462 4237 
Q 1225 3825 825 3225 
Q 1425 3250 1650 3250 
Q 1875 3625 2050 4075 
Q 2300 3900 2600 3800 
Q 2350 3550 2087 3125 
Q 1825 2700 1175 1675 
Q 1850 1725 2375 1775 
Q 2300 1525 2300 1350 
Q 2125 1350 1525 1287 
Q 925 1225 550 1125 
Q 525 1375 400 1650 
Q 700 1725 950 2050 
Q 1200 2375 1475 2875 
Q 650 2825 425 2675 
Q 350 2950 200 3225 
Q 525 3450 825 3962 
Q 1125 4475 1375 5150 
Q 1625 4975 1950 4875 
z
M 2575 875 
Q 2550 600 2575 450 
Q 1950 325 1450 200 
Q 950 75 525 -75 
Q 450 200 250 475 
Q 950 550 1325 612 
Q 1700 675 2575 875 
z
M 4850 4025 
Q 4675 4300 4375 4675 
L 4775 4875 
Q 4875 4750 5275 4275 
Q 5025 4175 4850 4025 
z
" transform="scale(0.015625)"/>
     </defs>
     <use xlink:href="#SimHei-5404"/>
     <use xlink:href="#SimHei-7c7b" x="100"/>
     <use xlink:href="#SimHei-522b" x="200"/>
     <use xlink:href="#SimHei-52" x="300"/>
     <use xlink:href="#SimHei-4f" x="350"/>
     <use xlink:href="#SimHei-43" x="400"/>
     <use xlink:href="#SimHei-66f2" x="450"/>
     <use xlink:href="#SimHei-7ebf" x="550"/>
    </g>
   </g>
   <g id="legend_1">
    <g id="patch_7">
     <path d="M 388.983438 385.7825 
L 515.983438 385.7825 
Q 517.983438 385.7825 517.983438 383.7825 
L 517.983438 313.884062 
Q 517.983438 311.884062 515.983438 311.884062 
L 388.983438 311.884062 
Q 386.983438 311.884062 386.983438 313.884062 
L 386.983438 383.7825 
Q 386.983438 385.7825 388.983438 385.7825 
z
" style="fill: #ffffff; opacity: 0.8; stroke: #cccccc; stroke-linejoin: miter"/>
    </g>
    <g id="line2d_31">
     <path d="M 390.983438 320.31375 
L 400.983438 320.31375 
L 410.983438 320.31375 
" style="fill: none; stroke: #0000ff; stroke-width: 2; stroke-linecap: square"/>
    </g>
    <g id="text_16">
     <!-- 类别 1 (AUC = 0.53) -->
     <g transform="translate(418.983438 323.81375) scale(0.1 -0.1)">
      <defs>
       <path id="SimHei-41" d="M 3075 125 
L 2475 125 
L 2125 1450 
L 1025 1450 
L 675 125 
L 75 125 
L 1325 4450 
L 1825 4450 
L 3075 125 
z
M 2000 1925 
L 1600 3450 
L 1550 3450 
L 1150 1925 
L 2000 1925 
z
" transform="scale(0.015625)"/>
       <path id="SimHei-55" d="M 2875 1375 
Q 2875 775 2562 425 
Q 2250 75 1575 75 
Q 900 75 587 425 
Q 275 775 275 1375 
L 275 4400 
L 850 4400 
L 850 1375 
Q 850 950 1050 750 
Q 1250 550 1575 550 
Q 1900 550 2100 750 
Q 2300 950 2300 1375 
L 2300 4400 
L 2875 4400 
L 2875 1375 
z
" transform="scale(0.015625)"/>
       <path id="SimHei-3d" d="M 2975 2900 
L 125 2900 
L 125 3300 
L 2975 3300 
L 2975 2900 
z
M 2975 1375 
L 125 1375 
L 125 1775 
L 2975 1775 
L 2975 1375 
z
" transform="scale(0.015625)"/>
       <path id="SimHei-35" d="M 550 1325 
Q 725 650 1150 575 
Q 1575 500 1837 662 
Q 2100 825 2212 1087 
Q 2325 1350 2312 1675 
Q 2300 2000 2137 2225 
Q 1975 2450 1725 2525 
Q 1475 2600 1162 2525 
Q 850 2450 650 2175 
L 225 2225 
Q 275 2375 700 4375 
L 2675 4375 
L 2675 3925 
L 1075 3925 
Q 950 3250 825 2850 
Q 1200 3025 1525 3012 
Q 1850 3000 2150 2862 
Q 2450 2725 2587 2487 
Q 2725 2250 2787 2012 
Q 2850 1775 2837 1500 
Q 2825 1225 2725 937 
Q 2625 650 2425 462 
Q 2225 275 1937 162 
Q 1650 50 1275 75 
Q 900 100 562 350 
Q 225 600 100 1200 
L 550 1325 
z
" transform="scale(0.015625)"/>
       <path id="SimHei-33" d="M 250 1225 
L 700 1300 
Q 800 975 1025 762 
Q 1250 550 1587 562 
Q 1925 575 2125 837 
Q 2325 1100 2300 1437 
Q 2275 1775 2037 1962 
Q 1800 2150 1275 2225 
L 1275 2550 
Q 1800 2600 2037 2825 
Q 2275 3050 2250 3412 
Q 2225 3775 1925 3937 
Q 1625 4100 1287 3975 
Q 950 3850 750 3275 
L 300 3350 
Q 450 3800 712 4100 
Q 975 4400 1425 4450 
Q 1875 4500 2212 4337 
Q 2550 4175 2687 3837 
Q 2825 3500 2725 3100 
Q 2625 2700 2150 2400 
Q 2500 2250 2687 1950 
Q 2875 1650 2812 1162 
Q 2750 675 2375 375 
Q 2000 75 1525 87 
Q 1050 100 700 387 
Q 350 675 250 1225 
z
" transform="scale(0.015625)"/>
      </defs>
      <use xlink:href="#SimHei-7c7b"/>
      <use xlink:href="#SimHei-522b" x="100"/>
      <use xlink:href="#SimHei-20" x="200"/>
      <use xlink:href="#SimHei-31" x="250"/>
      <use xlink:href="#SimHei-20" x="300"/>
      <use xlink:href="#SimHei-28" x="350"/>
      <use xlink:href="#SimHei-41" x="400"/>
      <use xlink:href="#SimHei-55" x="450"/>
      <use xlink:href="#SimHei-43" x="500"/>
      <use xlink:href="#SimHei-20" x="550"/>
      <use xlink:href="#SimHei-3d" x="600"/>
      <use xlink:href="#SimHei-20" x="650"/>
      <use xlink:href="#SimHei-30" x="700"/>
      <use xlink:href="#SimHei-2e" x="750"/>
      <use xlink:href="#SimHei-35" x="800"/>
      <use xlink:href="#SimHei-33" x="850"/>
      <use xlink:href="#SimHei-29" x="900"/>
     </g>
    </g>
    <g id="line2d_32">
     <path d="M 390.983438 334.493437 
L 400.983438 334.493437 
L 410.983438 334.493437 
" style="fill: none; stroke: #ff0000; stroke-width: 2; stroke-linecap: square"/>
    </g>
    <g id="text_17">
     <!-- 类别 2 (AUC = 0.22) -->
     <g transform="translate(418.983438 337.993437) scale(0.1 -0.1)">
      <use xlink:href="#SimHei-7c7b"/>
      <use xlink:href="#SimHei-522b" x="100"/>
      <use xlink:href="#SimHei-20" x="200"/>
      <use xlink:href="#SimHei-32" x="250"/>
      <use xlink:href="#SimHei-20" x="300"/>
      <use xlink:href="#SimHei-28" x="350"/>
      <use xlink:href="#SimHei-41" x="400"/>
      <use xlink:href="#SimHei-55" x="450"/>
      <use xlink:href="#SimHei-43" x="500"/>
      <use xlink:href="#SimHei-20" x="550"/>
      <use xlink:href="#SimHei-3d" x="600"/>
      <use xlink:href="#SimHei-20" x="650"/>
      <use xlink:href="#SimHei-30" x="700"/>
      <use xlink:href="#SimHei-2e" x="750"/>
      <use xlink:href="#SimHei-32" x="800"/>
      <use xlink:href="#SimHei-32" x="850"/>
      <use xlink:href="#SimHei-29" x="900"/>
     </g>
    </g>
    <g id="line2d_33">
     <path d="M 390.983438 348.673125 
L 400.983438 348.673125 
L 410.983438 348.673125 
" style="fill: none; stroke: #008000; stroke-width: 2; stroke-linecap: square"/>
    </g>
    <g id="text_18">
     <!-- 类别 3 (AUC = 0.48) -->
     <g transform="translate(418.983438 352.173125) scale(0.1 -0.1)">
      <use xlink:href="#SimHei-7c7b"/>
      <use xlink:href="#SimHei-522b" x="100"/>
      <use xlink:href="#SimHei-20" x="200"/>
      <use xlink:href="#SimHei-33" x="250"/>
      <use xlink:href="#SimHei-20" x="300"/>
      <use xlink:href="#SimHei-28" x="350"/>
      <use xlink:href="#SimHei-41" x="400"/>
      <use xlink:href="#SimHei-55" x="450"/>
      <use xlink:href="#SimHei-43" x="500"/>
      <use xlink:href="#SimHei-20" x="550"/>
      <use xlink:href="#SimHei-3d" x="600"/>
      <use xlink:href="#SimHei-20" x="650"/>
      <use xlink:href="#SimHei-30" x="700"/>
      <use xlink:href="#SimHei-2e" x="750"/>
      <use xlink:href="#SimHei-34" x="800"/>
      <use xlink:href="#SimHei-38" x="850"/>
      <use xlink:href="#SimHei-29" x="900"/>
     </g>
    </g>
    <g id="line2d_34">
     <path d="M 390.983438 362.852812 
L 400.983438 362.852812 
L 410.983438 362.852812 
" style="fill: none; stroke: #ffa500; stroke-width: 2; stroke-linecap: square"/>
    </g>
    <g id="text_19">
     <!-- 类别 4 (AUC = 0.58) -->
     <g transform="translate(418.983438 366.352812) scale(0.1 -0.1)">
      <use xlink:href="#SimHei-7c7b"/>
      <use xlink:href="#SimHei-522b" x="100"/>
      <use xlink:href="#SimHei-20" x="200"/>
      <use xlink:href="#SimHei-34" x="250"/>
      <use xlink:href="#SimHei-20" x="300"/>
      <use xlink:href="#SimHei-28" x="350"/>
      <use xlink:href="#SimHei-41" x="400"/>
      <use xlink:href="#SimHei-55" x="450"/>
      <use xlink:href="#SimHei-43" x="500"/>
      <use xlink:href="#SimHei-20" x="550"/>
      <use xlink:href="#SimHei-3d" x="600"/>
      <use xlink:href="#SimHei-20" x="650"/>
      <use xlink:href="#SimHei-30" x="700"/>
      <use xlink:href="#SimHei-2e" x="750"/>
      <use xlink:href="#SimHei-35" x="800"/>
      <use xlink:href="#SimHei-38" x="850"/>
      <use xlink:href="#SimHei-29" x="900"/>
     </g>
    </g>
    <g id="line2d_35">
     <path d="M 390.983438 377.0325 
L 400.983438 377.0325 
L 410.983438 377.0325 
" style="fill: none; stroke: #800080; stroke-width: 2; stroke-linecap: square"/>
    </g>
    <g id="text_20">
     <!-- 类别 5 (AUC = 0.29) -->
     <g transform="translate(418.983438 380.5325) scale(0.1 -0.1)">
      <defs>
       <path id="SimHei-39" d="M 800 75 
Q 1350 1000 1700 1750 
Q 1075 1650 662 1912 
Q 250 2175 162 2625 
Q 75 3075 175 3437 
Q 275 3800 487 4037 
Q 700 4275 1000 4375 
Q 1300 4475 1537 4475 
Q 1775 4475 2025 4375 
Q 2275 4275 2475 4075 
Q 2675 3875 2750 3662 
Q 2825 3450 2825 3112 
Q 2825 2775 2575 2250 
Q 2325 1725 1350 75 
L 800 75 
z
M 662 2875 
Q 700 2550 937 2337 
Q 1175 2125 1450 2150 
Q 1725 2175 1887 2300 
Q 2050 2425 2200 2725 
Q 2300 3100 2250 3362 
Q 2200 3625 1987 3800 
Q 1775 3975 1525 3975 
Q 1375 4000 1137 3900 
Q 900 3800 762 3500 
Q 625 3200 662 2875 
z
" transform="scale(0.015625)"/>
      </defs>
      <use xlink:href="#SimHei-7c7b"/>
      <use xlink:href="#SimHei-522b" x="100"/>
      <use xlink:href="#SimHei-20" x="200"/>
      <use xlink:href="#SimHei-35" x="250"/>
      <use xlink:href="#SimHei-20" x="300"/>
      <use xlink:href="#SimHei-28" x="350"/>
      <use xlink:href="#SimHei-41" x="400"/>
      <use xlink:href="#SimHei-55" x="450"/>
      <use xlink:href="#SimHei-43" x="500"/>
      <use xlink:href="#SimHei-20" x="550"/>
      <use xlink:href="#SimHei-3d" x="600"/>
      <use xlink:href="#SimHei-20" x="650"/>
      <use xlink:href="#SimHei-30" x="700"/>
      <use xlink:href="#SimHei-2e" x="750"/>
      <use xlink:href="#SimHei-32" x="800"/>
      <use xlink:href="#SimHei-39" x="850"/>
      <use xlink:href="#SimHei-29" x="900"/>
     </g>
    </g>
   </g>
  </g>
  <g id="axes_2">
   <g id="patch_8">
    <path d="M 576.823438 390.7825 
L 1057.583437 390.7825 
L 1057.583437 51.39375 
L 576.823438 51.39375 
z
" style="fill: #ffffff"/>
   </g>
   <g id="matplotlib.axis_3">
    <g id="xtick_7">
     <g id="line2d_36">
      <path d="M 576.823438 390.7825 
L 576.823438 51.39375 
" clip-path="url(#p7d571b75de)" style="fill: none; stroke: #b0b0b0; stroke-opacity: 0.3; stroke-width: 0.8; stroke-linecap: square"/>
     </g>
     <g id="line2d_37">
      <g>
       <use xlink:href="#mb145c05874" x="576.823438" y="390.7825" style="stroke: #000000; stroke-width: 0.8"/>
      </g>
     </g>
     <g id="text_21">
      <!-- 0.0 -->
      <g transform="translate(569.323438 404.6575) scale(0.1 -0.1)">
       <use xlink:href="#SimHei-30"/>
       <use xlink:href="#SimHei-2e" x="50"/>
       <use xlink:href="#SimHei-30" x="100"/>
      </g>
     </g>
    </g>
    <g id="xtick_8">
     <g id="line2d_38">
      <path d="M 672.975437 390.7825 
L 672.975437 51.39375 
" clip-path="url(#p7d571b75de)" style="fill: none; stroke: #b0b0b0; stroke-opacity: 0.3; stroke-width: 0.8; stroke-linecap: square"/>
     </g>
     <g id="line2d_39">
      <g>
       <use xlink:href="#mb145c05874" x="672.975437" y="390.7825" style="stroke: #000000; stroke-width: 0.8"/>
      </g>
     </g>
     <g id="text_22">
      <!-- 0.2 -->
      <g transform="translate(665.475437 404.6575) scale(0.1 -0.1)">
       <use xlink:href="#SimHei-30"/>
       <use xlink:href="#SimHei-2e" x="50"/>
       <use xlink:href="#SimHei-32" x="100"/>
      </g>
     </g>
    </g>
    <g id="xtick_9">
     <g id="line2d_40">
      <path d="M 769.127438 390.7825 
L 769.127438 51.39375 
" clip-path="url(#p7d571b75de)" style="fill: none; stroke: #b0b0b0; stroke-opacity: 0.3; stroke-width: 0.8; stroke-linecap: square"/>
     </g>
     <g id="line2d_41">
      <g>
       <use xlink:href="#mb145c05874" x="769.127438" y="390.7825" style="stroke: #000000; stroke-width: 0.8"/>
      </g>
     </g>
     <g id="text_23">
      <!-- 0.4 -->
      <g transform="translate(761.627438 404.6575) scale(0.1 -0.1)">
       <use xlink:href="#SimHei-30"/>
       <use xlink:href="#SimHei-2e" x="50"/>
       <use xlink:href="#SimHei-34" x="100"/>
      </g>
     </g>
    </g>
    <g id="xtick_10">
     <g id="line2d_42">
      <path d="M 865.279438 390.7825 
L 865.279438 51.39375 
" clip-path="url(#p7d571b75de)" style="fill: none; stroke: #b0b0b0; stroke-opacity: 0.3; stroke-width: 0.8; stroke-linecap: square"/>
     </g>
     <g id="line2d_43">
      <g>
       <use xlink:href="#mb145c05874" x="865.279438" y="390.7825" style="stroke: #000000; stroke-width: 0.8"/>
      </g>
     </g>
     <g id="text_24">
      <!-- 0.6 -->
      <g transform="translate(857.779438 404.6575) scale(0.1 -0.1)">
       <use xlink:href="#SimHei-30"/>
       <use xlink:href="#SimHei-2e" x="50"/>
       <use xlink:href="#SimHei-36" x="100"/>
      </g>
     </g>
    </g>
    <g id="xtick_11">
     <g id="line2d_44">
      <path d="M 961.431438 390.7825 
L 961.431438 51.39375 
" clip-path="url(#p7d571b75de)" style="fill: none; stroke: #b0b0b0; stroke-opacity: 0.3; stroke-width: 0.8; stroke-linecap: square"/>
     </g>
     <g id="line2d_45">
      <g>
       <use xlink:href="#mb145c05874" x="961.431438" y="390.7825" style="stroke: #000000; stroke-width: 0.8"/>
      </g>
     </g>
     <g id="text_25">
      <!-- 0.8 -->
      <g transform="translate(953.931438 404.6575) scale(0.1 -0.1)">
       <use xlink:href="#SimHei-30"/>
       <use xlink:href="#SimHei-2e" x="50"/>
       <use xlink:href="#SimHei-38" x="100"/>
      </g>
     </g>
    </g>
    <g id="xtick_12">
     <g id="line2d_46">
      <path d="M 1057.583437 390.7825 
L 1057.583437 51.39375 
" clip-path="url(#p7d571b75de)" style="fill: none; stroke: #b0b0b0; stroke-opacity: 0.3; stroke-width: 0.8; stroke-linecap: square"/>
     </g>
     <g id="line2d_47">
      <g>
       <use xlink:href="#mb145c05874" x="1057.583437" y="390.7825" style="stroke: #000000; stroke-width: 0.8"/>
      </g>
     </g>
     <g id="text_26">
      <!-- 1.0 -->
      <g transform="translate(1050.083437 404.6575) scale(0.1 -0.1)">
       <use xlink:href="#SimHei-31"/>
       <use xlink:href="#SimHei-2e" x="50"/>
       <use xlink:href="#SimHei-30" x="100"/>
      </g>
     </g>
    </g>
    <g id="text_27">
     <!-- 假正率 (False Positive Rate) -->
     <g transform="translate(747.203438 417.759062) scale(0.1 -0.1)">
      <use xlink:href="#SimHei-5047"/>
      <use xlink:href="#SimHei-6b63" x="100"/>
      <use xlink:href="#SimHei-7387" x="200"/>
      <use xlink:href="#SimHei-20" x="300"/>
      <use xlink:href="#SimHei-28" x="350"/>
      <use xlink:href="#SimHei-46" x="400"/>
      <use xlink:href="#SimHei-61" x="450"/>
      <use xlink:href="#SimHei-6c" x="500"/>
      <use xlink:href="#SimHei-73" x="550"/>
      <use xlink:href="#SimHei-65" x="600"/>
      <use xlink:href="#SimHei-20" x="650"/>
      <use xlink:href="#SimHei-50" x="700"/>
      <use xlink:href="#SimHei-6f" x="750"/>
      <use xlink:href="#SimHei-73" x="800"/>
      <use xlink:href="#SimHei-69" x="850"/>
      <use xlink:href="#SimHei-74" x="900"/>
      <use xlink:href="#SimHei-69" x="950"/>
      <use xlink:href="#SimHei-76" x="1000"/>
      <use xlink:href="#SimHei-65" x="1050"/>
      <use xlink:href="#SimHei-20" x="1100"/>
      <use xlink:href="#SimHei-52" x="1150"/>
      <use xlink:href="#SimHei-61" x="1200"/>
      <use xlink:href="#SimHei-74" x="1250"/>
      <use xlink:href="#SimHei-65" x="1300"/>
      <use xlink:href="#SimHei-29" x="1350"/>
     </g>
    </g>
   </g>
   <g id="matplotlib.axis_4">
    <g id="ytick_7">
     <g id="line2d_48">
      <path d="M 576.823438 390.7825 
L 1057.583437 390.7825 
" clip-path="url(#p7d571b75de)" style="fill: none; stroke: #b0b0b0; stroke-opacity: 0.3; stroke-width: 0.8; stroke-linecap: square"/>
     </g>
     <g id="line2d_49">
      <g>
       <use xlink:href="#mca71788daa" x="576.823438" y="390.7825" style="stroke: #000000; stroke-width: 0.8"/>
      </g>
     </g>
     <g id="text_28">
      <!-- 0.0 -->
      <g transform="translate(554.823438 394.22) scale(0.1 -0.1)">
       <use xlink:href="#SimHei-30"/>
       <use xlink:href="#SimHei-2e" x="50"/>
       <use xlink:href="#SimHei-30" x="100"/>
      </g>
     </g>
    </g>
    <g id="ytick_8">
     <g id="line2d_50">
      <path d="M 576.823438 326.137024 
L 1057.583437 326.137024 
" clip-path="url(#p7d571b75de)" style="fill: none; stroke: #b0b0b0; stroke-opacity: 0.3; stroke-width: 0.8; stroke-linecap: square"/>
     </g>
     <g id="line2d_51">
      <g>
       <use xlink:href="#mca71788daa" x="576.823438" y="326.137024" style="stroke: #000000; stroke-width: 0.8"/>
      </g>
     </g>
     <g id="text_29">
      <!-- 0.2 -->
      <g transform="translate(554.823438 329.574524) scale(0.1 -0.1)">
       <use xlink:href="#SimHei-30"/>
       <use xlink:href="#SimHei-2e" x="50"/>
       <use xlink:href="#SimHei-32" x="100"/>
      </g>
     </g>
    </g>
    <g id="ytick_9">
     <g id="line2d_52">
      <path d="M 576.823438 261.491548 
L 1057.583437 261.491548 
" clip-path="url(#p7d571b75de)" style="fill: none; stroke: #b0b0b0; stroke-opacity: 0.3; stroke-width: 0.8; stroke-linecap: square"/>
     </g>
     <g id="line2d_53">
      <g>
       <use xlink:href="#mca71788daa" x="576.823438" y="261.491548" style="stroke: #000000; stroke-width: 0.8"/>
      </g>
     </g>
     <g id="text_30">
      <!-- 0.4 -->
      <g transform="translate(554.823438 264.929048) scale(0.1 -0.1)">
       <use xlink:href="#SimHei-30"/>
       <use xlink:href="#SimHei-2e" x="50"/>
       <use xlink:href="#SimHei-34" x="100"/>
      </g>
     </g>
    </g>
    <g id="ytick_10">
     <g id="line2d_54">
      <path d="M 576.823438 196.846071 
L 1057.583437 196.846071 
" clip-path="url(#p7d571b75de)" style="fill: none; stroke: #b0b0b0; stroke-opacity: 0.3; stroke-width: 0.8; stroke-linecap: square"/>
     </g>
     <g id="line2d_55">
      <g>
       <use xlink:href="#mca71788daa" x="576.823438" y="196.846071" style="stroke: #000000; stroke-width: 0.8"/>
      </g>
     </g>
     <g id="text_31">
      <!-- 0.6 -->
      <g transform="translate(554.823438 200.283571) scale(0.1 -0.1)">
       <use xlink:href="#SimHei-30"/>
       <use xlink:href="#SimHei-2e" x="50"/>
       <use xlink:href="#SimHei-36" x="100"/>
      </g>
     </g>
    </g>
    <g id="ytick_11">
     <g id="line2d_56">
      <path d="M 576.823438 132.200595 
L 1057.583437 132.200595 
" clip-path="url(#p7d571b75de)" style="fill: none; stroke: #b0b0b0; stroke-opacity: 0.3; stroke-width: 0.8; stroke-linecap: square"/>
     </g>
     <g id="line2d_57">
      <g>
       <use xlink:href="#mca71788daa" x="576.823438" y="132.200595" style="stroke: #000000; stroke-width: 0.8"/>
      </g>
     </g>
     <g id="text_32">
      <!-- 0.8 -->
      <g transform="translate(554.823438 135.638095) scale(0.1 -0.1)">
       <use xlink:href="#SimHei-30"/>
       <use xlink:href="#SimHei-2e" x="50"/>
       <use xlink:href="#SimHei-38" x="100"/>
      </g>
     </g>
    </g>
    <g id="ytick_12">
     <g id="line2d_58">
      <path d="M 576.823438 67.555119 
L 1057.583437 67.555119 
" clip-path="url(#p7d571b75de)" style="fill: none; stroke: #b0b0b0; stroke-opacity: 0.3; stroke-width: 0.8; stroke-linecap: square"/>
     </g>
     <g id="line2d_59">
      <g>
       <use xlink:href="#mca71788daa" x="576.823438" y="67.555119" style="stroke: #000000; stroke-width: 0.8"/>
      </g>
     </g>
     <g id="text_33">
      <!-- 1.0 -->
      <g transform="translate(554.823438 70.992619) scale(0.1 -0.1)">
       <use xlink:href="#SimHei-31"/>
       <use xlink:href="#SimHei-2e" x="50"/>
       <use xlink:href="#SimHei-30" x="100"/>
      </g>
     </g>
    </g>
    <g id="text_34">
     <!-- 真正率 (True Positive Rate) -->
     <g transform="translate(549.573438 288.588125) rotate(-90) scale(0.1 -0.1)">
      <use xlink:href="#SimHei-771f"/>
      <use xlink:href="#SimHei-6b63" x="100"/>
      <use xlink:href="#SimHei-7387" x="200"/>
      <use xlink:href="#SimHei-20" x="300"/>
      <use xlink:href="#SimHei-28" x="350"/>
      <use xlink:href="#SimHei-54" x="400"/>
      <use xlink:href="#SimHei-72" x="450"/>
      <use xlink:href="#SimHei-75" x="500"/>
      <use xlink:href="#SimHei-65" x="550"/>
      <use xlink:href="#SimHei-20" x="600"/>
      <use xlink:href="#SimHei-50" x="650"/>
      <use xlink:href="#SimHei-6f" x="700"/>
      <use xlink:href="#SimHei-73" x="750"/>
      <use xlink:href="#SimHei-69" x="800"/>
      <use xlink:href="#SimHei-74" x="850"/>
      <use xlink:href="#SimHei-69" x="900"/>
      <use xlink:href="#SimHei-76" x="950"/>
      <use xlink:href="#SimHei-65" x="1000"/>
      <use xlink:href="#SimHei-20" x="1050"/>
      <use xlink:href="#SimHei-52" x="1100"/>
      <use xlink:href="#SimHei-61" x="1150"/>
      <use xlink:href="#SimHei-74" x="1200"/>
      <use xlink:href="#SimHei-65" x="1250"/>
      <use xlink:href="#SimHei-29" x="1300"/>
     </g>
    </g>
   </g>
   <g id="line2d_60">
    <path d="M 576.823438 390.7825 
L 579.227238 390.7825 
L 588.842438 390.7825 
L 588.842438 384.317952 
L 603.265238 384.317952 
L 603.265238 377.853405 
L 617.688038 377.853405 
L 617.688038 371.388857 
L 629.707038 371.388857 
L 629.707038 364.92431 
L 644.129838 364.92431 
L 644.129838 358.459762 
L 653.745038 358.459762 
L 653.745038 345.530667 
L 656.148838 345.530667 
L 656.148838 339.066119 
L 660.956437 339.066119 
L 660.956437 332.601571 
L 663.360238 332.601571 
L 663.360238 326.137024 
L 672.975437 326.137024 
L 672.975437 319.672476 
L 680.186838 319.672476 
L 680.186838 313.207929 
L 725.859037 313.207929 
L 725.859037 306.743381 
L 733.070438 306.743381 
L 733.070438 300.278833 
L 761.916038 300.278833 
L 761.916038 293.814286 
L 776.338837 293.814286 
L 776.338837 287.349738 
L 790.761638 287.349738 
L 790.761638 280.88519 
L 795.569237 280.88519 
L 795.569237 274.420643 
L 817.203438 274.420643 
L 817.203438 267.956095 
L 831.626238 267.956095 
L 831.626238 255.027 
L 853.260437 255.027 
L 853.260437 248.562452 
L 870.087037 248.562452 
L 870.087037 242.097905 
L 884.509838 242.097905 
L 884.509838 235.633357 
L 891.721237 235.633357 
L 891.721237 229.16881 
L 898.932638 229.16881 
L 898.932638 222.704262 
L 901.336437 222.704262 
L 901.336437 216.239714 
L 925.374437 216.239714 
L 925.374437 209.775167 
L 930.182037 209.775167 
L 930.182037 196.846071 
L 934.989637 196.846071 
L 934.989637 190.381524 
L 939.797237 190.381524 
L 939.797237 183.916976 
L 944.604838 183.916976 
L 944.604838 177.452429 
L 963.835237 177.452429 
L 963.835237 170.987881 
L 971.046637 170.987881 
L 971.046637 164.523333 
L 975.854237 164.523333 
L 975.854237 158.058786 
L 978.258038 158.058786 
L 978.258038 151.594238 
L 983.065637 151.594238 
L 983.065637 132.200595 
L 992.680837 132.200595 
L 992.680837 125.736048 
L 1011.911237 125.736048 
L 1011.911237 106.342405 
L 1014.315038 106.342405 
L 1014.315038 99.877857 
L 1021.526437 99.877857 
L 1021.526437 86.948762 
L 1031.141637 86.948762 
L 1031.141637 80.484214 
L 1035.949237 80.484214 
L 1035.949237 74.019667 
L 1038.353038 74.019667 
L 1038.353038 67.555119 
L 1057.583437 67.555119 
" clip-path="url(#p7d571b75de)" style="fill: none; stroke-dasharray: 4,6.6; stroke-dashoffset: 0; stroke: #ff1493; stroke-width: 4"/>
   </g>
   <g id="line2d_61">
    <path d="M 576.823438 390.7825 
L 1057.583437 67.555119 
" clip-path="url(#p7d571b75de)" style="fill: none; stroke-dasharray: 7.4,3.2; stroke-dashoffset: 0; stroke: #000000; stroke-width: 2"/>
   </g>
   <g id="patch_9">
    <path d="M 576.823438 390.7825 
L 576.823438 51.39375 
" style="fill: none; stroke: #000000; stroke-width: 0.8; stroke-linejoin: miter; stroke-linecap: square"/>
   </g>
   <g id="patch_10">
    <path d="M 1057.583437 390.7825 
L 1057.583437 51.39375 
" style="fill: none; stroke: #000000; stroke-width: 0.8; stroke-linejoin: miter; stroke-linecap: square"/>
   </g>
   <g id="patch_11">
    <path d="M 576.823438 390.7825 
L 1057.583437 390.7825 
" style="fill: none; stroke: #000000; stroke-width: 0.8; stroke-linejoin: miter; stroke-linecap: square"/>
   </g>
   <g id="patch_12">
    <path d="M 576.823438 51.39375 
L 1057.583437 51.39375 
" style="fill: none; stroke: #000000; stroke-width: 0.8; stroke-linejoin: miter; stroke-linecap: square"/>
   </g>
   <g id="text_35">
    <!-- 微平均ROC曲线 -->
    <g transform="translate(778.203438 45.39375) scale(0.12 -0.12)">
     <defs>
      <path id="SimHei-5fae" d="M 4050 2075 
Q 3850 2250 3675 2300 
Q 4050 3025 4262 3837 
Q 4475 4650 4500 5175 
Q 4775 5075 5025 5050 
Q 4875 4700 4725 3850 
L 5525 3850 
Q 5800 3850 6050 3875 
L 6050 3475 
Q 5675 3500 5600 3500 
Q 5600 2800 5525 2162 
Q 5450 1525 5100 775 
Q 5225 525 5487 312 
Q 5750 100 6125 -75 
Q 5825 -275 5800 -525 
Q 5175 -150 4800 400 
Q 4275 -175 3625 -600 
Q 3450 -400 3150 -225 
Q 3675 0 3975 225 
Q 4275 450 4550 800 
Q 4275 1475 4200 2450 
L 4050 2075 
z
M 1875 3550 
Q 1650 3375 1375 2875 
L 1375 475 
Q 1375 25 1400 -550 
L 950 -550 
Q 975 25 975 475 
L 975 2300 
Q 750 2000 550 1700 
Q 425 1950 275 2100 
Q 575 2400 925 2900 
Q 1275 3400 1475 3925 
Q 1650 3650 1875 3550 
z
M 3450 1975 
Q 3425 1500 3425 725 
Q 3650 900 3850 1125 
L 4050 725 
Q 3875 625 3637 425 
Q 3400 225 3175 0 
L 2925 375 
Q 3050 475 3050 700 
L 3050 1650 
L 2500 1650 
Q 2500 1100 2412 662 
Q 2325 225 2000 -275 
Q 1825 -75 1600 25 
Q 1975 450 2037 1037 
Q 2100 1625 2075 1975 
L 3450 1975 
z
M 2350 4600 
Q 2325 4175 2325 3575 
L 2700 3575 
Q 2700 4575 2675 5100 
L 3100 5100 
Q 3075 4600 3075 3575 
L 3500 3575 
Q 3500 4075 3475 4600 
L 3875 4600 
Q 3850 4325 3850 3925 
Q 3850 3550 3875 3250 
L 1900 3250 
Q 1925 3600 1925 3925 
Q 1925 4250 1900 4600 
L 2350 4600 
z
M 4525 2825 
Q 4625 1775 4850 1200 
Q 5050 1700 5112 2212 
Q 5175 2725 5200 3500 
L 4625 3500 
Q 4525 3175 4350 2775 
L 4525 2825 
z
M 1700 4850 
Q 1275 4300 675 3625 
Q 525 3800 300 3925 
Q 1025 4575 1300 5150 
Q 1450 5000 1700 4850 
z
M 3700 2475 
Q 3325 2500 2750 2500 
Q 2175 2500 1800 2475 
L 1800 2850 
Q 2175 2825 2750 2825 
Q 3325 2825 3700 2850 
L 3700 2475 
z
" transform="scale(0.015625)"/>
      <path id="SimHei-5e73" d="M 4525 4825 
Q 4900 4825 5450 4850 
L 5450 4375 
Q 4925 4400 4525 4400 
L 3475 4400 
L 3475 2025 
L 5000 2025 
Q 5550 2025 6025 2050 
L 6025 1575 
Q 5550 1600 5000 1600 
L 3475 1600 
L 3475 450 
Q 3475 -100 3500 -600 
L 2925 -600 
Q 2950 -100 2950 450 
L 2950 1600 
L 1125 1600 
Q 775 1600 375 1575 
L 375 2050 
Q 775 2025 1175 2025 
L 2950 2025 
L 2950 4400 
L 1775 4400 
Q 1400 4400 875 4375 
L 875 4850 
Q 1400 4825 1750 4825 
L 4525 4825 
z
M 3925 2600 
Q 4500 3300 4900 4125 
Q 5150 3950 5400 3825 
Q 4775 2850 4350 2300 
Q 4150 2475 3925 2600 
z
M 1975 2350 
Q 1600 3100 1050 3725 
Q 1250 3875 1450 4050 
Q 2075 3300 2450 2725 
Q 2150 2500 1975 2350 
z
" transform="scale(0.015625)"/>
      <path id="SimHei-5747" d="M 5775 275 
Q 5775 -325 5362 -450 
Q 4950 -575 4425 -600 
Q 4375 -275 4250 25 
Q 4950 -25 5125 62 
Q 5300 150 5300 500 
L 5375 3700 
L 3550 3700 
Q 3425 3375 3262 3037 
Q 3100 2700 2925 2400 
Q 2675 2550 2475 2625 
Q 3150 3625 3500 5200 
Q 3800 5100 4075 5025 
Q 3975 4875 3875 4650 
Q 3775 4425 3675 4125 
L 5900 4125 
L 5775 275 
z
M 1250 3625 
L 1250 4375 
Q 1250 4775 1225 5100 
L 1775 5100 
Q 1750 4725 1750 4375 
L 1750 3625 
L 1900 3625 
Q 2200 3625 2525 3650 
L 2525 3150 
Q 2200 3175 1900 3175 
L 1750 3175 
L 1750 1100 
L 2500 1375 
Q 2475 1125 2525 900 
Q 1225 475 962 362 
Q 700 250 475 150 
Q 375 475 250 750 
Q 575 800 800 850 
Q 1025 900 1250 975 
L 1250 3175 
L 1125 3175 
Q 850 3175 400 3150 
L 400 3650 
Q 850 3625 1100 3625 
L 1250 3625 
z
M 4950 1625 
Q 4675 1425 4137 1050 
Q 3600 675 3175 300 
Q 3000 575 2850 775 
Q 3350 1050 3762 1325 
Q 4175 1600 4775 2075 
Q 4825 1850 4950 1625 
z
M 3775 3150 
Q 4125 2800 4475 2300 
Q 4250 2125 4100 1975 
Q 3900 2325 3450 2825 
Q 3600 3000 3775 3150 
z
" transform="scale(0.015625)"/>
     </defs>
     <use xlink:href="#SimHei-5fae"/>
     <use xlink:href="#SimHei-5e73" x="100"/>
     <use xlink:href="#SimHei-5747" x="200"/>
     <use xlink:href="#SimHei-52" x="300"/>
     <use xlink:href="#SimHei-4f" x="350"/>
     <use xlink:href="#SimHei-43" x="400"/>
     <use xlink:href="#SimHei-66f2" x="450"/>
     <use xlink:href="#SimHei-7ebf" x="550"/>
    </g>
   </g>
   <g id="legend_2">
    <g id="patch_13">
     <path d="M 923.583437 385.7825 
L 1050.583437 385.7825 
Q 1052.583437 385.7825 1052.583437 383.7825 
L 1052.583437 370.72 
Q 1052.583437 368.72 1050.583437 368.72 
L 923.583437 368.72 
Q 921.583437 368.72 921.583437 370.72 
L 921.583437 383.7825 
Q 921.583437 385.7825 923.583437 385.7825 
z
" style="fill: #ffffff; opacity: 0.8; stroke: #cccccc; stroke-linejoin: miter"/>
    </g>
    <g id="line2d_62">
     <path d="M 925.583437 377.0325 
L 935.583437 377.0325 
L 945.583437 377.0325 
" style="fill: none; stroke-dasharray: 4,6.6; stroke-dashoffset: 0; stroke: #ff1493; stroke-width: 4"/>
    </g>
    <g id="text_36">
     <!-- 微平均 (AUC = 0.42) -->
     <g transform="translate(953.583437 380.5325) scale(0.1 -0.1)">
      <use xlink:href="#SimHei-5fae"/>
      <use xlink:href="#SimHei-5e73" x="100"/>
      <use xlink:href="#SimHei-5747" x="200"/>
      <use xlink:href="#SimHei-20" x="300"/>
      <use xlink:href="#SimHei-28" x="350"/>
      <use xlink:href="#SimHei-41" x="400"/>
      <use xlink:href="#SimHei-55" x="450"/>
      <use xlink:href="#SimHei-43" x="500"/>
      <use xlink:href="#SimHei-20" x="550"/>
      <use xlink:href="#SimHei-3d" x="600"/>
      <use xlink:href="#SimHei-20" x="650"/>
      <use xlink:href="#SimHei-30" x="700"/>
      <use xlink:href="#SimHei-2e" x="750"/>
      <use xlink:href="#SimHei-34" x="800"/>
      <use xlink:href="#SimHei-32" x="850"/>
      <use xlink:href="#SimHei-29" x="900"/>
     </g>
    </g>
   </g>
  </g>
  <g id="text_37">
   <!-- 分类算法ROC曲线分析 -->
   <g transform="translate(459.853438 20.325) scale(0.16 -0.16)">
    <defs>
     <path id="SimHei-5206" d="M 1000 -650 
Q 825 -375 575 -225 
Q 975 -75 1300 137 
Q 1625 350 1875 662 
Q 2125 975 2250 1350 
Q 2375 1725 2425 2275 
Q 1850 2275 1500 2250 
L 1500 2775 
Q 1900 2750 2525 2750 
L 5025 2750 
Q 4975 2375 4950 2100 
L 4750 250 
Q 4700 -200 4350 -350 
Q 4000 -500 3575 -525 
Q 3550 -275 3325 50 
Q 3850 25 4037 87 
Q 4225 150 4275 525 
L 4450 2275 
L 2950 2275 
Q 2875 1625 2737 1187 
Q 2600 750 2350 425 
Q 2100 100 1750 -175 
Q 1400 -450 1000 -650 
z
M 3950 5175 
Q 4125 4650 4662 3975 
Q 5200 3300 6175 2800 
Q 5975 2625 5775 2275 
Q 5325 2600 4987 2887 
Q 4650 3175 4425 3425 
Q 4200 3675 3925 4137 
Q 3650 4600 3475 5000 
Q 3750 5075 3950 5175 
z
M 2700 4825 
Q 2475 4425 2325 4125 
Q 2175 3825 2025 3587 
Q 1875 3350 1575 2950 
Q 1275 2550 850 2125 
Q 625 2350 400 2475 
Q 900 2925 1187 3300 
Q 1475 3675 1737 4112 
Q 2000 4550 2200 5075 
Q 2400 4925 2700 4825 
z
" transform="scale(0.015625)"/>
     <path id="SimHei-7b97" d="M 5175 3650 
Q 5150 3200 5150 2500 
Q 5150 1800 5175 1325 
L 4575 1325 
L 4575 875 
L 5250 875 
Q 5650 875 6150 900 
L 6150 475 
Q 5650 500 5250 500 
L 4575 500 
Q 4575 -75 4600 -625 
L 4050 -625 
Q 4075 -75 4075 500 
L 2650 500 
Q 2475 100 2125 -175 
Q 1775 -450 1075 -675 
Q 925 -425 700 -250 
Q 1250 -150 1600 37 
Q 1950 225 2125 500 
L 1225 500 
Q 800 500 300 475 
L 300 900 
Q 825 875 1225 875 
L 2200 875 
Q 2250 1075 2250 1325 
L 1250 1325 
Q 1275 1775 1275 2475 
Q 1275 3200 1250 3650 
L 5175 3650 
z
M 1825 5100 
Q 1625 4900 1475 4725 
L 2425 4725 
Q 2750 4725 3175 4750 
L 3175 4325 
Q 2750 4350 2200 4350 
Q 2250 4175 2350 3875 
Q 2075 3850 1825 3750 
Q 1750 4075 1675 4350 
L 1200 4350 
Q 1075 4125 775 3775 
Q 525 3925 250 4000 
Q 500 4225 762 4537 
Q 1025 4850 1275 5300 
Q 1500 5175 1825 5100 
z
M 4525 5100 
Q 4325 4950 4175 4725 
L 5225 4725 
Q 5500 4725 5950 4750 
L 5950 4325 
Q 5550 4350 4975 4350 
L 5175 3950 
Q 4925 3925 4650 3825 
Q 4575 4100 4500 4350 
L 3900 4350 
Q 3700 4025 3525 3775 
Q 3250 3950 3025 4000 
Q 3325 4300 3550 4612 
Q 3775 4925 3900 5275 
Q 4175 5175 4525 5100 
z
M 4650 1675 
L 4650 2000 
L 1775 2000 
L 1775 1675 
L 4650 1675 
z
M 4650 2350 
L 4650 2650 
L 1775 2650 
L 1775 2350 
L 4650 2350 
z
M 4650 3000 
L 4650 3300 
L 1775 3300 
L 1775 3000 
L 4650 3000 
z
M 4075 875 
L 4075 1325 
L 2725 1325 
Q 2725 1075 2700 875 
L 4075 875 
z
" transform="scale(0.015625)"/>
     <path id="SimHei-6cd5" d="M 6075 -300 
Q 5850 -425 5625 -625 
Q 5450 -300 5325 -125 
Q 4525 -175 3587 -262 
Q 2650 -350 2325 -450 
Q 2250 -150 2125 75 
Q 2450 175 2825 725 
Q 3200 1275 3500 2100 
L 2800 2100 
Q 2350 2100 1950 2075 
L 1950 2525 
Q 2350 2500 2825 2500 
L 3725 2500 
L 3725 3600 
L 3150 3600 
Q 2675 3600 2325 3575 
L 2325 4025 
Q 2725 4000 3125 4000 
L 3725 4000 
Q 3725 4700 3700 5150 
L 4250 5150 
Q 4225 4775 4225 4000 
L 4975 4000 
Q 5350 4000 5750 4025 
L 5750 3575 
Q 5350 3600 5025 3600 
L 4225 3600 
L 4225 2500 
L 5125 2500 
Q 5575 2500 6025 2525 
L 6025 2075 
Q 5575 2100 5125 2100 
L 3850 2100 
L 4100 1950 
Q 3950 1775 3625 1200 
Q 3300 625 2900 100 
Q 4000 150 5075 225 
Q 4775 675 4450 1025 
Q 4650 1175 4825 1350 
Q 5275 800 6075 -300 
z
M 300 -250 
Q 650 100 1012 625 
Q 1375 1150 1725 1725 
Q 1850 1500 2075 1375 
Q 1850 1075 1500 487 
Q 1150 -100 850 -625 
Q 650 -425 300 -250 
z
M 675 3425 
Q 1200 3100 1800 2650 
Q 1575 2500 1400 2250 
Q 925 2675 350 3050 
Q 525 3200 675 3425 
z
M 1050 4900 
Q 1550 4575 2100 4125 
Q 1900 3975 1725 3725 
Q 1250 4175 725 4525 
Q 900 4700 1050 4900 
z
" transform="scale(0.015625)"/>
     <path id="SimHei-6790" d="M 5900 4550 
Q 5575 4525 5087 4450 
Q 4600 4375 3725 4275 
L 3725 3075 
L 5400 3075 
Q 5725 3075 6150 3100 
L 6150 2650 
Q 5700 2675 5250 2675 
L 5250 350 
Q 5250 -100 5275 -475 
L 4750 -475 
Q 4775 -75 4775 375 
L 4775 2675 
L 3725 2675 
Q 3725 2175 3650 1637 
Q 3575 1100 3437 637 
Q 3300 175 2850 -500 
Q 2675 -300 2275 -150 
Q 2825 325 3050 1112 
Q 3275 1900 3262 3000 
Q 3250 4100 3225 4650 
Q 3975 4700 4562 4800 
Q 5150 4900 5500 5050 
Q 5675 4750 5900 4550 
z
M 1900 525 
Q 1900 200 1925 -525 
L 1400 -525 
Q 1425 25 1425 525 
L 1425 2250 
Q 1175 1625 600 800 
Q 425 1075 200 1225 
Q 650 1725 962 2387 
Q 1275 3050 1375 3425 
Q 925 3425 450 3400 
L 450 3850 
Q 925 3825 1425 3825 
L 1425 4450 
Q 1425 4775 1400 5125 
L 1950 5125 
Q 1900 4825 1900 4450 
L 1900 3825 
Q 2300 3825 2775 3850 
L 2775 3400 
Q 2300 3425 1900 3425 
L 1900 525 
z
M 2375 2750 
Q 2800 2050 2925 1800 
Q 2700 1700 2450 1550 
Q 2300 1900 1950 2525 
Q 2175 2625 2375 2750 
z
" transform="scale(0.015625)"/>
    </defs>
    <use xlink:href="#SimHei-5206"/>
    <use xlink:href="#SimHei-7c7b" x="100"/>
    <use xlink:href="#SimHei-7b97" x="200"/>
    <use xlink:href="#SimHei-6cd5" x="300"/>
    <use xlink:href="#SimHei-52" x="400"/>
    <use xlink:href="#SimHei-4f" x="450"/>
    <use xlink:href="#SimHei-43" x="500"/>
    <use xlink:href="#SimHei-66f2" x="550"/>
    <use xlink:href="#SimHei-7ebf" x="650"/>
    <use xlink:href="#SimHei-5206" x="750"/>
    <use xlink:href="#SimHei-6790" x="850"/>
   </g>
  </g>
 </g>
 <defs>
  <clipPath id="p261d2792ee">
   <rect x="42.223438" y="51.39375" width="480.76" height="339.38875"/>
  </clipPath>
  <clipPath id="p7d571b75de">
   <rect x="576.823438" y="51.39375" width="480.76" height="339.38875"/>
  </clipPath>
 </defs>
</svg>
