<?xml version="1.0" encoding="UTF-8"?>
<svg id="_图层_2" data-name="图层 2" xmlns="http://www.w3.org/2000/svg" viewBox="0 0 581.1 184.25">
  <defs>
    <style>
      .cls-1 {
        opacity: .7;
      }

      .cls-2, .cls-3, .cls-4, .cls-5, .cls-6 {
        stroke-width: 0px;
      }

      .cls-3 {
        fill: #3395ff;
      }

      .cls-4 {
        fill: none;
      }

      .cls-5 {
        fill: #bfbfbf;
      }

      .cls-6 {
        fill: #fff;
      }
    </style>
  </defs>
  <g id="_图层_1-2" data-name="图层 1">
    <path class="cls-5" d="m578.01,22.26v141.73c0,8.92-7.25,16.17-16.17,16.17H23.26c-8.92,0-16.18-7.25-16.18-16.17V22.26c0-8.92,7.26-16.18,16.18-16.18h538.58c8.92,0,16.17,7.26,16.17,16.18Z"/>
    <rect class="cls-3" x="6.09" y="5.09" width="568.93" height="172.08" rx="15.17" ry="15.17"/>
    <g>
      <path class="cls-6" d="m249.92,31.95h9.66v10.91h-1.11v-9.9h-7.49v9.97h-1.06v-10.97Zm.71,3.09h8.13v.99h-8.13v-.99Zm0,3.05h8.13v.98h-8.13v-.98Zm0,3.05h8.13v.99h-8.13v-.99Zm3.37-11.14l1.22.17c-.15.42-.31.84-.48,1.26-.17.42-.34.78-.5,1.09l-.94-.18c.09-.22.18-.47.27-.75.09-.28.17-.55.25-.83.08-.28.14-.53.18-.76Z"/>
      <path class="cls-6" d="m265.25,29.92l1.01.27c-.22.63-.51,1.28-.85,1.93-.34.65-.73,1.28-1.16,1.87-.43.59-.9,1.12-1.41,1.58-.08-.1-.2-.22-.34-.35s-.27-.23-.38-.31c.49-.42.93-.91,1.34-1.46.41-.55.76-1.14,1.07-1.75.31-.61.55-1.2.73-1.77Zm-1.2,9.9l.97.27c-.24.48-.53.98-.85,1.5-.33.52-.65.97-.97,1.33l-.98-.39c.21-.22.43-.49.66-.78.22-.3.44-.61.64-.95.2-.33.38-.66.54-.97Zm3.79-8.54h.21l.2-.03.63.25c-.28,1.37-.7,2.57-1.25,3.58-.56,1.02-1.21,1.88-1.97,2.57-.76.7-1.59,1.25-2.48,1.67-.05-.08-.11-.18-.2-.28-.08-.1-.17-.2-.27-.3-.09-.1-.18-.18-.27-.23.89-.38,1.69-.89,2.42-1.51.72-.62,1.34-1.39,1.86-2.31s.89-1.98,1.13-3.19v-.22Zm-4.19,4.07l.59-.56c.25.14.51.3.78.48.27.18.53.35.76.53s.43.35.58.5l-.62.63c-.15-.15-.34-.32-.57-.51s-.48-.38-.75-.57-.52-.35-.78-.5Zm1.57-4.07h3.01v.87h-3.54l.53-.87Zm-.27,2.37l.49-.62c.25.1.52.23.8.38.28.15.54.3.79.46.25.15.45.3.61.44l-.49.69c-.15-.13-.35-.28-.6-.44-.25-.16-.51-.33-.79-.49-.28-.16-.55-.3-.81-.41Zm1.51,6.57l.97-.1c.09.41.17.86.24,1.34.06.48.1.88.11,1.2l-1.04.15c0-.22-.01-.48-.04-.78s-.06-.6-.1-.92c-.04-.32-.09-.62-.15-.9Zm4.47-10.01h.99v2.55c0,.57-.04,1.16-.13,1.76-.09.6-.27,1.2-.54,1.8-.27.6-.67,1.17-1.2,1.72-.53.55-1.22,1.06-2.09,1.53-.08-.12-.2-.25-.34-.39-.14-.14-.28-.25-.41-.34.83-.44,1.49-.91,1.99-1.41.5-.5.87-1.02,1.12-1.56s.42-1.07.5-1.6c.08-.53.12-1.03.12-1.52v-2.53Zm-2.28,2.8h6.19v1.01h-6.19v-1.01Zm.7,7.18l.97-.18c.13.27.26.56.38.88.12.31.23.61.32.9.09.29.16.55.21.77l-1.04.22c-.06-.34-.17-.75-.33-1.23-.15-.49-.33-.94-.51-1.36Zm2.45-6.85c.17.8.39,1.54.68,2.23s.64,1.28,1.08,1.81c.43.52.94.94,1.52,1.25-.08.07-.16.15-.25.25-.09.1-.18.21-.26.31-.08.11-.14.2-.19.29-.62-.37-1.15-.85-1.6-1.44-.45-.58-.83-1.26-1.13-2.02-.3-.76-.54-1.6-.72-2.51l.88-.17Zm.45,6.78l.92-.39c.23.28.47.59.71.92s.47.66.68.99c.21.33.38.61.5.85l-.98.46c-.11-.25-.27-.54-.47-.87-.2-.33-.42-.66-.66-1.01s-.47-.66-.71-.95Zm.1-9.32l.77-.45c.28.28.56.59.85.94.29.35.51.65.67.92l-.81.5c-.14-.27-.35-.59-.64-.95-.29-.36-.57-.68-.85-.97Z"/>
      <path class="cls-6" d="m276.27,34.41h2.51v1.02h-2.51v-1.02Zm.74-3.36l.67-.64c.25.21.52.43.79.69.28.25.54.5.78.74.25.24.44.46.58.66l-.71.76c-.15-.21-.34-.44-.57-.69s-.49-.52-.76-.78c-.27-.27-.53-.51-.78-.72Zm1.23,11.44c-.03-.09-.07-.2-.13-.31-.06-.12-.13-.23-.2-.34-.08-.11-.14-.21-.2-.28.1-.07.21-.19.33-.36.12-.16.17-.39.17-.68v-6.1h.98v7.04c-.19.14-.35.26-.48.37-.13.11-.24.22-.34.34-.09.12-.14.23-.14.33Zm0,0l-.15-.98.31-.43,2.48-1.64c.03.13.07.28.13.46.06.17.11.32.15.43-.59.4-1.06.73-1.42.99s-.64.46-.84.61c-.2.15-.35.26-.43.34-.09.08-.16.16-.22.23Zm1.88-6.61h8.93v.95h-8.93v-.95Zm.49-5.35h7.97v.94h-7.97v-.94Zm.5,2.52h5.81v.91h-5.81v-.91Zm.17,4.94h6.82v4.87h-1.04v-3.93h-4.77v3.98h-1.01v-4.91Zm.5,3.44h5.7v.92h-5.7v-.92Zm1.76-10.54l1.05.11c-.1.58-.23,1.2-.38,1.87-.15.67-.3,1.31-.44,1.93-.15.62-.27,1.16-.39,1.6h-1.11c.1-.34.21-.75.33-1.2.12-.46.23-.93.34-1.43.11-.5.22-.99.32-1.49.1-.5.19-.96.27-1.39Zm3.12,2.16h.1l.17-.06.74.07c-.04.52-.09,1.08-.15,1.68-.06.6-.12,1.14-.19,1.64l-.99-.07c.05-.35.09-.71.13-1.1.04-.39.08-.76.11-1.13.03-.36.06-.67.08-.91v-.13Z"/>
      <path class="cls-6" d="m290.4,32.13h12.56v.92h-12.56v-.92Zm1.9,6.37h8.74v4.35h-1.06v-3.46h-6.64v3.5h-1.04v-4.4Zm.14-4.3h8.44v.87h-8.44v-.87Zm0,2.1h8.44v.87h-8.44v-.87Zm.53,5.11h7.41v.9h-7.41v-.9Zm2.44-11.1l1.02-.31c.27.3.54.63.81.99.27.36.47.69.59.97l-1.06.35c-.12-.27-.31-.6-.57-.97-.26-.38-.52-.72-.79-1.03Z"/>
      <path class="cls-6" d="m309.69,32.26h.2l.21-.04.7.2c-.22,1.91-.6,3.56-1.13,4.93-.53,1.37-1.18,2.52-1.97,3.43-.79.92-1.69,1.63-2.71,2.16-.07-.07-.15-.17-.25-.27s-.2-.21-.31-.32c-.11-.1-.21-.18-.31-.22,1.01-.49,1.89-1.16,2.66-1.98.77-.83,1.4-1.87,1.89-3.12.49-1.26.83-2.76,1.02-4.5v-.25Zm-2.97-2.17l1.11.27c-.16.94-.37,1.86-.62,2.76-.26.9-.55,1.72-.88,2.48-.33.76-.7,1.4-1.1,1.93-.09-.08-.22-.18-.39-.3s-.32-.21-.46-.29c.37-.49.71-1.09,1.02-1.81s.58-1.51.81-2.37c.23-.86.4-1.75.52-2.67Zm-.01,3.93c.26,1.27.6,2.34,1.01,3.23.41.88.88,1.59,1.4,2.13.52.54,1.09.96,1.69,1.25s1.23.5,1.9.6c.66.11,1.33.16,2.02.16h1.18c.25,0,.49,0,.71,0,.22,0,.41,0,.55,0-.06.08-.11.19-.17.33-.06.14-.11.27-.15.41-.04.14-.08.25-.1.36h-2.06c-.78,0-1.53-.06-2.26-.18s-1.43-.35-2.09-.68c-.66-.33-1.28-.8-1.84-1.41-.56-.61-1.07-1.39-1.51-2.35-.44-.96-.8-2.15-1.08-3.56l.83-.28Zm.24-1.76h3.07v.97h-3.07v-.97Zm5.31-2.2h1.12v10.3h-1.12v-10.3Zm.64,3.91l.84-.49c.35.39.72.81,1.11,1.26.39.45.75.89,1.09,1.32s.61.82.82,1.17l-.92.57c-.19-.35-.45-.74-.78-1.18-.33-.44-.69-.9-1.06-1.37-.38-.47-.74-.9-1.1-1.29Z"/>
      <path class="cls-6" d="m318.13,40.39c.38-.11.81-.24,1.29-.38.48-.14.99-.31,1.53-.49.54-.18,1.08-.36,1.62-.54l.18,1.02c-.76.25-1.52.51-2.28.76-.77.26-1.46.49-2.07.69l-.27-1.06Zm.15-9.42h4.37v.99h-4.37v-.99Zm.14,4.06h4.02v.98h-4.02v-.98Zm1.6-3.67h1.01v8.68l-1.01.2v-8.88Zm2.07,10.12h9.09v.97h-9.09v-.97Zm1.08-2.88h7.53v.95h-7.53v-.95Zm.17-7.92h7.17v6.27h-7.17v-6.27Zm.97.92v1.78h5.19v-1.78h-5.19Zm0,2.63v1.81h5.19v-1.81h-5.19Zm2.14-3.12h.91v5.39h.08v5.42h-1.08v-5.42h.08v-5.39Z"/>
    </g>
    <g>
      <rect class="cls-6" x="164.19" y="135.54" width="252.72" height="25.55" rx="12.77" ry="12.77"/>
      <g class="cls-1">
        <path class="cls-2" d="m202.24,142.43h.24l.22-.06.73.49c-.52.89-1.18,1.66-1.99,2.32-.81.65-1.72,1.21-2.74,1.66-1.02.46-2.1.83-3.25,1.12s-2.31.51-3.5.67c-.04-.16-.1-.33-.2-.53-.09-.2-.19-.35-.29-.47,1.13-.14,2.24-.33,3.34-.58,1.1-.25,2.13-.58,3.09-.98.96-.4,1.82-.89,2.57-1.46.75-.57,1.35-1.23,1.79-2v-.18Zm-10.44,11.07h13.03v1.06h-13.03v-1.06Zm.62-11.07h10.22v1.04h-10.22v-1.04Zm1,7.6h9.72v1.01h-9.72v-1.01Zm1.31-6.93c.64.85,1.48,1.59,2.53,2.21s2.25,1.12,3.6,1.52c1.35.4,2.79.68,4.32.86-.08.08-.16.18-.25.3s-.17.24-.24.37c-.07.12-.13.23-.18.33-1.53-.2-2.97-.51-4.34-.95s-2.59-1-3.68-1.69-1.99-1.52-2.72-2.48l.96-.47Zm3,5.15h1.13v5.75h-1.13v-5.75Z"/>
        <path class="cls-2" d="m209.04,152.23c.24,0,.48.08.71.25s.54.36.93.59c.48.26,1.04.44,1.67.52.63.08,1.35.12,2.15.12.57,0,1.17-.01,1.82-.04.64-.02,1.27-.06,1.88-.1.61-.04,1.15-.08,1.62-.13-.04.1-.08.21-.12.35-.04.13-.08.26-.12.4-.03.13-.06.25-.07.36-.26,0-.61.02-1.03.04-.42.02-.87.04-1.36.05s-.96.03-1.43.04c-.47,0-.87.01-1.23.01-.87,0-1.64-.05-2.29-.15-.65-.1-1.23-.3-1.74-.58-.31-.18-.59-.35-.82-.52s-.43-.26-.61-.26-.38.08-.6.23c-.23.15-.46.36-.71.61-.25.25-.51.53-.77.84l-.68-.91c.5-.49.99-.9,1.47-1.22.48-.32.92-.49,1.31-.49Zm.4-5.44v5.84h-1.06v-4.81h-1.99v-1.03h3.04Zm-2.88-4.12l.82-.59c.27.24.55.49.83.77.28.28.54.56.79.84.24.28.45.53.6.76l-.88.65c-.14-.23-.33-.48-.57-.76-.24-.28-.5-.57-.78-.87-.28-.29-.55-.56-.82-.79Zm6.25-1.13l1.07.31c-.26.58-.57,1.15-.92,1.7-.35.55-.72,1.07-1.12,1.54-.4.47-.81.89-1.23,1.25-.06-.07-.15-.15-.26-.24-.11-.09-.23-.17-.34-.26-.11-.08-.21-.15-.3-.2.63-.5,1.22-1.11,1.76-1.83.55-.72.99-1.48,1.32-2.27Zm1.69,3.66h1.06c-.07.88-.18,1.71-.33,2.5s-.39,1.5-.72,2.15c-.33.65-.79,1.23-1.39,1.74s-1.37.94-2.32,1.28c-.06-.12-.15-.25-.26-.41-.12-.16-.23-.28-.34-.37.9-.3,1.62-.69,2.16-1.15s.96-.99,1.25-1.57c.29-.59.5-1.23.63-1.93s.22-1.45.26-2.24Zm-3.41-.26h7.6v3.76h-7.6v-3.76Zm1.01.88v2h5.53v-2h-5.53Zm.62-3.09h3.65v.88h-4.22l.57-.88Zm3.34,0h.22l.18-.04.73.44c-.15.28-.32.58-.53.89-.21.31-.42.6-.64.87s-.43.52-.64.75c-.11-.08-.24-.17-.4-.26-.16-.1-.3-.18-.43-.24.2-.2.39-.42.58-.68.19-.26.37-.52.54-.79.17-.27.29-.51.38-.73v-.21Zm-1.31,5.46h1v3.28c0,.18.04.29.12.35.08.05.25.08.53.08h1.85c.16,0,.27-.03.35-.08s.13-.17.16-.36.06-.47.07-.84c.11.07.25.14.43.21.18.07.34.12.48.15-.04.49-.11.87-.2,1.13-.09.26-.23.45-.42.54-.19.1-.44.15-.76.15h-2.06c-.41,0-.73-.04-.96-.12-.23-.08-.38-.21-.46-.4-.08-.19-.12-.46-.12-.82v-3.28Zm1.56,1.26l.65-.47c.28.21.57.45.87.74.29.29.51.55.66.77l-.69.53c-.15-.24-.36-.5-.64-.79-.28-.29-.56-.55-.85-.78Z"/>
        <path class="cls-2" d="m223.83,142.38h1.13v4.19c0,.66-.04,1.36-.11,2.12-.07.75-.22,1.52-.44,2.29-.22.77-.54,1.51-.97,2.22-.43.71-.99,1.36-1.7,1.93-.05-.07-.12-.16-.23-.26-.1-.11-.21-.21-.32-.31-.11-.1-.21-.17-.3-.22.67-.55,1.2-1.15,1.59-1.79.39-.65.69-1.31.88-2,.2-.69.32-1.37.38-2.04.06-.68.09-1.32.09-1.94v-4.18Zm.51,0h6.22v1.1h-6.22v-1.1Zm1.04,4.25l.82-.62c.35.34.73.72,1.12,1.12.39.41.76.8,1.12,1.19.35.39.64.73.87,1.02l-.88.75c-.22-.29-.5-.64-.85-1.04-.35-.4-.71-.82-1.1-1.24s-.75-.82-1.1-1.18Zm4.62-4.25h1.13v10.51c0,.32.03.53.09.62.06.09.19.13.4.13h1.34c.16,0,.27-.08.35-.24s.13-.44.15-.85c.03-.41.05-.98.07-1.73.15.12.32.22.52.32.2.09.37.16.53.2-.04.83-.1,1.5-.19,1.99-.09.49-.24.84-.44,1.06-.21.22-.5.32-.88.32h-1.6c-.37,0-.66-.05-.87-.16s-.36-.29-.45-.55c-.09-.26-.13-.63-.13-1.12v-10.5Z"/>
        <path class="cls-2" d="m239,153.9v-.79c1.06-1.05,1.96-1.97,2.69-2.77.74-.8,1.29-1.52,1.68-2.16.38-.64.57-1.25.57-1.82,0-.4-.07-.76-.21-1.07-.14-.31-.36-.55-.65-.72-.29-.17-.67-.26-1.12-.26s-.85.12-1.23.37c-.38.24-.71.54-1.01.88l-.78-.75c.43-.49.9-.88,1.4-1.16.5-.28,1.09-.43,1.78-.43.65,0,1.2.13,1.67.38s.83.61,1.09,1.07c.26.46.39,1,.39,1.62,0,.66-.19,1.32-.56,2-.37.68-.88,1.38-1.53,2.12-.65.74-1.38,1.55-2.2,2.42.27-.02.57-.04.88-.07.31-.03.61-.04.88-.04h3.04v1.16h-6.78Z"/>
        <path class="cls-2" d="m250.38,154.09c-.56,0-1.05-.07-1.48-.21-.43-.14-.8-.32-1.13-.54-.32-.23-.6-.47-.84-.73l.69-.87c.31.32.68.61,1.11.86.43.25.94.38,1.55.38.43,0,.81-.08,1.14-.24s.59-.38.77-.67c.19-.29.28-.63.28-1.02,0-.42-.1-.79-.32-1.1s-.56-.55-1.05-.72-1.15-.26-1.98-.26v-1.04c.74,0,1.33-.09,1.76-.26.43-.17.74-.41.93-.71s.29-.63.29-.99c0-.51-.16-.91-.49-1.21-.32-.3-.77-.45-1.34-.45-.43,0-.84.1-1.21.3-.38.2-.72.46-1.02.77l-.72-.85c.41-.37.86-.68,1.35-.93s1.04-.38,1.65-.38,1.15.1,1.63.31c.47.21.85.51,1.12.9.27.4.4.87.4,1.43,0,.64-.18,1.16-.53,1.57-.35.41-.81.72-1.38.93v.06c.42.11.8.28,1.15.52.34.24.62.53.82.89.21.36.31.78.31,1.27,0,.63-.16,1.16-.47,1.6-.31.44-.73.78-1.25,1.02-.52.24-1.1.36-1.75.36Z"/>
        <path class="cls-2" d="m255.97,153.9v-1.12h2.41v-7.73h-1.93v-.85c.48-.09.9-.2,1.26-.32.36-.13.68-.28.98-.46h1.03v9.37h2.16v1.12h-5.91Z"/>
        <path class="cls-2" d="m264.13,153.9v-1.12h2.41v-7.73h-1.93v-.85c.48-.09.9-.2,1.26-.32.36-.13.68-.28.98-.46h1.03v9.37h2.16v1.12h-5.91Z"/>
        <path class="cls-2" d="m275.41,154.09c-.52,0-1-.1-1.44-.31-.44-.21-.82-.52-1.15-.94-.32-.42-.58-.95-.76-1.58-.18-.63-.27-1.37-.27-2.21,0-1.05.11-1.94.32-2.68.22-.74.51-1.34.88-1.81s.8-.8,1.28-1.01c.48-.21.98-.32,1.5-.32.57,0,1.06.11,1.47.32.41.21.76.47,1.06.79l-.75.84c-.21-.25-.46-.46-.77-.6s-.62-.22-.95-.22c-.5,0-.96.15-1.38.44-.42.29-.76.78-1.01,1.47-.25.69-.38,1.62-.38,2.79,0,.86.09,1.59.28,2.18.19.59.45,1.04.8,1.35.35.3.77.46,1.26.46.35,0,.67-.1.95-.29s.5-.46.66-.8.24-.74.24-1.21-.07-.86-.22-1.19c-.15-.33-.37-.59-.65-.77-.29-.18-.65-.27-1.08-.27-.34,0-.72.11-1.12.34s-.78.61-1.15,1.15l-.04-1.06c.23-.29.48-.55.75-.76.27-.22.57-.38.87-.49.31-.11.6-.17.89-.17.61,0,1.14.12,1.59.36.45.24.8.6,1.04,1.08s.37,1.08.37,1.79c0,.67-.14,1.25-.42,1.76-.28.51-.65.9-1.12,1.18-.47.28-.99.42-1.54.42Z"/>
        <path class="cls-2" d="m283.24,154.09c-.7,0-1.29-.21-1.79-.63-.5-.42-.88-1.04-1.15-1.85-.27-.81-.4-1.81-.4-2.98s.13-2.15.4-2.96c.27-.8.65-1.41,1.15-1.82.5-.41,1.1-.62,1.79-.62s1.29.21,1.79.62c.5.41.88,1.02,1.15,1.82.27.8.4,1.79.4,2.96s-.14,2.17-.4,2.98c-.27.81-.65,1.43-1.15,1.85-.5.42-1.1.63-1.79.63Zm0-1.09c.41,0,.77-.15,1.08-.46.31-.3.55-.78.72-1.43.17-.65.26-1.48.26-2.5s-.09-1.85-.26-2.48-.41-1.1-.72-1.4c-.31-.29-.67-.44-1.08-.44s-.76.15-1.07.44c-.31.29-.56.76-.73,1.4s-.26,1.47-.26,2.48.09,1.85.26,2.5c.17.65.41,1.12.73,1.43.31.3.67.46,1.07.46Z"/>
        <path class="cls-2" d="m291.18,154.09c-.56,0-1.05-.07-1.48-.21-.43-.14-.8-.32-1.13-.54-.32-.23-.6-.47-.84-.73l.69-.87c.31.32.68.61,1.11.86.43.25.94.38,1.55.38.43,0,.81-.08,1.14-.24s.59-.38.77-.67c.19-.29.28-.63.28-1.02,0-.42-.1-.79-.32-1.1s-.56-.55-1.05-.72-1.15-.26-1.98-.26v-1.04c.74,0,1.33-.09,1.76-.26.43-.17.74-.41.93-.71s.29-.63.29-.99c0-.51-.16-.91-.49-1.21-.32-.3-.77-.45-1.34-.45-.43,0-.84.1-1.21.3-.38.2-.72.46-1.02.77l-.72-.85c.41-.37.86-.68,1.35-.93s1.04-.38,1.65-.38,1.15.1,1.63.31c.47.21.85.51,1.12.9.27.4.4.87.4,1.43,0,.64-.18,1.16-.53,1.57-.35.41-.81.72-1.38.93v.06c.42.11.8.28,1.15.52.34.24.62.53.82.89.21.36.31.78.31,1.27,0,.63-.16,1.16-.47,1.6-.31.44-.73.78-1.25,1.02-.52.24-1.1.36-1.75.36Z"/>
        <path class="cls-2" d="m299.56,154.09c-.7,0-1.29-.21-1.79-.63-.5-.42-.88-1.04-1.15-1.85-.27-.81-.4-1.81-.4-2.98s.13-2.15.4-2.96c.27-.8.65-1.41,1.15-1.82.5-.41,1.1-.62,1.79-.62s1.29.21,1.79.62c.5.41.88,1.02,1.15,1.82.27.8.4,1.79.4,2.96s-.14,2.17-.4,2.98c-.27.81-.65,1.43-1.15,1.85-.5.42-1.1.63-1.79.63Zm0-1.09c.41,0,.77-.15,1.08-.46.31-.3.55-.78.72-1.43.17-.65.26-1.48.26-2.5s-.09-1.85-.26-2.48-.41-1.1-.72-1.4c-.31-.29-.67-.44-1.08-.44s-.76.15-1.07.44c-.31.29-.56.76-.73,1.4s-.26,1.47-.26,2.48.09,1.85.26,2.5c.17.65.41,1.12.73,1.43.31.3.67.46,1.07.46Z"/>
        <path class="cls-2" d="m304.93,153.9v-1.12h2.41v-7.73h-1.93v-.85c.48-.09.9-.2,1.26-.32.36-.13.68-.28.98-.46h1.03v9.37h2.16v1.12h-5.91Z"/>
        <path class="cls-2" d="m315.88,154.09c-.7,0-1.29-.21-1.79-.63-.5-.42-.88-1.04-1.15-1.85-.27-.81-.4-1.81-.4-2.98s.13-2.15.4-2.96c.27-.8.65-1.41,1.15-1.82.5-.41,1.1-.62,1.79-.62s1.29.21,1.79.62c.5.41.88,1.02,1.15,1.82.27.8.4,1.79.4,2.96s-.14,2.17-.4,2.98c-.27.81-.65,1.43-1.15,1.85-.5.42-1.1.63-1.79.63Zm0-1.09c.41,0,.77-.15,1.08-.46.31-.3.55-.78.72-1.43.17-.65.26-1.48.26-2.5s-.09-1.85-.26-2.48-.41-1.1-.72-1.4c-.31-.29-.67-.44-1.08-.44s-.76.15-1.07.44c-.31.29-.56.76-.73,1.4s-.26,1.47-.26,2.48.09,1.85.26,2.5c.17.65.41,1.12.73,1.43.31.3.67.46,1.07.46Z"/>
        <path class="cls-2" d="m323.82,154.09c-.56,0-1.05-.07-1.48-.21-.43-.14-.8-.32-1.13-.54-.32-.23-.6-.47-.84-.73l.69-.87c.31.32.68.61,1.11.86.43.25.94.38,1.55.38.43,0,.81-.08,1.14-.24s.59-.38.77-.67c.19-.29.28-.63.28-1.02,0-.42-.1-.79-.32-1.1s-.56-.55-1.05-.72-1.15-.26-1.98-.26v-1.04c.74,0,1.33-.09,1.76-.26.43-.17.74-.41.93-.71s.29-.63.29-.99c0-.51-.16-.91-.49-1.21-.32-.3-.77-.45-1.34-.45-.43,0-.84.1-1.21.3-.38.2-.72.46-1.02.77l-.72-.85c.41-.37.86-.68,1.35-.93s1.04-.38,1.65-.38,1.15.1,1.63.31c.47.21.85.51,1.12.9.27.4.4.87.4,1.43,0,.64-.18,1.16-.53,1.57-.35.41-.81.72-1.38.93v.06c.42.11.8.28,1.15.52.34.24.62.53.82.89.21.36.31.78.31,1.27,0,.63-.16,1.16-.47,1.6-.31.44-.73.78-1.25,1.02-.52.24-1.1.36-1.75.36Z"/>
        <path class="cls-2" d="m335.2,143.08h1.04v1.46c0,.35-.04.74-.12,1.15-.08.41-.24.83-.48,1.26-.24.43-.6.85-1.07,1.26-.47.41-1.09.79-1.87,1.14-.08-.12-.19-.25-.32-.4-.14-.15-.27-.27-.4-.36.74-.29,1.33-.61,1.76-.96.43-.35.75-.7.96-1.07.21-.36.34-.72.4-1.07.06-.35.09-.66.09-.95v-1.46Zm-1.41-1.57l1.01.21c-.2.63-.45,1.23-.77,1.82s-.65,1.08-1.01,1.48c-.07-.06-.16-.12-.26-.19-.11-.07-.22-.14-.33-.21-.11-.07-.21-.12-.29-.15.37-.38.7-.83.99-1.35s.51-1.05.66-1.6Zm-1.65,3.56h6.66v.91h-6.66v-.91Zm1.57-2.29h4.7v.9h-4.7v-.9Zm.56,6.23h9.06v6.04h-1.12v-5.13h-6.85v5.16h-1.09v-6.07Zm.62,2.29h7.72v.87h-7.72v-.87Zm0,2.32h7.72v.91h-7.72v-.91Zm1.03-7.44c.14.08.34.19.6.35.26.15.53.32.82.49.29.18.56.34.81.49.25.15.43.27.54.35l-.76.75c-.14-.11-.33-.25-.57-.43-.24-.18-.5-.36-.76-.56-.27-.2-.53-.38-.78-.54-.25-.17-.45-.3-.61-.4l.72-.5Zm3.5-3.44h5.16v5.13h-5.16v-5.13Zm1.03,1v3.13h3.06v-3.13h-3.06Z"/>
        <path class="cls-2" d="m359.8,142.35v1.06h-11.2v10.06h11.54v1.04h-12.65v-12.16h12.31Zm-8.12,1.37l1.04.26c-.26.67-.61,1.3-1.04,1.9-.43.6-.87,1.1-1.35,1.51-.07-.06-.16-.12-.27-.2-.11-.07-.23-.14-.35-.21-.12-.07-.22-.13-.31-.18.48-.37.92-.83,1.32-1.37s.72-1.11.94-1.72Zm-2.26,4.48h10.07v.99h-10.07v-.99Zm4.43-2.71h1.1v2.46c0,.46-.06.93-.17,1.41-.11.48-.33.95-.66,1.42-.33.47-.81.91-1.44,1.32-.63.42-1.47.8-2.52,1.14-.07-.13-.17-.27-.3-.44-.13-.17-.26-.3-.38-.4,1-.29,1.79-.62,2.37-.99s1.02-.74,1.3-1.14c.28-.4.47-.79.56-1.19.09-.4.13-.78.13-1.14v-2.46Zm-2.46-.35h7.43v.96h-7.43v-.96Zm2.74,4.78l.69-.66c.46.32.94.68,1.45,1.07.51.39.99.78,1.44,1.17.46.39.83.74,1.12,1.05l-.75.75c-.27-.3-.63-.66-1.07-1.06-.44-.4-.91-.81-1.42-1.21-.51-.41-.99-.78-1.46-1.11Z"/>
        <path class="cls-2" d="m362.11,142.83h12.07v11.65h-1.13v-10.59h-9.82v10.7h-1.12v-11.76Zm.59,9.57h10.98v1.07h-10.98v-1.07Zm3.29-8.91h1.07c0,1.06-.05,2-.12,2.83s-.21,1.56-.4,2.18c-.2.63-.49,1.17-.88,1.63-.39.46-.92.85-1.57,1.18-.04-.1-.1-.2-.18-.31-.08-.11-.16-.21-.25-.32-.09-.1-.17-.18-.25-.24.59-.27,1.05-.61,1.39-1.01.34-.4.59-.87.76-1.43.17-.55.28-1.2.33-1.95.05-.74.09-1.6.11-2.57Zm3.13.21h1.04v4.84c0,.24.03.4.07.5.05.1.15.15.29.15h1.44c.12,0,.26,0,.43-.02.17-.01.31-.03.4-.05.02.15.03.31.04.48,0,.18.02.33.04.46-.09.03-.22.05-.39.06-.17,0-.34.01-.51.01h-1.6c-.34,0-.61-.06-.79-.17-.19-.11-.31-.29-.38-.52-.07-.24-.1-.54-.1-.93v-4.81Z"/>
        <path class="cls-2" d="m375.98,152.82c.58-.13,1.27-.29,2.07-.48s1.62-.39,2.45-.59l.12,1c-.77.21-1.55.4-2.32.59s-1.48.37-2.1.52l-.21-1.04Zm.16-10.18h4.32v1.01h-4.32v-1.01Zm.21,4.73h3.9v1h-3.9v-1Zm1.46-4.35h1.01v9.62l-1.01.22v-9.84Zm5.38-1.47h1v6.28c0,.76-.04,1.47-.11,2.15-.07.68-.22,1.33-.43,1.94-.22.61-.53,1.18-.96,1.71s-.98,1.01-1.69,1.46c-.05-.08-.11-.17-.19-.27s-.16-.2-.26-.29-.17-.17-.24-.23c.64-.39,1.15-.83,1.53-1.3.38-.47.67-.98.87-1.53.2-.54.33-1.12.39-1.73.06-.61.1-1.25.1-1.9v-6.28Zm-2.13,3.04l.9.1c0,.67-.03,1.33-.07,1.98-.03.66-.1,1.27-.21,1.85-.11.58-.27,1.08-.5,1.5l-.81-.57c.2-.36.34-.8.44-1.32.1-.52.16-1.08.2-1.68s.05-1.23.05-1.87Zm2.47,8.92h6.12v1.03h-6.12v-1.03Zm.99-10.95h4.85v1.01h-4.85v-1.01Zm.25,5.38h4.37v1h-4.37v-1Zm1.62-4.98h1.04v11.1h-1.04v-11.1Z"/>
      </g>
    </g>
    <g>
      <g>
        <path class="cls-6" d="m108.59,87.53l4.79,1.39c-.78,1.54-1.75,3.07-2.9,4.6-1.15,1.53-2.28,2.81-3.4,3.84-.28-.31-.67-.64-1.16-1.01-.49-.36-.99-.73-1.51-1.09-.52-.36-.97-.66-1.37-.88,1.12-.84,2.18-1.88,3.17-3.11.99-1.23,1.78-2.48,2.37-3.74Zm-5.21-4.7h20.79v4.41h-20.79v-4.41Zm.5-20.08h20.58v4.41h-20.58v-4.41Zm3.28-4.45h4.54v26.12h-4.54v-26.12Zm2.18,11.34h10.04v3.82h-10.04v-3.82Zm0,6.51h10.04v3.86h-10.04v-3.86Zm5.5,13.27l3.82-2.1c.56.59,1.14,1.25,1.74,1.99.6.74,1.18,1.47,1.72,2.18.55.71.99,1.37,1.32,1.95l-4.07,2.35c-.28-.56-.68-1.21-1.2-1.95-.52-.74-1.07-1.51-1.66-2.29s-1.15-1.5-1.68-2.14Zm2.1-31.12h4.62v26.12h-4.62v-26.12Zm8.9,1.38h4.75v15.46c0,1.65-.05,3.46-.15,5.42-.1,1.96-.29,3.94-.59,5.94-.29,2-.71,3.94-1.24,5.82-.53,1.88-1.26,3.55-2.18,5.04-.25-.31-.63-.65-1.13-1.03s-1.01-.74-1.51-1.07-.95-.59-1.34-.76c1.06-1.82,1.83-3.85,2.31-6.09.48-2.24.78-4.52.9-6.83s.19-4.46.19-6.45v-15.46Zm2.06,19.11h10.92v4.49h-10.92v-4.49Zm.04-19.11h10.84v4.58h-10.84v-4.58Zm0,9.49h10.84v4.45h-10.84v-4.45Zm8.69-9.49h4.83v32c0,1.23-.14,2.21-.42,2.92-.28.71-.78,1.28-1.51,1.7-.73.39-1.64.64-2.75.76-1.11.11-2.44.15-4.01.12-.08-.67-.27-1.48-.55-2.41-.28-.94-.57-1.73-.88-2.37.9.06,1.79.08,2.67.08h1.79c.31,0,.52-.06.65-.19.13-.13.19-.34.19-.65v-31.96Z"/>
        <path class="cls-6" d="m161.51,77.49l4.03,1.64c-.98,1.68-2.1,3.3-3.36,4.87-1.26,1.57-2.61,3.06-4.05,4.47-1.44,1.41-2.95,2.72-4.51,3.91-1.57,1.19-3.15,2.22-4.75,3.09-.28-.45-.64-.95-1.07-1.49-.43-.54-.88-1.09-1.34-1.64-.46-.55-.9-.99-1.32-1.32,1.6-.7,3.18-1.54,4.75-2.52,1.57-.98,3.08-2.06,4.54-3.25s2.79-2.45,3.99-3.78c1.2-1.33,2.24-2.65,3.11-3.97Zm-14.78-13.27h37.04v5.04h-37.04v-5.04Zm1.93,10.54h33.18v4.96h-33.18v-4.96Zm13.73-16.97h5.38v39.44h-5.38v-39.44Zm6.3,19.4c.87,1.34,1.91,2.67,3.13,3.99,1.22,1.32,2.55,2.57,4.01,3.76,1.46,1.19,2.97,2.28,4.56,3.28,1.58.99,3.17,1.83,4.77,2.5-.42.36-.87.81-1.34,1.34-.48.53-.93,1.08-1.37,1.64-.43.56-.8,1.06-1.11,1.51-1.6-.87-3.17-1.9-4.72-3.09-1.55-1.19-3.06-2.49-4.51-3.91-1.46-1.41-2.81-2.91-4.07-4.49-1.26-1.58-2.38-3.2-3.36-4.85l4.03-1.68Z"/>
        <path class="cls-6" d="m188.55,76.15c-.06-.31-.18-.74-.36-1.28-.18-.55-.38-1.11-.59-1.68s-.41-1.06-.61-1.45c.45-.11.86-.38,1.24-.82.38-.43.79-.99,1.24-1.66.22-.34.55-.89.99-1.66.43-.77.91-1.69,1.43-2.75.52-1.06,1.02-2.21,1.51-3.44.49-1.23.93-2.45,1.32-3.65l4.45,2.1c-.64,1.62-1.41,3.27-2.31,4.94s-1.83,3.26-2.81,4.79c-.98,1.53-1.96,2.91-2.94,4.14v.08c-.5.34-.93.62-1.28.86-.35.24-.65.49-.9.76-.25.27-.38.51-.38.74Zm.34,10.25c-.08-.28-.2-.68-.36-1.2-.15-.52-.34-1.04-.55-1.58-.21-.53-.4-.99-.57-1.39.53-.11,1.06-.4,1.58-.86.52-.46,1.1-1.07,1.74-1.83.34-.36.83-.98,1.49-1.85.66-.87,1.39-1.89,2.18-3.07.8-1.18,1.6-2.46,2.42-3.84.81-1.39,1.57-2.79,2.27-4.22l3.82,2.44c-1.54,2.72-3.28,5.41-5.21,8.09-1.93,2.67-3.89,5-5.88,6.99v.13c-.59.28-1.08.53-1.47.76-.39.22-.74.46-1.03.71s-.44.49-.44.71Zm-1.39,4.24c1.74-.34,3.84-.78,6.32-1.34,2.48-.56,5-1.13,7.58-1.72l.5,4.16c-2.32.64-4.67,1.28-7.04,1.91-2.37.63-4.53,1.22-6.49,1.79l-.88-4.79Zm1.05-14.49l-.13-3.4,2.02-1.34,6.97-.5c-.11.59-.22,1.26-.31,2.02-.1.76-.15,1.39-.15,1.89-1.54.14-2.81.27-3.82.4-1.01.13-1.81.24-2.42.34-.6.1-1.06.2-1.39.29-.32.1-.58.2-.78.32Zm.34,10.25l-.29-3.91,2.06-1.51,10.58-1.72c-.08.62-.14,1.34-.17,2.16-.03.83-.03,1.51,0,2.04-2.35.45-4.28.83-5.78,1.16s-2.67.58-3.51.78c-.84.2-1.47.37-1.89.52-.42.15-.76.32-1.01.48Zm17.22-2.18l4.62,1.51c-.56,1.06-1.21,2.18-1.95,3.34-.74,1.16-1.5,2.27-2.27,3.32-.77,1.05-1.51,1.97-2.21,2.75-.31-.28-.71-.6-1.2-.95-.49-.35-.99-.7-1.49-1.05-.5-.35-.95-.64-1.34-.86,1.06-1.04,2.13-2.29,3.19-3.76,1.06-1.47,1.95-2.9,2.65-4.31Zm-3.78-6.13h23.94v4.37h-23.94v-4.37Zm.25-15.46h23.56v8.11h-5v-3.82h-13.82v3.82h-4.75v-8.11Zm3.78,7.85h15.92v4.33h-15.92v-4.33Zm5.92,9.49h4.91v12.22c0,1.12-.12,2-.36,2.65-.24.64-.74,1.15-1.49,1.51-.76.34-1.63.55-2.62.63-.99.08-2.15.11-3.46.08-.08-.67-.26-1.42-.53-2.25-.27-.83-.55-1.56-.86-2.21.76.03,1.5.04,2.25.04h1.45c.48,0,.71-.2.71-.59v-12.1Zm-1.43-21.34l4.87-1.18c.5.92.98,1.93,1.43,3.02.45,1.09.77,2.04.97,2.86l-5.12,1.34c-.14-.81-.42-1.79-.84-2.94s-.85-2.18-1.3-3.11Zm7.48,27.3l4.24-1.76c.59.9,1.2,1.86,1.83,2.9.63,1.04,1.21,2.05,1.74,3.04.53.99.95,1.88,1.26,2.67l-4.54,2.02c-.28-.78-.67-1.69-1.15-2.71-.49-1.02-1.04-2.07-1.64-3.15-.6-1.08-1.18-2.08-1.74-3Z"/>
        <path class="cls-6" d="m249.5,57.62l4.49,2.31c-1.71,2.46-3.68,4.75-5.92,6.87-2.24,2.12-4.65,4.03-7.22,5.75-2.58,1.72-5.19,3.2-7.85,4.43-.39-.73-.92-1.52-1.6-2.37-.67-.85-1.37-1.6-2.1-2.25,2.6-1.01,5.17-2.25,7.71-3.72s4.88-3.14,7.04-5,3.98-3.87,5.46-6.03Zm-13.61,22.01h27.26v17.39h-5.42v-12.98h-16.67v13.15h-5.17v-17.55Zm2.23,11.04h21.71v4.66h-21.71v-4.66Zm.55-19.32h21.04v4.66h-21.04v-4.66Zm12.56-10.84c2.91,2.91,5.88,5.24,8.9,6.97,3.02,1.74,6.08,3.15,9.16,4.24-.64.59-1.29,1.31-1.95,2.16s-1.16,1.69-1.49,2.5c-2.13-1.01-4.22-2.11-6.28-3.3-2.06-1.19-4.13-2.62-6.22-4.3-2.09-1.68-4.24-3.71-6.45-6.09l4.33-2.18Z"/>
        <path class="cls-6" d="m272.97,81.98h36.54v4.2h-36.54v-4.2Zm17.43-13.73h5.33c-.11,2.97-.29,5.74-.52,8.32-.24,2.58-.71,4.93-1.41,7.06-.7,2.13-1.75,4.05-3.15,5.77-1.4,1.72-3.27,3.23-5.61,4.54-2.34,1.3-5.31,2.39-8.93,3.25-.22-.67-.62-1.43-1.18-2.27-.56-.84-1.11-1.53-1.64-2.06,3.3-.73,6.01-1.62,8.11-2.69,2.1-1.06,3.75-2.31,4.94-3.74,1.19-1.43,2.06-3.04,2.6-4.85s.9-3.82,1.07-6.05.29-4.65.38-7.29Zm-17.05-6.51h35.7v9.66h-5.29v-4.96h-25.41v4.96h-5v-9.66Zm2.23,15.16l2.86-3.36c.76.34,1.54.74,2.35,1.2s1.58.95,2.31,1.47c.73.52,1.32,1,1.76,1.45l-3.02,3.78c-.45-.47-1.01-.99-1.7-1.53-.69-.55-1.43-1.08-2.23-1.62-.8-.53-1.58-.99-2.33-1.39Zm4.28-6.3l2.94-3.28c.73.34,1.48.76,2.27,1.26.78.5,1.53,1.02,2.25,1.55.71.53,1.29,1.04,1.74,1.51l-3.15,3.61c-.39-.47-.92-.99-1.6-1.55-.67-.56-1.4-1.12-2.18-1.68-.79-.56-1.54-1.04-2.27-1.43Zm7.48-11.76l5.08-1.55c.56.87,1.11,1.83,1.66,2.9.55,1.06.95,2,1.2,2.81l-5.38,1.72c-.2-.78-.55-1.73-1.05-2.84-.5-1.11-1.01-2.12-1.51-3.04Zm5.04,31.88l2.35-3.74c1.82.5,3.65,1.1,5.5,1.79s3.58,1.4,5.19,2.14c1.61.74,2.99,1.46,4.14,2.16l-3.07,3.99c-1.06-.76-2.35-1.51-3.86-2.27-1.51-.76-3.15-1.49-4.91-2.2-1.76-.71-3.54-1.34-5.33-1.87Z"/>
        <path class="cls-6" d="m313.21,90.72c1.34-.39,2.91-.87,4.68-1.43,1.78-.56,3.65-1.17,5.63-1.83,1.97-.66,3.94-1.32,5.9-1.99l.84,4.2c-2.69,1.04-5.43,2.05-8.21,3.04-2.79.99-5.3,1.9-7.54,2.71l-1.3-4.7Zm1.72-14.32h3.99v15.29h-3.99v-15.29Zm.13-17.01h14.74v13.94h-14.74v-13.94Zm4.28,4.28v5.42h5.88v-5.42h-5.88Zm1.13,7.98h4.54v18.77h-4.54v-18.77Zm1.97,5.96h6.8v4.24h-6.8v-4.24Zm25.87,1.13l4.24,1.89c-1.57,2.49-3.44,4.75-5.61,6.76s-4.56,3.79-7.16,5.33c-2.6,1.54-5.36,2.84-8.27,3.91-.31-.64-.75-1.35-1.32-2.12-.57-.77-1.16-1.45-1.74-2.04,2.77-.84,5.41-1.92,7.92-3.23,2.51-1.32,4.79-2.85,6.85-4.6,2.06-1.75,3.76-3.72,5.1-5.9Zm-18.1-2.18l21.08-3.86.8,4.41-21.04,3.95-.84-4.49Zm.92-9.07l19.03-2.9.8,4.41-18.98,3.02-.84-4.54Zm5.12-9.7h4.87c-.03,2.83.03,5.64.17,8.42.14,2.79.36,5.47.67,8.06.31,2.59.68,4.98,1.11,7.18.43,2.2.92,4.12,1.45,5.75.53,1.64,1.11,2.91,1.74,3.82s1.27,1.37,1.91,1.37c.28,0,.51-.14.69-.42.18-.28.33-.75.44-1.41.11-.66.2-1.55.25-2.67.48.59,1.05,1.13,1.72,1.62s1.26.86,1.76,1.11c-.25,1.71-.59,3.03-1.01,3.97-.42.94-.98,1.6-1.68,1.97-.7.38-1.61.57-2.73.57-1.4,0-2.66-.53-3.78-1.6-1.12-1.06-2.09-2.53-2.92-4.41s-1.53-4.07-2.12-6.57-1.07-5.23-1.45-8.17c-.38-2.94-.65-5.99-.82-9.13-.17-3.15-.27-6.31-.29-9.47Zm5.38,3.19l2.94-2.65c.87.5,1.82,1.11,2.86,1.81,1.04.7,1.85,1.32,2.44,1.85l-3.02,2.94c-.59-.56-1.39-1.22-2.42-1.97-1.02-.76-1.95-1.41-2.79-1.97Z"/>
        <path class="cls-6" d="m372.26,57.83h5.5c-.03,2.13-.09,4.38-.19,6.74-.1,2.37-.31,4.77-.65,7.2s-.88,4.85-1.62,7.25c-.74,2.39-1.78,4.69-3.11,6.89s-3.04,4.25-5.12,6.15c-2.09,1.9-4.63,3.58-7.62,5.04-.39-.67-.94-1.41-1.64-2.22-.7-.81-1.41-1.48-2.14-2.02,2.86-1.29,5.25-2.78,7.18-4.47,1.93-1.69,3.51-3.53,4.72-5.5,1.22-1.97,2.15-4.03,2.79-6.17.64-2.14,1.08-4.3,1.32-6.49.24-2.18.38-4.33.44-6.43.06-2.1.1-4.09.13-5.96Zm-15.79,11.3h37.38v5.21h-37.38v-5.21Zm21.59,2.1c.84,3.19,2,6.17,3.49,8.95,1.48,2.77,3.33,5.2,5.52,7.27,2.2,2.07,4.77,3.71,7.71,4.91-.42.36-.86.83-1.32,1.39-.46.56-.91,1.14-1.34,1.74-.43.6-.79,1.14-1.07,1.62-3.22-1.51-5.98-3.46-8.29-5.84-2.31-2.38-4.25-5.16-5.82-8.34-1.57-3.18-2.88-6.69-3.95-10.52l5.08-1.18Z"/>
        <path class="cls-6" d="m406.66,57.96l4.87,1.55c-.9,2.38-1.96,4.78-3.19,7.18-1.23,2.41-2.58,4.68-4.03,6.83-1.46,2.14-2.96,4.01-4.49,5.61-.17-.42-.41-.97-.74-1.64s-.67-1.36-1.03-2.06c-.36-.7-.7-1.26-1.01-1.68,1.29-1.29,2.53-2.77,3.72-4.45,1.19-1.68,2.29-3.49,3.32-5.42,1.02-1.93,1.88-3.91,2.58-5.92Zm-4.24,11.63l5.08-5.08v32.68h-5.08v-27.59Zm15.37-11.38l4.83,1.26c-.78,2.27-1.7,4.52-2.75,6.76s-2.19,4.33-3.42,6.28c-1.23,1.95-2.49,3.66-3.78,5.14-.25-.34-.62-.73-1.09-1.18-.48-.45-.96-.89-1.45-1.32-.49-.43-.93-.78-1.32-1.03,1.26-1.26,2.44-2.74,3.55-4.45,1.11-1.71,2.13-3.55,3.07-5.52s1.73-3.95,2.37-5.94Zm-.97,6.47h20.12v4.79h-22.51l2.39-4.79Zm2.94,1.6h5.21v30.95h-5.21v-30.95Zm2.52,16.93h14.15v4.7h-14.15v-4.7Zm.04-9.32h13.57v4.62h-13.57v-4.62Z"/>
        <path class="cls-6" d="m440.26,90.26h37.8v5.04h-37.8v-5.04Zm.55-22.22l4.62-1.39c.67,1.65,1.36,3.43,2.06,5.33.7,1.9,1.36,3.75,1.97,5.54s1.09,3.36,1.43,4.7l-5.04,1.85c-.28-1.37-.7-2.97-1.26-4.81-.56-1.83-1.17-3.74-1.83-5.71-.66-1.97-1.31-3.81-1.95-5.52Zm10.37-9.7h5.17v33.81h-5.17v-33.81Zm10.75,0h5.17v34.1h-5.17v-34.1Zm11.17,8.4l4.62,2.18c-.64,1.76-1.35,3.58-2.12,5.44-.77,1.86-1.55,3.65-2.35,5.36-.8,1.71-1.56,3.25-2.29,4.62l-4.16-2.18c.73-1.32,1.48-2.84,2.27-4.58s1.53-3.55,2.25-5.44c.71-1.89,1.31-3.69,1.79-5.4Z"/>
      </g>
      <g>
        <path class="cls-6" d="m168.26,121.48v-11.86h7.3v1.98h-4.93v3.09h4.21v1.98h-4.21v4.8h-2.37Z"/>
        <path class="cls-6" d="m178.62,111.06c-.42,0-.75-.11-.99-.34-.25-.23-.37-.54-.37-.94s.12-.69.37-.93c.25-.23.58-.35.99-.35.39,0,.72.12.98.35s.38.54.38.93-.13.71-.38.94c-.26.23-.58.34-.98.34Zm-1.18,10.42v-8.96h2.35v8.96h-2.35Z"/>
        <path class="cls-6" d="m182.3,121.48v-8.96h1.92l.18,1.18h.05c.39-.38.83-.71,1.3-.99s1.01-.42,1.62-.42c.97,0,1.67.32,2.11.95.44.63.66,1.52.66,2.65v5.58h-2.35v-5.29c0-.69-.1-1.18-.3-1.46s-.52-.42-.97-.42c-.36,0-.68.09-.95.26-.27.17-.57.42-.9.75v6.16h-2.35Z"/>
        <path class="cls-6" d="m194.74,121.71c-.52,0-.98-.12-1.38-.34-.4-.23-.71-.55-.93-.95-.22-.41-.33-.86-.33-1.38,0-.95.41-1.69,1.23-2.22.82-.53,2.13-.89,3.92-1.08-.01-.3-.06-.56-.16-.79-.1-.23-.25-.41-.47-.55s-.51-.21-.89-.21c-.42,0-.83.08-1.23.24-.41.16-.82.37-1.23.62l-.83-1.57c.35-.22.73-.42,1.12-.59.39-.17.81-.31,1.25-.42.44-.11.89-.17,1.36-.17.76,0,1.39.15,1.9.45s.9.74,1.15,1.33c.26.59.38,1.31.38,2.18v5.23h-1.92l-.16-.96h-.08c-.38.34-.8.62-1.25.85-.45.22-.93.34-1.46.34Zm.78-1.84c.33,0,.63-.08.9-.23.27-.15.55-.37.82-.65v-1.79c-.72.08-1.3.21-1.73.37s-.73.35-.91.57-.27.46-.27.73c0,.35.11.61.33.77s.5.24.86.24Z"/>
        <path class="cls-6" d="m204.23,121.71c-.55,0-.99-.12-1.31-.34-.32-.23-.55-.55-.7-.96-.14-.41-.22-.89-.22-1.43v-10.26h2.35v10.35c0,.27.05.45.15.56.1.11.21.16.31.16.05,0,.1,0,.14,0,.04,0,.1-.01.18-.02l.29,1.74c-.14.05-.31.1-.5.14s-.43.06-.7.06Z"/>
        <path class="cls-6" d="m215.69,121.71c-.75,0-1.45-.13-2.1-.39-.65-.26-1.22-.65-1.72-1.18-.5-.52-.89-1.16-1.17-1.92-.28-.76-.42-1.63-.42-2.61s.14-1.85.43-2.62.69-1.41,1.19-1.94c.51-.53,1.09-.94,1.76-1.22.67-.28,1.37-.42,2.12-.42s1.43.15,2.02.46c.59.3,1.07.66,1.45,1.06l-1.23,1.5c-.3-.3-.63-.54-.98-.72s-.76-.27-1.21-.27c-.6,0-1.13.16-1.61.49-.47.33-.85.79-1.11,1.4s-.4,1.34-.4,2.19.12,1.6.38,2.22c.25.61.61,1.08,1.07,1.42.46.33,1,.5,1.62.5.51,0,.97-.11,1.37-.33.4-.22.75-.5,1.06-.84l1.26,1.47c-.49.58-1.05,1.01-1.68,1.3-.63.29-1.33.44-2.11.44Z"/>
        <path class="cls-6" d="m224.92,121.71c-.75,0-1.45-.19-2.1-.56-.66-.37-1.19-.91-1.59-1.61s-.61-1.54-.61-2.54.2-1.84.61-2.54c.41-.7.94-1.23,1.59-1.61.66-.37,1.36-.56,2.1-.56.57,0,1.1.11,1.62.32.51.21.97.52,1.38.92s.72.89.96,1.47c.23.58.35,1.25.35,1.99,0,.99-.2,1.84-.61,2.54-.41.7-.94,1.23-1.59,1.61-.66.37-1.36.56-2.1.56Zm0-1.92c.41,0,.75-.12,1.03-.34.28-.23.5-.55.64-.97.14-.42.22-.91.22-1.47s-.07-1.06-.22-1.47c-.14-.42-.36-.74-.64-.97-.28-.23-.63-.34-1.03-.34s-.75.12-1.03.34c-.28.23-.5.55-.64.97-.14.42-.22.91-.22,1.47s.07,1.06.22,1.47c.14.42.36.74.64.97.28.23.63.34,1.03.34Z"/>
        <path class="cls-6" d="m231.19,121.48v-8.96h1.92l.18,1.2h.05c.37-.38.78-.72,1.22-1,.44-.28.95-.42,1.54-.42.64,0,1.15.14,1.54.41.39.27.69.66.9,1.16.43-.44.87-.81,1.32-1.11s.97-.46,1.54-.46c.96,0,1.66.32,2.1.95.44.63.66,1.52.66,2.65v5.58h-2.34v-5.29c0-.69-.1-1.18-.3-1.46-.2-.28-.52-.42-.94-.42-.26,0-.53.08-.81.25-.28.17-.59.42-.92.76v6.16h-2.35v-5.29c0-.69-.1-1.18-.3-1.46-.2-.28-.52-.42-.94-.42-.25,0-.51.08-.81.25-.29.17-.59.42-.9.76v6.16h-2.35Z"/>
        <path class="cls-6" d="m246.61,124.92v-12.4h1.92l.18.93h.05c.37-.32.79-.59,1.24-.82.45-.22.92-.34,1.4-.34.74,0,1.37.19,1.89.57s.93.91,1.21,1.58.42,1.48.42,2.41c0,1.02-.18,1.9-.54,2.62-.36.73-.83,1.28-1.42,1.66-.58.38-1.2.57-1.85.57-.38,0-.77-.09-1.14-.26-.38-.17-.74-.41-1.08-.72l.08,1.46v2.74h-2.35Zm3.98-5.15c.35,0,.67-.1.96-.31s.52-.53.69-.95.26-.97.26-1.62c0-.56-.06-1.05-.19-1.45-.13-.4-.32-.7-.58-.9s-.59-.3-1.01-.3c-.3,0-.59.08-.87.22-.28.15-.58.38-.89.69v3.95c.29.26.57.43.85.53s.54.14.78.14Z"/>
        <path class="cls-6" d="m256.92,121.48v-8.96h1.92l.18,1.58h.05c.33-.59.72-1.04,1.17-1.34.45-.31.91-.46,1.38-.46.26,0,.46.02.62.06.16.04.3.08.42.13l-.38,2.03c-.17-.04-.32-.08-.46-.1-.13-.03-.3-.04-.5-.04-.34,0-.7.13-1.08.4-.38.27-.7.72-.95,1.36v5.34h-2.35Z"/>
        <path class="cls-6" d="m267.54,121.71c-.83,0-1.58-.19-2.26-.56s-1.21-.91-1.61-1.62c-.4-.7-.6-1.55-.6-2.53,0-.73.11-1.38.34-1.95s.54-1.07.94-1.48c.4-.41.85-.72,1.34-.94s1.01-.33,1.54-.33c.82,0,1.51.18,2.06.55.55.37.97.87,1.26,1.52s.42,1.38.42,2.22c0,.21-.01.42-.03.62s-.05.35-.08.47h-5.52c.06.48.21.89.43,1.22.22.33.51.58.86.74.35.17.75.25,1.2.25.36,0,.7-.05,1.02-.15.32-.1.64-.25.98-.46l.8,1.44c-.44.3-.93.54-1.47.72-.54.18-1.09.27-1.65.27Zm-2.22-5.62h3.66c0-.6-.14-1.07-.41-1.43-.27-.36-.7-.54-1.29-.54-.31,0-.6.07-.88.22s-.51.36-.7.66c-.19.29-.32.66-.38,1.1Z"/>
        <path class="cls-6" d="m272.93,121.48v-12.77h2.35v3.22l-.11,1.68c.35-.34.76-.65,1.22-.91.46-.27.99-.4,1.6-.4.97,0,1.67.32,2.11.95.44.63.66,1.52.66,2.65v5.58h-2.35v-5.29c0-.69-.1-1.18-.3-1.46s-.52-.42-.97-.42c-.36,0-.68.09-.95.26-.27.17-.57.42-.9.75v6.16h-2.35Z"/>
        <path class="cls-6" d="m287.08,121.71c-.83,0-1.58-.19-2.26-.56s-1.21-.91-1.61-1.62c-.4-.7-.6-1.55-.6-2.53,0-.73.11-1.38.34-1.95s.54-1.07.94-1.48c.4-.41.85-.72,1.34-.94s1.01-.33,1.54-.33c.82,0,1.51.18,2.06.55.55.37.97.87,1.26,1.52.28.65.42,1.38.42,2.22,0,.21-.01.42-.03.62s-.05.35-.08.47h-5.52c.06.48.21.89.43,1.22.22.33.51.58.86.74.35.17.75.25,1.2.25.36,0,.7-.05,1.02-.15.32-.1.65-.25.98-.46l.8,1.44c-.44.3-.93.54-1.47.72-.54.18-1.09.27-1.65.27Zm-2.22-5.62h3.66c0-.6-.14-1.07-.41-1.43-.27-.36-.7-.54-1.29-.54-.31,0-.6.07-.88.22-.28.14-.51.36-.7.66-.19.29-.32.66-.38,1.1Z"/>
        <path class="cls-6" d="m292.47,121.48v-8.96h1.92l.18,1.18h.05c.39-.38.83-.71,1.3-.99.47-.28,1.01-.42,1.62-.42.97,0,1.67.32,2.11.95s.66,1.52.66,2.65v5.58h-2.35v-5.29c0-.69-.1-1.18-.3-1.46s-.52-.42-.97-.42c-.36,0-.68.09-.95.26-.27.17-.57.42-.9.75v6.16h-2.35Z"/>
        <path class="cls-6" d="m305.29,121.71c-.6,0-1.2-.12-1.82-.35s-1.14-.53-1.59-.9l1.07-1.49c.39.3.79.54,1.18.71.39.18.8.26,1.22.26.45,0,.78-.09.98-.26.21-.18.31-.4.31-.68,0-.22-.09-.41-.27-.57-.18-.16-.42-.29-.7-.42-.29-.12-.59-.24-.9-.36-.37-.15-.74-.33-1.11-.54-.37-.21-.67-.49-.92-.82-.25-.34-.37-.75-.37-1.26,0-.53.14-1.01.42-1.42.28-.41.66-.73,1.16-.97.5-.23,1.09-.35,1.77-.35s1.23.11,1.74.34c.51.22.94.48,1.3.77l-1.06,1.42c-.32-.24-.64-.42-.95-.56-.32-.14-.64-.21-.97-.21-.42,0-.72.08-.91.24-.19.16-.29.37-.29.62,0,.21.08.39.24.54.16.14.38.27.66.38s.57.22.88.34c.3.11.59.23.89.38.29.14.56.32.81.52.25.2.44.45.58.74.14.29.22.65.22,1.06,0,.52-.14,1-.41,1.43-.27.43-.67.77-1.2,1.02-.53.25-1.18.38-1.96.38Z"/>
        <path class="cls-6" d="m311.83,111.06c-.42,0-.75-.11-.99-.34-.25-.23-.37-.54-.37-.94s.12-.69.37-.93c.25-.23.58-.35.99-.35.39,0,.72.12.98.35s.38.54.38.93-.13.71-.38.94c-.26.23-.58.34-.98.34Zm-1.18,10.42v-8.96h2.35v8.96h-2.35Z"/>
        <path class="cls-6" d="m317.53,121.48l-3.06-8.96h2.37l1.3,4.46c.13.45.25.9.38,1.35.12.45.24.91.36,1.37h.08c.12-.46.24-.91.36-1.37.12-.45.24-.9.36-1.35l1.31-4.46h2.26l-2.99,8.96h-2.72Z"/>
        <path class="cls-6" d="m328.41,121.71c-.83,0-1.58-.19-2.26-.56s-1.21-.91-1.61-1.62c-.4-.7-.6-1.55-.6-2.53,0-.73.11-1.38.34-1.95s.54-1.07.94-1.48c.4-.41.85-.72,1.34-.94s1.01-.33,1.54-.33c.82,0,1.51.18,2.06.55.55.37.97.87,1.26,1.52s.42,1.38.42,2.22c0,.21-.01.42-.03.62s-.05.35-.08.47h-5.52c.06.48.21.89.43,1.22.22.33.51.58.86.74.35.17.75.25,1.2.25.36,0,.7-.05,1.02-.15.32-.1.64-.25.98-.46l.8,1.44c-.44.3-.93.54-1.47.72-.54.18-1.09.27-1.65.27Zm-2.22-5.62h3.66c0-.6-.14-1.07-.41-1.43-.27-.36-.7-.54-1.29-.54-.31,0-.6.07-.88.22s-.51.36-.7.66c-.19.29-.32.66-.38,1.1Z"/>
        <path class="cls-6" d="m342.33,121.71c-1.05,0-1.97-.25-2.76-.74-.79-.5-1.42-1.21-1.86-2.14-.45-.93-.67-2.04-.67-3.33s.22-2.37.67-3.28,1.07-1.6,1.86-2.08c.79-.48,1.71-.72,2.76-.72s1.98.24,2.77.73c.79.49,1.41,1.18,1.86,2.08.45.9.67,1.99.67,3.27s-.22,2.4-.67,3.33c-.45.93-1.07,1.64-1.86,2.14-.79.5-1.71.74-2.77.74Zm0-2.05c.59,0,1.1-.17,1.53-.51.43-.34.76-.82,1-1.45.23-.62.35-1.36.35-2.2s-.12-1.57-.35-2.17c-.24-.6-.57-1.07-1-1.39-.43-.33-.94-.49-1.53-.49s-1.1.16-1.53.49c-.43.33-.76.79-.99,1.39-.23.6-.34,1.33-.34,2.17s.12,1.58.34,2.2c.23.62.56,1.11.99,1.45.43.34.94.51,1.53.51Z"/>
        <path class="cls-6" d="m349.75,124.92v-12.4h1.92l.18.93h.05c.37-.32.79-.59,1.24-.82.45-.22.92-.34,1.4-.34.74,0,1.37.19,1.89.57s.93.91,1.21,1.58.42,1.48.42,2.41c0,1.02-.18,1.9-.54,2.62-.36.73-.83,1.28-1.42,1.66-.58.38-1.2.57-1.85.57-.38,0-.77-.09-1.14-.26-.38-.17-.74-.41-1.08-.72l.08,1.46v2.74h-2.35Zm3.98-5.15c.35,0,.67-.1.96-.31s.52-.53.69-.95.26-.97.26-1.62c0-.56-.06-1.05-.19-1.45-.13-.4-.32-.7-.58-.9s-.59-.3-1.01-.3c-.3,0-.59.08-.87.22-.28.15-.58.38-.89.69v3.95c.29.26.57.43.85.53s.54.14.78.14Z"/>
        <path class="cls-6" d="m363.96,121.71c-.83,0-1.58-.19-2.26-.56s-1.21-.91-1.61-1.62c-.4-.7-.6-1.55-.6-2.53,0-.73.11-1.38.34-1.95s.54-1.07.94-1.48c.4-.41.85-.72,1.34-.94s1.01-.33,1.54-.33c.82,0,1.51.18,2.06.55.55.37.97.87,1.26,1.52.28.65.42,1.38.42,2.22,0,.21-.01.42-.03.62s-.05.35-.08.47h-5.52c.06.48.21.89.43,1.22.22.33.51.58.86.74.35.17.75.25,1.2.25.36,0,.7-.05,1.02-.15.32-.1.65-.25.98-.46l.8,1.44c-.44.3-.93.54-1.47.72-.54.18-1.09.27-1.65.27Zm-2.22-5.62h3.66c0-.6-.14-1.07-.41-1.43-.27-.36-.7-.54-1.29-.54-.31,0-.6.07-.88.22-.28.14-.51.36-.7.66-.19.29-.32.66-.38,1.1Z"/>
        <path class="cls-6" d="m369.35,121.48v-8.96h1.92l.18,1.58h.05c.33-.59.72-1.04,1.17-1.34.45-.31.91-.46,1.38-.46.26,0,.46.02.62.06.16.04.3.08.42.13l-.38,2.03c-.17-.04-.32-.08-.46-.1-.13-.03-.3-.04-.5-.04-.34,0-.7.13-1.08.4-.38.27-.7.72-.95,1.36v5.34h-2.35Z"/>
        <path class="cls-6" d="m377.96,121.71c-.52,0-.98-.12-1.38-.34-.4-.23-.71-.55-.93-.95s-.33-.86-.33-1.38c0-.95.41-1.69,1.23-2.22.82-.53,2.13-.89,3.92-1.08-.01-.3-.06-.56-.16-.79-.1-.23-.25-.41-.47-.55s-.51-.21-.89-.21c-.42,0-.83.08-1.23.24-.41.16-.82.37-1.23.62l-.83-1.57c.35-.22.73-.42,1.12-.59.39-.17.81-.31,1.25-.42.44-.11.89-.17,1.36-.17.76,0,1.39.15,1.9.45.51.3.9.74,1.15,1.33.26.59.38,1.31.38,2.18v5.23h-1.92l-.16-.96h-.08c-.38.34-.8.62-1.25.85-.45.22-.93.34-1.46.34Zm.78-1.84c.33,0,.63-.08.9-.23.27-.15.55-.37.82-.65v-1.79c-.73.08-1.3.21-1.73.37-.43.16-.73.35-.91.57-.18.22-.27.46-.27.73,0,.35.11.61.33.77s.5.24.86.24Z"/>
        <path class="cls-6" d="m388.1,121.71c-.7,0-1.27-.14-1.71-.42-.44-.28-.75-.67-.94-1.18-.19-.5-.29-1.08-.29-1.74v-3.98h-1.26v-1.74l1.39-.11.27-2.42h1.94v2.42h2.22v1.86h-2.22v3.97c0,.51.11.89.32,1.14.21.25.52.37.91.37.15,0,.3-.02.46-.06.16-.04.3-.09.42-.13l.4,1.71c-.25.07-.53.15-.84.22s-.67.11-1.06.11Z"/>
        <path class="cls-6" d="m392.74,111.06c-.42,0-.75-.11-.99-.34-.25-.23-.37-.54-.37-.94s.12-.69.37-.93c.25-.23.58-.35.99-.35.39,0,.72.12.98.35s.38.54.38.93-.13.71-.38.94c-.26.23-.58.34-.98.34Zm-1.18,10.42v-8.96h2.35v8.96h-2.35Z"/>
        <path class="cls-6" d="m400.16,121.71c-.75,0-1.45-.19-2.1-.56s-1.19-.91-1.59-1.61-.61-1.54-.61-2.54.2-1.84.61-2.54c.41-.7.94-1.23,1.59-1.61s1.36-.56,2.1-.56c.57,0,1.1.11,1.62.32.51.21.97.52,1.38.92s.73.89.96,1.47.35,1.25.35,1.99c0,.99-.2,1.84-.61,2.54s-.94,1.23-1.59,1.61-1.36.56-2.1.56Zm0-1.92c.41,0,.75-.12,1.03-.34.28-.23.5-.55.64-.97.14-.42.22-.91.22-1.47s-.07-1.06-.22-1.47c-.14-.42-.36-.74-.64-.97-.28-.23-.63-.34-1.03-.34s-.75.12-1.03.34c-.28.23-.5.55-.64.97-.14.42-.22.91-.22,1.47s.07,1.06.22,1.47c.14.42.36.74.64.97.28.23.63.34,1.03.34Z"/>
        <path class="cls-6" d="m406.44,121.48v-8.96h1.92l.18,1.18h.05c.39-.38.83-.71,1.3-.99.47-.28,1.01-.42,1.62-.42.97,0,1.67.32,2.11.95s.66,1.52.66,2.65v5.58h-2.35v-5.29c0-.69-.1-1.18-.3-1.46s-.52-.42-.97-.42c-.36,0-.68.09-.95.26-.27.17-.57.42-.9.75v6.16h-2.35Z"/>
      </g>
    </g>
    <rect class="cls-4" width="581.1" height="184.25"/>
  </g>
</svg>